<svg width="1440" height="552" viewBox="0 0 1440 552" fill="none" xmlns="http://www.w3.org/2000/svg">
<mask id="mask0_1160_3176" style="mask-type:alpha" maskUnits="userSpaceOnUse" x="180" y="0" width="1080" height="1080">
<rect width="1080" height="1080" transform="translate(180)" fill="url(#paint0_radial_1160_3176)"/>
</mask>
<g mask="url(#mask0_1160_3176)">
<g clip-path="url(#clip0_1160_3176)">
<path d="M216 72V72.75H216.75V72H216ZM215.25 0V72H216.75V0H215.25ZM216 71.25H144V72.75H216V71.25Z" fill="#B2CCFF" mask="url(#path-3-inside-1_1160_3176)"/>
<path d="M288 72V72.75H288.75V72H288ZM287.25 0V72H288.75V0H287.25ZM288 71.25H216V72.75H288V71.25Z" fill="#B2CCFF" mask="url(#path-5-inside-2_1160_3176)"/>
<path d="M360 72V72.75H360.75V72H360ZM359.25 0V72H360.75V0H359.25ZM360 71.25H288V72.75H360V71.25Z" fill="#B2CCFF" mask="url(#path-7-inside-3_1160_3176)"/>
<path d="M432 72V72.75H432.75V72H432ZM431.25 0V72H432.75V0H431.25ZM432 71.25H360V72.75H432V71.25Z" fill="#B2CCFF" mask="url(#path-9-inside-4_1160_3176)"/>
<path d="M504 72V72.75H504.75V72H504ZM503.25 0V72H504.75V0H503.25ZM504 71.25H432V72.75H504V71.25Z" fill="#B2CCFF" mask="url(#path-11-inside-5_1160_3176)"/>
<path d="M576 72V72.75H576.75V72H576ZM575.25 0V72H576.75V0H575.25ZM576 71.25H504V72.75H576V71.25Z" fill="#B2CCFF" mask="url(#path-13-inside-6_1160_3176)"/>
<path d="M648 72V72.75H648.75V72H648ZM647.25 0V72H648.75V0H647.25ZM648 71.25H576V72.75H648V71.25Z" fill="#B2CCFF" mask="url(#path-15-inside-7_1160_3176)"/>
<path d="M720 72V72.75H720.75V72H720ZM719.25 0V72H720.75V0H719.25ZM720 71.25H648V72.75H720V71.25Z" fill="#B2CCFF" mask="url(#path-17-inside-8_1160_3176)"/>
<path d="M792 72V72.75H792.75V72H792ZM791.25 0V72H792.75V0H791.25ZM792 71.25H720V72.75H792V71.25Z" fill="#B2CCFF" mask="url(#path-19-inside-9_1160_3176)"/>
<path d="M864 72V72.75H864.75V72H864ZM863.25 0V72H864.75V0H863.25ZM864 71.25H792V72.75H864V71.25Z" fill="#B2CCFF" mask="url(#path-21-inside-10_1160_3176)"/>
<path d="M936 72V72.75H936.75V72H936ZM935.25 0V72H936.75V0H935.25ZM936 71.25H864V72.75H936V71.25Z" fill="#B2CCFF" mask="url(#path-23-inside-11_1160_3176)"/>
<path d="M1008 72V72.75H1008.75V72H1008ZM1007.25 0V72H1008.75V0H1007.25ZM1008 71.25H936V72.75H1008V71.25Z" fill="#B2CCFF" mask="url(#path-25-inside-12_1160_3176)"/>
<path d="M1080 72V72.75H1080.75V72H1080ZM1079.25 0V72H1080.75V0H1079.25ZM1080 71.25H1008V72.75H1080V71.25Z" fill="#B2CCFF" mask="url(#path-27-inside-13_1160_3176)"/>
<path d="M1152 72V72.75H1152.75V72H1152ZM1151.25 0V72H1152.75V0H1151.25ZM1152 71.25H1080V72.75H1152V71.25Z" fill="#B2CCFF" mask="url(#path-29-inside-14_1160_3176)"/>
<path d="M1224 72V72.75H1224.75V72H1224ZM1223.25 0V72H1224.75V0H1223.25ZM1224 71.25H1152V72.75H1224V71.25Z" fill="#B2CCFF" mask="url(#path-31-inside-15_1160_3176)"/>
<path d="M1296 72V72.75H1296.75V72H1296ZM1295.25 0V72H1296.75V0H1295.25ZM1296 71.25H1224V72.75H1296V71.25Z" fill="#B2CCFF" mask="url(#path-33-inside-16_1160_3176)"/>
<path d="M216 144V144.75H216.75V144H216ZM215.25 72V144H216.75V72H215.25ZM216 143.25H144V144.75H216V143.25Z" fill="#B2CCFF" mask="url(#path-35-inside-17_1160_3176)"/>
<path d="M288 144V144.75H288.75V144H288ZM287.25 72V144H288.75V72H287.25ZM288 143.25H216V144.75H288V143.25Z" fill="#B2CCFF" mask="url(#path-37-inside-18_1160_3176)"/>
<path d="M360 144V144.75H360.75V144H360ZM359.25 72V144H360.75V72H359.25ZM360 143.25H288V144.75H360V143.25Z" fill="#B2CCFF" mask="url(#path-39-inside-19_1160_3176)"/>
<mask id="path-41-inside-20_1160_3176" fill="white">
<path d="M360 72H432V144H360V72Z"/>
</mask>
<path d="M360 72H432V144H360V72Z" fill="#F0F9FF"/>
<path d="M432 144V144.75H432.75V144H432ZM431.25 72V144H432.75V72H431.25ZM432 143.25H360V144.75H432V143.25Z" fill="#B2CCFF" mask="url(#path-41-inside-20_1160_3176)"/>
<path d="M504 144V144.75H504.75V144H504ZM503.25 72V144H504.75V72H503.25ZM504 143.25H432V144.75H504V143.25Z" fill="#B2CCFF" mask="url(#path-43-inside-21_1160_3176)"/>
<path d="M576 144V144.75H576.75V144H576ZM575.25 72V144H576.75V72H575.25ZM576 143.25H504V144.75H576V143.25Z" fill="#B2CCFF" mask="url(#path-45-inside-22_1160_3176)"/>
<path d="M648 144V144.75H648.75V144H648ZM647.25 72V144H648.75V72H647.25ZM648 143.25H576V144.75H648V143.25Z" fill="#B2CCFF" mask="url(#path-47-inside-23_1160_3176)"/>
<path d="M720 144V144.75H720.75V144H720ZM719.25 72V144H720.75V72H719.25ZM720 143.25H648V144.75H720V143.25Z" fill="#B2CCFF" mask="url(#path-49-inside-24_1160_3176)"/>
<path d="M792 144V144.75H792.75V144H792ZM791.25 72V144H792.75V72H791.25ZM792 143.25H720V144.75H792V143.25Z" fill="#B2CCFF" mask="url(#path-51-inside-25_1160_3176)"/>
<path d="M864 144V144.75H864.75V144H864ZM863.25 72V144H864.75V72H863.25ZM864 143.25H792V144.75H864V143.25Z" fill="#B2CCFF" mask="url(#path-53-inside-26_1160_3176)"/>
<path d="M936 144V144.75H936.75V144H936ZM935.25 72V144H936.75V72H935.25ZM936 143.25H864V144.75H936V143.25Z" fill="#B2CCFF" mask="url(#path-55-inside-27_1160_3176)"/>
<path d="M1008 144V144.75H1008.75V144H1008ZM1007.25 72V144H1008.75V72H1007.25ZM1008 143.25H936V144.75H1008V143.25Z" fill="#B2CCFF" mask="url(#path-57-inside-28_1160_3176)"/>
<mask id="path-59-inside-29_1160_3176" fill="white">
<path d="M1008 72H1080V144H1008V72Z"/>
</mask>
<path d="M1008 72H1080V144H1008V72Z" fill="#F0F9FF"/>
<path d="M1080 144V144.75H1080.75V144H1080ZM1079.25 72V144H1080.75V72H1079.25ZM1080 143.25H1008V144.75H1080V143.25Z" fill="#B2CCFF" mask="url(#path-59-inside-29_1160_3176)"/>
<path d="M1152 144V144.75H1152.75V144H1152ZM1151.25 72V144H1152.75V72H1151.25ZM1152 143.25H1080V144.75H1152V143.25Z" fill="#B2CCFF" mask="url(#path-61-inside-30_1160_3176)"/>
<path d="M1224 144V144.75H1224.75V144H1224ZM1223.25 72V144H1224.75V72H1223.25ZM1224 143.25H1152V144.75H1224V143.25Z" fill="#B2CCFF" mask="url(#path-63-inside-31_1160_3176)"/>
<path d="M1296 144V144.75H1296.75V144H1296ZM1295.25 72V144H1296.75V72H1295.25ZM1296 143.25H1224V144.75H1296V143.25Z" fill="#B2CCFF" mask="url(#path-65-inside-32_1160_3176)"/>
<path d="M216 216V216.75H216.75V216H216ZM215.25 144V216H216.75V144H215.25ZM216 215.25H144V216.75H216V215.25Z" fill="#B2CCFF" mask="url(#path-67-inside-33_1160_3176)"/>
<path d="M288 216V216.75H288.75V216H288ZM287.25 144V216H288.75V144H287.25ZM288 215.25H216V216.75H288V215.25Z" fill="#B2CCFF" mask="url(#path-69-inside-34_1160_3176)"/>
<path d="M360 216V216.75H360.75V216H360ZM359.25 144V216H360.75V144H359.25ZM360 215.25H288V216.75H360V215.25Z" fill="#B2CCFF" mask="url(#path-71-inside-35_1160_3176)"/>
<path d="M432 216V216.75H432.75V216H432ZM431.25 144V216H432.75V144H431.25ZM432 215.25H360V216.75H432V215.25Z" fill="#B2CCFF" mask="url(#path-73-inside-36_1160_3176)"/>
<path d="M504 216V216.75H504.75V216H504ZM503.25 144V216H504.75V144H503.25ZM504 215.25H432V216.75H504V215.25Z" fill="#B2CCFF" mask="url(#path-75-inside-37_1160_3176)"/>
<mask id="path-77-inside-38_1160_3176" fill="white">
<path d="M504 144H576V216H504V144Z"/>
</mask>
<path d="M504 144H576V216H504V144Z" fill="#F0F9FF"/>
<path d="M576 216V216.75H576.75V216H576ZM575.25 144V216H576.75V144H575.25ZM576 215.25H504V216.75H576V215.25Z" fill="#B2CCFF" mask="url(#path-77-inside-38_1160_3176)"/>
<path d="M648 216V216.75H648.75V216H648ZM647.25 144V216H648.75V144H647.25ZM648 215.25H576V216.75H648V215.25Z" fill="#B2CCFF" mask="url(#path-79-inside-39_1160_3176)"/>
<path d="M720 216V216.75H720.75V216H720ZM719.25 144V216H720.75V144H719.25ZM720 215.25H648V216.75H720V215.25Z" fill="#B2CCFF" mask="url(#path-81-inside-40_1160_3176)"/>
<path d="M792 216V216.75H792.75V216H792ZM791.25 144V216H792.75V144H791.25ZM792 215.25H720V216.75H792V215.25Z" fill="#B2CCFF" mask="url(#path-83-inside-41_1160_3176)"/>
<mask id="path-85-inside-42_1160_3176" fill="white">
<path d="M792 144H864V216H792V144Z"/>
</mask>
<path d="M792 144H864V216H792V144Z" fill="#F0F9FF"/>
<path d="M864 216V216.75H864.75V216H864ZM863.25 144V216H864.75V144H863.25ZM864 215.25H792V216.75H864V215.25Z" fill="#B2CCFF" mask="url(#path-85-inside-42_1160_3176)"/>
<path d="M936 216V216.75H936.75V216H936ZM935.25 144V216H936.75V144H935.25ZM936 215.25H864V216.75H936V215.25Z" fill="#B2CCFF" mask="url(#path-87-inside-43_1160_3176)"/>
<path d="M1008 216V216.75H1008.75V216H1008ZM1007.25 144V216H1008.75V144H1007.25ZM1008 215.25H936V216.75H1008V215.25Z" fill="#B2CCFF" mask="url(#path-89-inside-44_1160_3176)"/>
<path d="M1080 216V216.75H1080.75V216H1080ZM1079.25 144V216H1080.75V144H1079.25ZM1080 215.25H1008V216.75H1080V215.25Z" fill="#B2CCFF" mask="url(#path-91-inside-45_1160_3176)"/>
<path d="M1152 216V216.75H1152.75V216H1152ZM1151.25 144V216H1152.75V144H1151.25ZM1152 215.25H1080V216.75H1152V215.25Z" fill="#B2CCFF" mask="url(#path-93-inside-46_1160_3176)"/>
<path d="M1224 216V216.75H1224.75V216H1224ZM1223.25 144V216H1224.75V144H1223.25ZM1224 215.25H1152V216.75H1224V215.25Z" fill="#B2CCFF" mask="url(#path-95-inside-47_1160_3176)"/>
<path d="M1296 216V216.75H1296.75V216H1296ZM1295.25 144V216H1296.75V144H1295.25ZM1296 215.25H1224V216.75H1296V215.25Z" fill="#B2CCFF" mask="url(#path-97-inside-48_1160_3176)"/>
<mask id="path-99-inside-49_1160_3176" fill="white">
<path d="M144 216H216V288H144V216Z"/>
</mask>
<path d="M144 216H216V288H144V216Z" fill="#F0F9FF"/>
<path d="M216 288V288.75H216.75V288H216ZM215.25 216V288H216.75V216H215.25ZM216 287.25H144V288.75H216V287.25Z" fill="#B2CCFF" mask="url(#path-99-inside-49_1160_3176)"/>
<path d="M288 288V288.75H288.75V288H288ZM287.25 216V288H288.75V216H287.25ZM288 287.25H216V288.75H288V287.25Z" fill="#B2CCFF" mask="url(#path-101-inside-50_1160_3176)"/>
<path d="M360 288V288.75H360.75V288H360ZM359.25 216V288H360.75V216H359.25ZM360 287.25H288V288.75H360V287.25Z" fill="#B2CCFF" mask="url(#path-103-inside-51_1160_3176)"/>
<path d="M432 288V288.75H432.75V288H432ZM431.25 216V288H432.75V216H431.25ZM432 287.25H360V288.75H432V287.25Z" fill="#B2CCFF" mask="url(#path-105-inside-52_1160_3176)"/>
<path d="M504 288V288.75H504.75V288H504ZM503.25 216V288H504.75V216H503.25ZM504 287.25H432V288.75H504V287.25Z" fill="#B2CCFF" mask="url(#path-107-inside-53_1160_3176)"/>
<path d="M576 288V288.75H576.75V288H576ZM575.25 216V288H576.75V216H575.25ZM576 287.25H504V288.75H576V287.25Z" fill="#B2CCFF" mask="url(#path-109-inside-54_1160_3176)"/>
<path d="M648 288V288.75H648.75V288H648ZM647.25 216V288H648.75V216H647.25ZM648 287.25H576V288.75H648V287.25Z" fill="#B2CCFF" mask="url(#path-111-inside-55_1160_3176)"/>
<path d="M720 288V288.75H720.75V288H720ZM719.25 216V288H720.75V216H719.25ZM720 287.25H648V288.75H720V287.25Z" fill="#B2CCFF" mask="url(#path-113-inside-56_1160_3176)"/>
<path d="M792 288V288.75H792.75V288H792ZM791.25 216V288H792.75V216H791.25ZM792 287.25H720V288.75H792V287.25Z" fill="#B2CCFF" mask="url(#path-115-inside-57_1160_3176)"/>
<path d="M864 288V288.75H864.75V288H864ZM863.25 216V288H864.75V216H863.25ZM864 287.25H792V288.75H864V287.25Z" fill="#B2CCFF" mask="url(#path-117-inside-58_1160_3176)"/>
<path d="M936 288V288.75H936.75V288H936ZM935.25 216V288H936.75V216H935.25ZM936 287.25H864V288.75H936V287.25Z" fill="#B2CCFF" mask="url(#path-119-inside-59_1160_3176)"/>
<path d="M1008 288V288.75H1008.75V288H1008ZM1007.25 216V288H1008.75V216H1007.25ZM1008 287.25H936V288.75H1008V287.25Z" fill="#B2CCFF" mask="url(#path-121-inside-60_1160_3176)"/>
<mask id="path-123-inside-61_1160_3176" fill="white">
<path d="M1008 216H1080V288H1008V216Z"/>
</mask>
<path d="M1008 216H1080V288H1008V216Z" fill="#F0F9FF"/>
<path d="M1080 288V288.75H1080.75V288H1080ZM1079.25 216V288H1080.75V216H1079.25ZM1080 287.25H1008V288.75H1080V287.25Z" fill="#B2CCFF" mask="url(#path-123-inside-61_1160_3176)"/>
<path d="M1152 288V288.75H1152.75V288H1152ZM1151.25 216V288H1152.75V216H1151.25ZM1152 287.25H1080V288.75H1152V287.25Z" fill="#B2CCFF" mask="url(#path-125-inside-62_1160_3176)"/>
<path d="M1224 288V288.75H1224.75V288H1224ZM1223.25 216V288H1224.75V216H1223.25ZM1224 287.25H1152V288.75H1224V287.25Z" fill="#B2CCFF" mask="url(#path-127-inside-63_1160_3176)"/>
<path d="M1296 288V288.75H1296.75V288H1296ZM1295.25 216V288H1296.75V216H1295.25ZM1296 287.25H1224V288.75H1296V287.25Z" fill="#B2CCFF" mask="url(#path-129-inside-64_1160_3176)"/>
<path d="M216 360V360.75H216.75V360H216ZM215.25 288V360H216.75V288H215.25ZM216 359.25H144V360.75H216V359.25Z" fill="#B2CCFF" mask="url(#path-131-inside-65_1160_3176)"/>
<path d="M288 360V360.75H288.75V360H288ZM287.25 288V360H288.75V288H287.25ZM288 359.25H216V360.75H288V359.25Z" fill="#B2CCFF" mask="url(#path-133-inside-66_1160_3176)"/>
<path d="M360 360V360.75H360.75V360H360ZM359.25 288V360H360.75V288H359.25ZM360 359.25H288V360.75H360V359.25Z" fill="#B2CCFF" mask="url(#path-135-inside-67_1160_3176)"/>
<path d="M432 360V360.75H432.75V360H432ZM431.25 288V360H432.75V288H431.25ZM432 359.25H360V360.75H432V359.25Z" fill="#B2CCFF" mask="url(#path-137-inside-68_1160_3176)"/>
<path d="M504 360V360.75H504.75V360H504ZM503.25 288V360H504.75V288H503.25ZM504 359.25H432V360.75H504V359.25Z" fill="#B2CCFF" mask="url(#path-139-inside-69_1160_3176)"/>
<path d="M576 360V360.75H576.75V360H576ZM575.25 288V360H576.75V288H575.25ZM576 359.25H504V360.75H576V359.25Z" fill="#B2CCFF" mask="url(#path-141-inside-70_1160_3176)"/>
<mask id="path-143-inside-71_1160_3176" fill="white">
<path d="M576 288H648V360H576V288Z"/>
</mask>
<path d="M576 288H648V360H576V288Z" fill="#F0F9FF"/>
<path d="M648 360V360.75H648.75V360H648ZM647.25 288V360H648.75V288H647.25ZM648 359.25H576V360.75H648V359.25Z" fill="#B2CCFF" mask="url(#path-143-inside-71_1160_3176)"/>
<path d="M720 360V360.75H720.75V360H720ZM719.25 288V360H720.75V288H719.25ZM720 359.25H648V360.75H720V359.25Z" fill="#B2CCFF" mask="url(#path-145-inside-72_1160_3176)"/>
<path d="M792 360V360.75H792.75V360H792ZM791.25 288V360H792.75V288H791.25ZM792 359.25H720V360.75H792V359.25Z" fill="#B2CCFF" mask="url(#path-147-inside-73_1160_3176)"/>
<path d="M864 360V360.75H864.75V360H864ZM863.25 288V360H864.75V288H863.25ZM864 359.25H792V360.75H864V359.25Z" fill="#B2CCFF" mask="url(#path-149-inside-74_1160_3176)"/>
<path d="M936 360V360.75H936.75V360H936ZM935.25 288V360H936.75V288H935.25ZM936 359.25H864V360.75H936V359.25Z" fill="#B2CCFF" mask="url(#path-151-inside-75_1160_3176)"/>
<path d="M1008 360V360.75H1008.75V360H1008ZM1007.25 288V360H1008.75V288H1007.25ZM1008 359.25H936V360.75H1008V359.25Z" fill="#B2CCFF" mask="url(#path-153-inside-76_1160_3176)"/>
<path d="M1080 360V360.75H1080.75V360H1080ZM1079.25 288V360H1080.75V288H1079.25ZM1080 359.25H1008V360.75H1080V359.25Z" fill="#B2CCFF" mask="url(#path-155-inside-77_1160_3176)"/>
<path d="M1152 360V360.75H1152.75V360H1152ZM1151.25 288V360H1152.75V288H1151.25ZM1152 359.25H1080V360.75H1152V359.25Z" fill="#B2CCFF" mask="url(#path-157-inside-78_1160_3176)"/>
<path d="M1224 360V360.75H1224.75V360H1224ZM1223.25 288V360H1224.75V288H1223.25ZM1224 359.25H1152V360.75H1224V359.25Z" fill="#B2CCFF" mask="url(#path-159-inside-79_1160_3176)"/>
<path d="M1296 360V360.75H1296.75V360H1296ZM1295.25 288V360H1296.75V288H1295.25ZM1296 359.25H1224V360.75H1296V359.25Z" fill="#B2CCFF" mask="url(#path-161-inside-80_1160_3176)"/>
<path d="M216 432V432.75H216.75V432H216ZM215.25 360V432H216.75V360H215.25ZM216 431.25H144V432.75H216V431.25Z" fill="#B2CCFF" mask="url(#path-163-inside-81_1160_3176)"/>
<path d="M288 432V432.75H288.75V432H288ZM287.25 360V432H288.75V360H287.25ZM288 431.25H216V432.75H288V431.25Z" fill="#B2CCFF" mask="url(#path-165-inside-82_1160_3176)"/>
<path d="M360 432V432.75H360.75V432H360ZM359.25 360V432H360.75V360H359.25ZM360 431.25H288V432.75H360V431.25Z" fill="#B2CCFF" mask="url(#path-167-inside-83_1160_3176)"/>
<mask id="path-169-inside-84_1160_3176" fill="white">
<path d="M360 360H432V432H360V360Z"/>
</mask>
<path d="M360 360H432V432H360V360Z" fill="#F0F9FF"/>
<path d="M432 432V432.75H432.75V432H432ZM431.25 360V432H432.75V360H431.25ZM432 431.25H360V432.75H432V431.25Z" fill="#B2CCFF" mask="url(#path-169-inside-84_1160_3176)"/>
<path d="M504 432V432.75H504.75V432H504ZM503.25 360V432H504.75V360H503.25ZM504 431.25H432V432.75H504V431.25Z" fill="#B2CCFF" mask="url(#path-171-inside-85_1160_3176)"/>
<path d="M576 432V432.75H576.75V432H576ZM575.25 360V432H576.75V360H575.25ZM576 431.25H504V432.75H576V431.25Z" fill="#B2CCFF" mask="url(#path-173-inside-86_1160_3176)"/>
<path d="M648 432V432.75H648.75V432H648ZM647.25 360V432H648.75V360H647.25ZM648 431.25H576V432.75H648V431.25Z" fill="#B2CCFF" mask="url(#path-175-inside-87_1160_3176)"/>
<path d="M720 432V432.75H720.75V432H720ZM719.25 360V432H720.75V360H719.25ZM720 431.25H648V432.75H720V431.25Z" fill="#B2CCFF" mask="url(#path-177-inside-88_1160_3176)"/>
<path d="M792 432V432.75H792.75V432H792ZM791.25 360V432H792.75V360H791.25ZM792 431.25H720V432.75H792V431.25Z" fill="#B2CCFF" mask="url(#path-179-inside-89_1160_3176)"/>
<mask id="path-181-inside-90_1160_3176" fill="white">
<path d="M792 360H864V432H792V360Z"/>
</mask>
<path d="M792 360H864V432H792V360Z" fill="#F0F9FF"/>
<path d="M864 432V432.75H864.75V432H864ZM863.25 360V432H864.75V360H863.25ZM864 431.25H792V432.75H864V431.25Z" fill="#B2CCFF" mask="url(#path-181-inside-90_1160_3176)"/>
<path d="M936 432V432.75H936.75V432H936ZM935.25 360V432H936.75V360H935.25ZM936 431.25H864V432.75H936V431.25Z" fill="#B2CCFF" mask="url(#path-183-inside-91_1160_3176)"/>
<path d="M1008 432V432.75H1008.75V432H1008ZM1007.25 360V432H1008.75V360H1007.25ZM1008 431.25H936V432.75H1008V431.25Z" fill="#B2CCFF" mask="url(#path-185-inside-92_1160_3176)"/>
<path d="M1080 432V432.75H1080.75V432H1080ZM1079.25 360V432H1080.75V360H1079.25ZM1080 431.25H1008V432.75H1080V431.25Z" fill="#B2CCFF" mask="url(#path-187-inside-93_1160_3176)"/>
<path d="M1152 432V432.75H1152.75V432H1152ZM1151.25 360V432H1152.75V360H1151.25ZM1152 431.25H1080V432.75H1152V431.25Z" fill="#B2CCFF" mask="url(#path-189-inside-94_1160_3176)"/>
<path d="M1224 432V432.75H1224.75V432H1224ZM1223.25 360V432H1224.75V360H1223.25ZM1224 431.25H1152V432.75H1224V431.25Z" fill="#B2CCFF" mask="url(#path-191-inside-95_1160_3176)"/>
<path d="M1296 432V432.75H1296.75V432H1296ZM1295.25 360V432H1296.75V360H1295.25ZM1296 431.25H1224V432.75H1296V431.25Z" fill="#B2CCFF" mask="url(#path-193-inside-96_1160_3176)"/>
<path d="M216 504V504.75H216.75V504H216ZM215.25 432V504H216.75V432H215.25ZM216 503.25H144V504.75H216V503.25Z" fill="#B2CCFF" mask="url(#path-195-inside-97_1160_3176)"/>
<mask id="path-197-inside-98_1160_3176" fill="white">
<path d="M216 432H288V504H216V432Z"/>
</mask>
<path d="M216 432H288V504H216V432Z" fill="#F0F9FF"/>
<path d="M288 504V504.75H288.75V504H288ZM287.25 432V504H288.75V432H287.25ZM288 503.25H216V504.75H288V503.25Z" fill="#B2CCFF" mask="url(#path-197-inside-98_1160_3176)"/>
<path d="M360 504V504.75H360.75V504H360ZM359.25 432V504H360.75V432H359.25ZM360 503.25H288V504.75H360V503.25Z" fill="#B2CCFF" mask="url(#path-199-inside-99_1160_3176)"/>
<path d="M432 504V504.75H432.75V504H432ZM431.25 432V504H432.75V432H431.25ZM432 503.25H360V504.75H432V503.25Z" fill="#B2CCFF" mask="url(#path-201-inside-100_1160_3176)"/>
<path d="M504 504V504.75H504.75V504H504ZM503.25 432V504H504.75V432H503.25ZM504 503.25H432V504.75H504V503.25Z" fill="#B2CCFF" mask="url(#path-203-inside-101_1160_3176)"/>
<path d="M576 504V504.75H576.75V504H576ZM575.25 432V504H576.75V432H575.25ZM576 503.25H504V504.75H576V503.25Z" fill="#B2CCFF" mask="url(#path-205-inside-102_1160_3176)"/>
<path d="M648 504V504.75H648.75V504H648ZM647.25 432V504H648.75V432H647.25ZM648 503.25H576V504.75H648V503.25Z" fill="#B2CCFF" mask="url(#path-207-inside-103_1160_3176)"/>
<path d="M720 504V504.75H720.75V504H720ZM719.25 432V504H720.75V432H719.25ZM720 503.25H648V504.75H720V503.25Z" fill="#B2CCFF" mask="url(#path-209-inside-104_1160_3176)"/>
<path d="M792 504V504.75H792.75V504H792ZM791.25 432V504H792.75V432H791.25ZM792 503.25H720V504.75H792V503.25Z" fill="#B2CCFF" mask="url(#path-211-inside-105_1160_3176)"/>
<path d="M864 504V504.75H864.75V504H864ZM863.25 432V504H864.75V432H863.25ZM864 503.25H792V504.75H864V503.25Z" fill="#B2CCFF" mask="url(#path-213-inside-106_1160_3176)"/>
<path d="M936 504V504.75H936.75V504H936ZM935.25 432V504H936.75V432H935.25ZM936 503.25H864V504.75H936V503.25Z" fill="#B2CCFF" mask="url(#path-215-inside-107_1160_3176)"/>
<path d="M1008 504V504.75H1008.75V504H1008ZM1007.25 432V504H1008.75V432H1007.25ZM1008 503.25H936V504.75H1008V503.25Z" fill="#B2CCFF" mask="url(#path-217-inside-108_1160_3176)"/>
<path d="M1080 504V504.75H1080.75V504H1080ZM1079.25 432V504H1080.75V432H1079.25ZM1080 503.25H1008V504.75H1080V503.25Z" fill="#B2CCFF" mask="url(#path-219-inside-109_1160_3176)"/>
<path d="M1152 504V504.75H1152.75V504H1152ZM1151.25 432V504H1152.75V432H1151.25ZM1152 503.25H1080V504.75H1152V503.25Z" fill="#B2CCFF" mask="url(#path-221-inside-110_1160_3176)"/>
<mask id="path-223-inside-111_1160_3176" fill="white">
<path d="M1152 432H1224V504H1152V432Z"/>
</mask>
<path d="M1152 432H1224V504H1152V432Z" fill="#F0F9FF"/>
<path d="M1224 504V504.75H1224.75V504H1224ZM1223.25 432V504H1224.75V432H1223.25ZM1224 503.25H1152V504.75H1224V503.25Z" fill="#B2CCFF" mask="url(#path-223-inside-111_1160_3176)"/>
<path d="M1296 504V504.75H1296.75V504H1296ZM1295.25 432V504H1296.75V432H1295.25ZM1296 503.25H1224V504.75H1296V503.25Z" fill="#B2CCFF" mask="url(#path-225-inside-112_1160_3176)"/>
<path d="M216 576V576.75H216.75V576H216ZM215.25 504V576H216.75V504H215.25ZM216 575.25H144V576.75H216V575.25Z" fill="#B2CCFF" mask="url(#path-227-inside-113_1160_3176)"/>
<path d="M288 576V576.75H288.75V576H288ZM287.25 504V576H288.75V504H287.25ZM288 575.25H216V576.75H288V575.25Z" fill="#B2CCFF" mask="url(#path-229-inside-114_1160_3176)"/>
<path d="M360 576V576.75H360.75V576H360ZM359.25 504V576H360.75V504H359.25ZM360 575.25H288V576.75H360V575.25Z" fill="#B2CCFF" mask="url(#path-231-inside-115_1160_3176)"/>
<path d="M432 576V576.75H432.75V576H432ZM431.25 504V576H432.75V504H431.25ZM432 575.25H360V576.75H432V575.25Z" fill="#B2CCFF" mask="url(#path-233-inside-116_1160_3176)"/>
<path d="M504 576V576.75H504.75V576H504ZM503.25 504V576H504.75V504H503.25ZM504 575.25H432V576.75H504V575.25Z" fill="#B2CCFF" mask="url(#path-235-inside-117_1160_3176)"/>
<path d="M576 576V576.75H576.75V576H576ZM575.25 504V576H576.75V504H575.25ZM576 575.25H504V576.75H576V575.25Z" fill="#B2CCFF" mask="url(#path-237-inside-118_1160_3176)"/>
<mask id="path-239-inside-119_1160_3176" fill="white">
<path d="M576 504H648V576H576V504Z"/>
</mask>
<path d="M576 504H648V576H576V504Z" fill="#F0F9FF"/>
<path d="M648 576V576.75H648.75V576H648ZM647.25 504V576H648.75V504H647.25ZM648 575.25H576V576.75H648V575.25Z" fill="#B2CCFF" mask="url(#path-239-inside-119_1160_3176)"/>
<path d="M720 576V576.75H720.75V576H720ZM719.25 504V576H720.75V504H719.25ZM720 575.25H648V576.75H720V575.25Z" fill="#B2CCFF" mask="url(#path-241-inside-120_1160_3176)"/>
<path d="M792 576V576.75H792.75V576H792ZM791.25 504V576H792.75V504H791.25ZM792 575.25H720V576.75H792V575.25Z" fill="#B2CCFF" mask="url(#path-243-inside-121_1160_3176)"/>
<path d="M864 576V576.75H864.75V576H864ZM863.25 504V576H864.75V504H863.25ZM864 575.25H792V576.75H864V575.25Z" fill="#B2CCFF" mask="url(#path-245-inside-122_1160_3176)"/>
<path d="M936 576V576.75H936.75V576H936ZM935.25 504V576H936.75V504H935.25ZM936 575.25H864V576.75H936V575.25Z" fill="#B2CCFF" mask="url(#path-247-inside-123_1160_3176)"/>
<path d="M1008 576V576.75H1008.75V576H1008ZM1007.25 504V576H1008.75V504H1007.25ZM1008 575.25H936V576.75H1008V575.25Z" fill="#B2CCFF" mask="url(#path-249-inside-124_1160_3176)"/>
<mask id="path-251-inside-125_1160_3176" fill="white">
<path d="M1008 504H1080V576H1008V504Z"/>
</mask>
<path d="M1008 504H1080V576H1008V504Z" fill="#F0F9FF"/>
<path d="M1080 576V576.75H1080.75V576H1080ZM1079.25 504V576H1080.75V504H1079.25ZM1080 575.25H1008V576.75H1080V575.25Z" fill="#B2CCFF" mask="url(#path-251-inside-125_1160_3176)"/>
<path d="M1152 576V576.75H1152.75V576H1152ZM1151.25 504V576H1152.75V504H1151.25ZM1152 575.25H1080V576.75H1152V575.25Z" fill="#B2CCFF" mask="url(#path-253-inside-126_1160_3176)"/>
<path d="M1224 576V576.75H1224.75V576H1224ZM1223.25 504V576H1224.75V504H1223.25ZM1224 575.25H1152V576.75H1224V575.25Z" fill="#B2CCFF" mask="url(#path-255-inside-127_1160_3176)"/>
<path d="M1296 576V576.75H1296.75V576H1296ZM1295.25 504V576H1296.75V504H1295.25ZM1296 575.25H1224V576.75H1296V575.25Z" fill="#B2CCFF" mask="url(#path-257-inside-128_1160_3176)"/>
</g>
<rect x="0.375" y="0.375" width="1439.25" height="1079.25" stroke="#B2CCFF" stroke-width="0.75"/>
</g>
<defs>
<radialGradient id="paint0_radial_1160_3176" cx="0" cy="0" r="1" gradientUnits="userSpaceOnUse" gradientTransform="translate(540 -0.000128746) rotate(90) scale(1080 563.691)">
<stop/>
<stop offset="0.953125" stop-opacity="0"/>
</radialGradient>
<clipPath id="clip0_1160_3176">
<rect width="1440" height="1080" fill="white"/>
</clipPath>
</defs>
</svg>
