<svg width="257" height="256" viewBox="0 0 257 256" fill="none" xmlns="http://www.w3.org/2000/svg">
<path d="M113.186 119.656C113.68 119.502 114.212 119.528 114.687 119.731C114.921 119.829 115.225 119.731 114.989 119.365C114.768 119.078 114.442 118.89 114.082 118.842C113.722 118.794 113.358 118.89 113.069 119.109C112.662 119.373 112.6 119.8 113.186 119.656Z" fill="#002266"/>
<path d="M117.03 114.881C117.58 114.912 118.102 115.126 118.517 115.488C119.023 116.036 119.577 115.448 119.176 114.956C118.916 114.636 118.589 114.377 118.218 114.196C117.847 114.016 117.442 113.919 117.03 113.911C116.41 113.96 116.301 114.718 117.03 114.881Z" fill="#002266"/>
<path d="M113.334 115.297C112.876 113.874 109.652 117.179 110.678 117.678C111.367 118.002 111.257 116.81 113 115.957C113.066 115.936 113.126 115.902 113.178 115.857C113.231 115.813 113.274 115.758 113.305 115.697C113.336 115.635 113.354 115.568 113.359 115.5C113.364 115.431 113.356 115.363 113.334 115.297Z" fill="#002266"/>
<path d="M119.033 121.253C117.684 120.869 117.18 120.263 116.912 120.654C116.506 121.239 117.973 121.77 118.38 121.881C118.015 122.432 117.111 122.88 117.001 123.08C116.617 123.775 117.987 123.92 118.978 122.348C119.72 121.183 118.832 121.253 119.033 121.253Z" fill="#002266"/>
<path d="M119.175 118.07C118.912 117.992 118.63 118.013 118.383 118.13C118.135 118.246 117.938 118.449 117.831 118.701C117.634 119.151 117.874 119.341 118.124 119.104C118.444 118.837 118.852 118.7 119.268 118.72C119.333 118.735 119.4 118.725 119.457 118.691C119.514 118.657 119.555 118.603 119.573 118.54C119.616 118.344 119.373 118.129 119.175 118.07Z" fill="#002266"/>
<path d="M113.585 123.444C113.268 123.141 112.724 123.555 112.593 124.009C112.339 125.516 112.677 127.064 113.536 128.328C114.915 130.016 117.76 128.712 117.979 125.228C118.048 124.147 115.83 125.586 113.585 123.444ZM117.141 125.669C117.12 126.188 116.963 126.692 116.686 127.13C116.408 127.569 116.021 127.927 115.561 128.169C113.702 128.858 113.192 125.917 113.371 124.291C114.404 125.217 115.754 125.711 117.141 125.669Z" fill="#002266"/>
<path d="M137.805 123.193C136.666 122.98 133.686 123.705 133.069 124.473C131.94 125.897 132.159 131.769 132.442 133.654C132.539 134.281 133.503 134.281 133.456 133.654C133.346 131.973 133.328 127.095 133.869 125.573C134.214 124.616 137.127 124.534 138.002 124.196C138.491 124.019 138.438 123.309 137.805 123.193Z" fill="#002266"/>
<path d="M141.33 124.773C141.373 125.412 141.255 126.052 140.988 126.634C140.721 127.216 140.313 127.723 139.801 128.107C139.395 128.472 139.911 129.131 140.379 128.864C141.056 128.423 141.605 127.812 141.969 127.091C142.333 126.37 142.501 125.565 142.454 124.759C142.439 124.619 142.372 124.491 142.267 124.398C142.162 124.304 142.026 124.253 141.886 124.255C141.745 124.256 141.61 124.31 141.507 124.406C141.405 124.502 141.341 124.633 141.33 124.773Z" fill="#002266"/>
<path d="M139.499 124.044C139.127 125.739 137.769 126.943 138.251 127.35C139.003 127.99 140.533 125.567 140.716 124.112C140.855 123.008 139.835 122.464 139.499 124.044Z" fill="#002266"/>
<path d="M144.739 128.458C143.83 130.526 142.179 130.463 142.673 131.214C143.248 132.046 145.383 129.934 145.754 128.671C145.997 127.835 145.21 127.402 144.739 128.458Z" fill="#002266"/>
<path d="M143.962 126.254C143.817 126.089 143.267 126.021 143.129 126.847C142.745 129.03 141.068 129.354 141.55 130.002C142.309 131.029 144.927 127.104 143.962 126.254Z" fill="#002266"/>
<path fill-rule="evenodd" clip-rule="evenodd" d="M111.807 175.912C111.706 171.448 111.897 168.376 108.452 165.288C109.971 165.735 111.556 165.919 113.137 165.832C113.53 165.722 113.53 165.074 113.137 165.054C109.823 164.895 105.559 163.043 105.223 163.029C105.106 163.025 104.991 163.06 104.897 163.129C104.802 163.198 104.734 163.297 104.702 163.409C104.67 163.522 104.677 163.642 104.721 163.75C104.765 163.858 104.845 163.949 104.946 164.007C110.519 167.847 110.457 169.338 110.684 176.233C110.74 178.12 110.725 180.008 110.725 181.896C110.727 182.023 110.777 182.145 110.865 182.237C110.953 182.328 111.073 182.383 111.2 182.39C111.327 182.397 111.451 182.356 111.549 182.274C111.647 182.193 111.71 182.077 111.725 181.951C111.848 179.943 111.853 177.92 111.807 175.912ZM103.789 173.352C103.1 174.956 101.31 175.272 99.7533 175.245C99.6329 175.234 99.5209 175.179 99.4393 175.09C99.3577 175 99.3125 174.884 99.3125 174.763C99.3125 174.642 99.3577 174.526 99.4393 174.436C99.5209 174.347 99.6329 174.292 99.7533 174.281C101.744 174.218 102.253 173.791 102.687 172.903C101.663 173.2 100.587 173.277 99.531 173.13C98.4747 172.983 97.4613 172.614 96.5571 172.049C96.4393 171.978 96.3546 171.863 96.3216 171.729C96.2886 171.595 96.31 171.454 96.3811 171.336C96.4522 171.219 96.5672 171.134 96.7008 171.101C96.8344 171.068 96.9757 171.089 97.0935 171.16C97.9494 171.644 98.8997 171.938 99.8793 172.021C100.859 172.104 101.845 171.974 102.77 171.642C102.816 171.505 104.756 171.121 103.789 173.351V173.352ZM109.197 171.195C109.334 172.05 109.256 172.926 108.97 173.744C108.683 174.562 108.198 175.295 107.557 175.879C107.473 175.969 107.356 176.023 107.232 176.028C107.14 176.03 107.049 176.004 106.972 175.953C106.895 175.903 106.835 175.83 106.8 175.744C106.765 175.659 106.757 175.565 106.776 175.474C106.796 175.384 106.842 175.302 106.91 175.239C108.976 172.986 107.723 171.173 108.087 170.568C108.26 170.277 109.005 169.984 109.197 171.194V171.195ZM106.29 171.759C106.564 172.252 106.661 172.823 106.565 173.379C106.309 175.74 103.597 176.891 103.321 175.939C103.121 175.25 103.948 175.368 104.533 174.915C105.367 174.261 105.301 173.536 105.333 172.545C105.36 171.392 106.103 171.566 106.29 171.758V171.759Z" fill="#002266"/>
<path d="M121.113 101.767C126.914 101.864 132.713 101.864 138.521 101.864C139.299 101.864 139.175 100.665 138.403 100.665C138.403 100.665 126.782 100.616 121.01 100.686C120.301 100.693 120.424 101.767 121.113 101.767Z" fill="#002266"/>
<path d="M169.904 101.974C169.904 101.726 169.794 101.07 169.136 101.065C167.856 101.065 166.576 101.01 165.296 100.962C165.16 100.958 165.028 101.005 164.927 101.095C164.825 101.184 164.76 101.308 164.746 101.443C164.732 101.578 164.769 101.713 164.851 101.821C164.932 101.93 165.051 102.003 165.184 102.028C166.39 102.097 167.596 102.174 168.793 102.263C168.58 129.347 168.712 183.523 168.712 183.523C139.388 183.42 108.48 183.372 79.4473 183.241C79.4473 173.838 79.5625 101.961 79.3577 101.353C83.2285 101.422 98.3478 101.518 101.745 101.622C102.336 101.622 102.103 100.638 101.648 100.598C99.1056 100.365 80.8246 100.123 79.0467 100.261C78.7369 100.261 78.2467 100.619 78.2467 101.507C78.2467 128.62 78.1187 155.98 78.1033 183.12C78.1033 183.602 78.1929 184.435 78.8713 184.442C108.251 184.752 139.605 184.711 168.969 184.814C169.431 184.814 170.011 184.924 170.023 184.264C170.592 157.312 170.207 129.114 169.904 101.974Z" fill="#002266"/>
<path d="M76.1961 88.2587C75.9663 89.3978 76.012 90.5753 76.3293 91.6932C76.6465 92.8111 77.2262 93.837 78.0201 94.6856C79.5074 96.4418 84.2204 97.3442 87.3961 95.0568C88.6188 94.2086 89.5389 92.9923 90.0223 91.585C90.5058 90.1776 90.5274 88.6527 90.0841 87.2322C88.0412 80.749 78.0623 81.8242 76.1961 88.2587ZM87.1542 93.3787C86.1893 94.245 84.9905 94.8077 83.7077 94.9964C82.4248 95.1851 81.1148 94.9915 79.9414 94.4399C79.0306 93.9804 78.2873 93.2463 77.8166 92.3413C77.346 91.4362 77.1717 90.4061 77.3186 89.3967C77.9586 84.1487 86.0866 82.116 88.4431 86.9173C88.9654 87.9877 89.1222 89.1999 88.8894 90.368C88.6566 91.5361 88.047 92.5955 87.1542 93.3839V93.3787Z" fill="#002266"/>
<path d="M125.047 89.8496C125.217 89.8381 125.375 89.7596 125.487 89.6314C125.599 89.5032 125.655 89.3358 125.644 89.1661C125.632 88.9963 125.554 88.8381 125.426 88.7263C125.298 88.6144 125.13 88.5581 124.96 88.5696C115.663 88.7258 104.352 88.7309 95.1172 88.8922C94.9584 88.8922 94.806 88.9553 94.6936 89.0676C94.5813 89.18 94.5182 89.3323 94.5182 89.4912C94.5182 89.6501 94.5813 89.8024 94.6936 89.9148C94.806 90.0271 94.9584 90.0902 95.1172 90.0902C104.382 90.2285 115.94 89.9597 125.047 89.8496Z" fill="#002266"/>
<path d="M173.508 72.8756C139.724 72.2435 105.931 72.1983 72.1451 72.7399C71.4565 72.7502 71.4552 73.9035 72.1451 73.9035C105.96 74.0315 139.554 73.5732 173.402 74.2132C174.239 74.2132 174.486 72.8935 173.508 72.8756Z" fill="#002266"/>
<path d="M133.106 193.655C127.671 193.366 104.05 193.07 96.6057 193.223C96.4691 193.243 96.3439 193.31 96.2522 193.414C96.1604 193.517 96.1079 193.649 96.104 193.787C96.0992 193.925 96.1425 194.06 96.2263 194.169C96.3101 194.278 96.4293 194.355 96.5635 194.386C102.363 194.944 130.275 195.447 133.072 194.73C133.547 194.608 133.595 193.682 133.106 193.655Z" fill="#002266"/>
<path fill-rule="evenodd" clip-rule="evenodd" d="M85.5633 54.176C112.104 53.769 133.54 53.7139 157.016 53.8304C175.979 53.9277 178.203 61.2147 178.368 73.9443C178.768 114.056 177.818 161.157 177.955 202.893C177.955 203.624 179.258 203.63 179.264 202.893C179.629 160.082 179.56 116.666 179.684 73.7869C179.705 55.6838 172.562 52.832 156.209 52.695C133.699 52.5082 111.243 52.4186 87.0379 52.951C72.2616 53.2672 68.4395 59.543 68.3294 72.6784C68.2398 86.5997 68.7288 191.846 68.7838 202.757C68.7838 203.617 70.1611 203.715 70.1201 202.847C69.9064 160.008 69.4161 116.508 69.5134 73.5603C69.5262 62.4141 72.1041 54.3821 85.5633 54.176Z" fill="#002266"/>
<path fill-rule="evenodd" clip-rule="evenodd" d="M139.871 110.445C139.828 110.563 139.831 110.693 139.88 110.809C139.929 110.924 140.019 111.017 140.133 111.069C140.247 111.122 140.377 111.131 140.496 111.093C140.616 111.055 140.717 110.974 140.78 110.866C142.99 106.733 146.284 100.582 148.908 96.649C148.219 104.073 156.485 117.045 161.754 121.542C155.948 121.943 151.332 121.286 145.608 120.957C145.471 120.951 145.336 120.999 145.234 121.09C145.132 121.182 145.07 121.311 145.061 121.448C145.052 121.585 145.097 121.72 145.186 121.824C145.276 121.928 145.402 121.993 145.539 122.005C151.597 122.824 157.723 123.02 163.821 122.589C165.73 122.418 166.135 121.66 165.97 119.645C165.773 117.438 165.111 115.297 164.027 113.363C163.67 112.723 162.732 113.363 163.084 114.011C163.925 115.504 164.485 117.138 164.736 118.833C164.999 120.637 164.958 122.417 162.67 120.637C157.463 116.553 149.087 103.349 150.059 96.3009C150.203 95.2474 150.416 95.1169 151.621 96.0602C153.517 97.7545 155.107 99.7628 156.32 101.997C156.665 102.528 157.421 101.997 157.125 101.446C156.32 100.014 150.926 92.3585 149.1 94.3591C145.637 99.49 142.553 104.866 139.871 110.445ZM145.056 130.835C144.427 131.505 143.798 132.274 143.392 132.39C143.025 132.497 142.473 132.115 140.877 130.835C139.143 129.458 137.662 127.702 136.834 127.061C136.36 126.677 135.588 127.317 135.911 127.852C137.286 129.578 138.881 131.116 140.657 132.426C142.124 133.571 143.199 134.61 144.701 132.977C145.141 132.557 145.54 132.096 145.892 131.599C145.97 131.486 146.003 131.348 145.987 131.211C145.971 131.075 145.907 130.948 145.805 130.856C145.704 130.763 145.572 130.71 145.434 130.706C145.297 130.702 145.163 130.748 145.056 130.835Z" fill="#002266"/>
<path fill-rule="evenodd" clip-rule="evenodd" d="M29.2726 145.142C34.1763 142.483 40.1142 139.976 44.5712 137.152C46.6652 135.829 45.951 135.973 46.1353 128.851C46.1353 127.963 46.0457 126.144 44.5366 126.537C37.311 128.444 30.0304 130.153 22.728 131.758C22.1358 130.636 21.4588 129.561 20.703 128.542C19.7392 127.888 14.9993 128.452 13.663 128.59C12.7196 128.679 12.9744 130.037 13.8486 130.015C15.8326 129.974 17.8166 129.912 19.7929 129.857C20.5724 130.339 27.3705 145.011 28.7529 148.173C25.3097 150.666 28.9526 154.235 31.6675 152.561C32.1134 152.281 32.4697 151.878 32.6942 151.402C32.9188 150.926 33.0022 150.395 32.9347 149.873C35.0774 149.412 43.4947 146.719 45.5606 146.051C47.1312 148.483 51.7596 146.739 49.6937 142.798C49.4029 142.285 48.9378 141.894 48.3828 141.694C47.8279 141.495 47.2199 141.501 46.6691 141.712C46.1184 141.922 45.661 142.322 45.3794 142.84C45.0977 143.357 45.0104 143.959 45.1331 144.535C41.0832 145.795 36.2755 147 32.383 148.503C32.1352 148.201 31.8193 147.963 31.4612 147.807C31.1031 147.651 30.7132 147.583 30.3235 147.607C29.6361 145.726 29.2726 145.289 29.2726 145.142ZM56.5251 121.728C58.8471 125.271 60.312 129.306 60.8037 133.513C61.2955 137.72 60.8005 141.984 59.358 145.966C57.9155 149.949 55.5652 153.541 52.4933 156.457C49.4215 159.374 45.7125 161.535 41.6604 162.769C37.4872 163.979 33.0854 164.176 28.8206 163.344C24.5559 162.512 20.5513 160.674 17.1395 157.983C13.7276 155.292 11.0072 151.825 9.20459 147.872C7.40196 143.918 6.56913 139.591 6.77532 135.25C8.22812 108.937 42.4016 99.9682 56.5251 121.695V121.728ZM41.1126 161.385C35.1666 163.085 28.8082 162.596 23.192 160.007C17.5758 157.418 13.0743 152.901 10.5052 147.276C8.80186 143.548 8.0095 139.469 8.19356 135.374C9.2406 112.896 37.4531 102.2 52.8848 119.296C55.8069 122.532 57.863 126.454 58.8616 130.698C59.8602 134.942 59.7689 139.37 58.5961 143.569C57.4234 147.768 55.2073 151.602 52.1542 154.715C49.1011 157.827 45.3102 160.116 41.1344 161.37L41.1126 161.385ZM44.6608 135.209C39.7008 138.309 31.9721 142.015 28.6454 143.785L23.4652 133.143C30.5334 131.675 37.5516 129.982 44.5302 128.151C44.5712 130.505 44.6608 135.209 44.6608 135.209Z" fill="#155EEF"/>
<path d="M60.0553 184.448C58.9699 185.954 51.88 197.57 51.7968 198.617C51.8013 198.722 51.8332 198.824 51.8893 198.913C51.9454 199.002 52.0237 199.074 52.1166 199.124C52.2094 199.173 52.3135 199.197 52.4186 199.194C52.5237 199.191 52.6261 199.16 52.7158 199.106C52.836 199.033 52.9274 198.922 52.9744 198.789C53.8281 195.607 58.5743 190.041 60.9935 184.86C61.247 184.309 60.3856 183.991 60.0553 184.448Z" fill="#002266"/>
<path d="M33.3431 177.241C34.8036 176.643 48.2551 170.463 49.8052 169.471C50.3018 169.163 49.9268 168.396 49.2151 168.607C43.5982 170.813 38.1084 173.33 32.7709 176.146C32.1514 176.491 32.6954 177.524 33.3431 177.241Z" fill="#002266"/>
<path d="M34.7127 96.9167C39.0199 99.4319 43.3309 101.946 47.6983 104.357C48.241 104.649 48.7223 103.865 48.1437 103.342C44.1202 100.464 39.8411 97.9603 35.3604 95.8632C34.7421 95.6226 34.0804 96.5519 34.7127 96.9167Z" fill="#002266"/>
<path d="M57.9755 102.097C58.4235 102.628 59.1595 101.932 58.7614 101.375C53.0232 93.3467 46.6859 86.8264 40.9617 77.9611C40.4856 77.2648 39.3489 77.8433 39.7969 78.5665C43.2005 84.0705 53.3329 96.5377 57.9755 102.097Z" fill="#002266"/>
<path d="M206.783 98.4602C209.696 97.5091 215.381 93.3146 217.901 91.3037C217.984 91.2212 218.041 91.117 218.067 91.0033C218.093 90.8895 218.086 90.7708 218.047 90.6607C218.009 90.5507 217.94 90.4538 217.848 90.3811C217.757 90.3085 217.647 90.2632 217.531 90.2503C217.375 90.2343 217.219 90.2783 217.095 90.3731C213.511 92.7987 209.883 95.1578 206.321 97.6051C205.928 97.8816 206.321 98.6125 206.783 98.4602Z" fill="#002266"/>
<path d="M55.3643 175.232C46.4504 182.436 38.9432 189.63 29.2306 196.642C28.5765 197.09 29.1614 198.24 29.8514 197.778C36.181 193.639 50.5874 181.5 56.1016 175.991C56.1846 175.89 56.2274 175.762 56.2219 175.631C56.2164 175.501 56.163 175.376 56.0719 175.283C55.9807 175.189 55.8582 175.132 55.7277 175.122C55.5972 175.113 55.4679 175.152 55.3643 175.232Z" fill="#002266"/>
<path d="M212.813 198.073C209.626 192.195 200.804 184.277 195.752 177.318C195.346 176.733 194.395 177.421 194.76 178.006C199.258 185.122 206.67 190.923 211.981 198.595C212.356 199.126 212.977 198.368 212.813 198.073Z" fill="#002266"/>
<path d="M220.566 181.657C215.025 179.481 209.415 177.468 203.834 175.374C203.111 175.099 202.767 176.201 203.45 176.505C206 177.613 217.402 182.297 220.237 182.628C220.76 182.683 221.055 181.85 220.566 181.657Z" fill="#002266"/>
<path d="M195.045 97.5644C197.221 95.3615 212.484 75.7059 215.634 71.8236C216.127 71.2169 215.25 70.3977 214.76 70.9967C212 74.3363 196.361 93.3699 194.171 96.9385C193.847 97.4684 194.624 97.9843 195.045 97.5644Z" fill="#002266"/>
<path d="M188.315 179.576C188.013 184.281 188.102 189.002 188.584 193.691C188.65 194.264 189.549 194.188 189.584 193.601C189.787 189.624 189.584 183.456 189.584 179.841C189.595 179.722 189.573 179.602 189.521 179.495C189.468 179.387 189.387 179.296 189.287 179.231C189.186 179.166 189.07 179.13 188.95 179.127C188.831 179.124 188.712 179.154 188.609 179.213C188.469 179.294 188.365 179.423 188.315 179.576Z" fill="#002266"/>
<path d="M57.9676 80.447C57.686 79.8211 56.7081 80.3036 56.8873 80.9296C57.3993 82.6998 60.255 90.5731 61.4057 92.2256C61.472 92.3282 61.5728 92.4038 61.6899 92.4386C61.8071 92.4734 61.9328 92.4652 62.0444 92.4154C62.156 92.3656 62.2461 92.2776 62.2984 92.1672C62.3508 92.0568 62.3619 91.9313 62.3299 91.8134C62.0803 90.4771 58.4988 81.6182 57.9676 80.447Z" fill="#002266"/>
<path d="M191.112 74.4053C190.2 76.2574 187.869 88.7131 187.8 90.9313C187.8 91.5445 188.619 91.5585 188.798 91.0478C189.996 87.7198 191.312 77.0792 192.242 75.0197C192.579 74.276 191.489 73.6437 191.112 74.4053Z" fill="#002266"/>
<path fill-rule="evenodd" clip-rule="evenodd" d="M215.732 125.985C213.149 122.583 208.052 124.044 207.893 127.611C207.883 127.748 207.914 127.885 207.982 128.004C208.051 128.123 208.154 128.218 208.278 128.278C208.381 128.329 208.494 128.353 208.608 128.349C208.722 128.345 208.834 128.312 208.932 128.254C209.031 128.197 209.113 128.115 209.172 128.017C209.231 127.919 209.265 127.808 209.27 127.694C209.511 125.49 212.617 124.801 214.271 126.654C214.693 127.131 215.013 127.689 215.211 128.295C215.409 128.901 215.482 129.54 215.423 130.175C215.052 133.266 209.762 132.241 208.591 130.917C207.902 130.119 207.075 131.607 208.207 132.591C210.272 134.445 215.542 134.465 216.864 131.104C217.116 130.225 217.146 129.297 216.951 128.403C216.757 127.51 216.343 126.679 215.748 125.984L215.732 125.985ZM220.852 156.928C218.468 158.464 212.862 162.528 210.375 162.944C204.93 151.296 208.639 153.463 203.453 152.425C200.556 151.866 197.693 151.146 194.877 150.27C195.773 146.935 196.639 143.588 197.548 140.254C197.625 139.958 197.879 139.628 197.583 139.372C195.21 137.511 192.945 135.518 190.799 133.4C191.335 132.376 198.375 127.09 198.375 126.664C198.375 125.603 196.998 120.044 196.55 116.538C199.167 116.696 201.687 116.922 204.079 117.295C204.299 117.352 204.532 117.328 204.737 117.229C204.941 117.129 205.103 116.96 205.195 116.751C206.201 114.285 207.371 111.887 208.446 109.455C210.326 110.889 212.207 112.35 214.129 113.713C214.321 113.862 214.557 113.943 214.8 113.943C215.044 113.943 215.28 113.862 215.472 113.713C217.828 111.557 220.122 109.339 222.435 107.141C223.814 109.587 226.645 113.886 227.683 116.2C227.966 116.827 228.372 117.033 228.751 116.958C230.816 116.53 237.52 114.89 239.145 114.664C239.255 116.558 239.572 124.053 239.834 125.071C240.096 126.09 248.218 129.253 248.597 129.818C248.976 130.382 243.506 137.754 242.837 138.565C242.61 138.842 242.735 139.062 242.775 139.323C243.378 142.233 244.208 145.091 245.256 147.872C242.623 148.369 240.03 149.059 237.499 149.938C237.499 149.938 233.539 160.636 233.105 161.751C229.288 160.175 225.452 158.659 221.636 157.082C221.388 156.978 221.167 156.799 220.877 156.992L220.852 156.928ZM205.602 154.139C202.652 153.629 199.73 152.972 196.847 152.168C193.443 151.251 193.196 151.528 193.842 149.171C194.531 146.582 195.579 142.2 196.378 140.024C193.902 138.18 191.597 136.116 189.49 133.859C189.367 133.747 189.293 133.592 189.283 133.426C189.272 133.26 189.327 133.096 189.435 132.97C191.764 130.539 194.338 128.356 197.115 126.454C196.427 123.657 195.636 118.684 195.139 115.763C195.071 115.343 195.552 115.075 195.931 115.123C197.17 115.399 204.259 116.074 204.308 116.101C205.175 114.035 206.037 112.037 206.911 110.006C207.785 107.975 207.724 107.519 209.447 108.786L214.839 112.775C217.238 110.419 219.661 108.089 222.107 105.783C222.159 105.726 222.221 105.679 222.291 105.646C222.36 105.613 222.436 105.594 222.512 105.59C222.589 105.587 222.666 105.598 222.739 105.625C222.811 105.651 222.878 105.691 222.934 105.743C223.167 105.956 227.401 113.262 228.754 115.785C229.897 115.413 239.087 112.988 239.865 113.457C240.809 114.035 240.313 116.145 240.939 124.533C242.847 125.263 246.754 127.439 248.895 128.556C249.516 128.879 250.121 129.348 249.874 130.14C249.321 131.903 244.962 137.948 243.858 139.228C244.882 142.093 245.539 145.103 246.613 148.051C246.646 148.141 246.659 148.238 246.649 148.333C246.64 148.429 246.61 148.521 246.56 148.603C246.512 148.686 246.445 148.756 246.366 148.81C246.286 148.864 246.196 148.899 246.101 148.913C243.557 149.533 241.031 150.223 238.525 150.98C237.036 154.871 235.486 158.75 233.964 162.634C233.862 162.89 233.552 163.178 233.234 163.048C229.28 161.422 225.298 159.848 221.393 158.122C218.563 159.948 213.127 164.032 209.965 164.321C208.813 164.433 205.895 155.436 205.577 154.154L205.602 154.139ZM229.807 139.446C227.125 135.148 219.812 138.46 220.859 143.84C221.6 147.168 225.687 148.412 228.547 145.869C229.475 145.115 230.11 144.059 230.34 142.886C230.571 141.713 230.384 140.495 229.81 139.446H229.807ZM228.843 142.2C229.415 137.187 221.094 138.99 222.306 143.48C222.443 143.868 222.655 144.224 222.93 144.529C223.206 144.834 223.538 145.082 223.91 145.258C224.281 145.434 224.683 145.535 225.093 145.555C225.504 145.575 225.914 145.514 226.301 145.375C226.977 145.133 227.574 144.709 228.023 144.148C228.473 143.588 228.758 142.913 228.847 142.2H228.843ZM226.859 125.669C227.782 124.635 228.925 126.028 227.61 127.287C222.188 132.467 217.407 139.687 212.131 145.301C212.014 145.423 211.857 145.499 211.688 145.513C211.519 145.526 211.351 145.477 211.216 145.375C211.082 145.272 210.989 145.124 210.957 144.957C210.925 144.791 210.956 144.619 211.043 144.474C215.319 138.546 226.863 125.797 226.863 125.669H226.859Z" fill="#155EEF"/>
<path fill-rule="evenodd" clip-rule="evenodd" d="M84.9847 192.202C82.9598 186.947 76.2154 188.071 79.2119 194.194C80.555 196.508 82.2489 198.599 84.2334 200.393C86.4568 198.786 88.5318 196.983 90.4337 195.006C93.5953 191.452 89.8474 186.486 84.9847 192.202Z" fill="#155EEF"/>
<path fill-rule="evenodd" clip-rule="evenodd" d="M138.989 111.624C139.079 115.405 141.627 120.303 143.725 121.907C142.894 122.067 142.079 122.298 141.287 122.597C139.716 121.667 135.369 121.957 133.261 122.865C131.153 123.772 131.581 126.584 131.457 127.301C130.417 127.612 129.302 127.556 128.298 127.143C127.294 126.73 126.463 125.985 125.943 125.033C125.423 124.08 125.246 122.978 125.442 121.91C125.637 120.842 126.194 119.874 127.017 119.168C130.852 116.414 134.85 113.895 138.989 111.624Z" fill="#155EEF"/>
<path fill-rule="evenodd" clip-rule="evenodd" d="M153.178 103.936C153.178 105.734 157.221 113.325 159.57 114.958C164.661 110.562 164.936 106.638 163.98 104.625C163.024 102.611 157.25 102.449 153.178 103.936Z" fill="#155EEF"/>
<path fill-rule="evenodd" clip-rule="evenodd" d="M108.68 136.064C102.137 137.503 92.3065 142.263 83.6831 157.776C82.3058 154.517 83.0905 149.951 86.101 149.096C89.1116 148.241 90.558 144.812 90.0818 143.158C89.8152 142.352 89.7169 141.5 89.793 140.655C89.8691 139.81 90.1179 138.989 90.5241 138.244C90.9303 137.499 91.4852 136.845 92.1545 136.323C92.8237 135.801 93.593 135.422 94.4146 135.209C98.1343 134.17 97.246 129.982 96.4818 128.638C94.4146 125.118 95.4002 120.51 98.5478 119.456C101.695 118.403 102.068 116.896 101.137 113.946C98.8332 106.664 103.569 102.235 110.782 101.257C117.995 100.279 122.395 105.934 121.872 109.475C121.348 113.015 122.595 114.696 124.688 115.491C128.25 116.868 121.21 122.647 125.309 126.938C126.066 127.658 126.971 128.206 127.96 128.544C128.949 128.882 129.999 129.001 131.039 128.895C131.167 130.851 131.343 135.893 131.907 136.94C128.601 135.852 122.947 135.77 120.707 135.562C121.334 136.32 122.002 137.043 122.587 137.836C122.726 138.015 122.512 139.213 120.838 137.429C120.204 136.74 118.55 134.838 118.523 133.95C116.948 133.982 115.404 133.499 114.129 132.572C113.617 132.277 114.087 131.505 114.604 131.794C118.613 134.047 119.963 133.173 120.721 129.417C121.644 124.892 120.977 115.587 118.888 111.392C116.554 110.999 107.937 113.417 107.02 113.886C107.847 116.524 108.397 119.981 107.578 120.897C107.378 121.125 106.572 119.81 105.443 120.03C104.314 120.25 104.209 124.556 106.723 125.15C107.591 125.357 108.131 125.226 108.308 125.618C109.433 129.28 109.899 133.112 109.685 136.936C109.631 137.171 108.79 138.13 108.68 136.064Z" fill="#002266"/>
<path d="M109.261 174.829C108.971 175.498 108.527 176.089 107.965 176.553C107.402 177.017 106.738 177.341 106.026 177.5C105.315 177.658 104.576 177.645 103.87 177.462C103.164 177.28 102.511 176.933 101.965 176.45C102.464 178.133 102.873 179.843 103.191 181.57C105.163 181.625 107.793 181.736 109.219 181.736C109.023 179.72 109.261 177.212 109.261 174.829Z" fill="#155EEF"/>
<path d="M144.265 135.209C140.442 135.867 136.562 136.128 132.685 135.988C135.27 143.47 139.157 150.436 144.168 156.563C144.478 156.934 144.08 157.307 143.721 156.969C140.104 153.526 134.546 143.785 132.611 138.957C129.646 138.176 126.631 137.603 123.587 137.24C123.972 140.556 123.646 143.916 122.63 147.096C118.028 143.097 112.627 140.125 106.786 138.377C87.7137 145.545 73.3982 175.241 85.6657 179.5C89.8539 180.954 94.6257 178.122 97.0795 175.732C91.7752 171.757 94.5195 164.641 99.834 161.955C95.0686 162.03 91.2248 163.875 86.8702 165.331C86.3403 165.509 86.0318 164.893 86.5464 164.641C90.4363 162.746 95.4539 160.859 99.8584 160.801C100.459 158.503 101.412 156.311 102.683 154.304C103.021 153.85 103.503 154.216 103.302 154.669C102.385 156.654 101.641 158.715 101.078 160.828C102.783 160.946 104.479 161.175 106.155 161.517C108.42 162.124 110.459 163.997 113.195 163.949C115.93 163.9 117.768 168.173 110.976 166.952C112.896 169.896 113.105 171.726 113.044 181.727C124.753 181.789 136.904 181.17 140.355 181.087C141.493 174.596 141.649 167.972 140.817 161.435C140.049 156.758 138.103 153.34 132.867 147.85C132.502 147.466 133.123 146.838 133.507 147.162C140.438 153.802 141.6 157.146 142.422 166.89C144.366 168.206 146.615 168.999 148.954 169.194C151.293 169.389 153.643 168.98 155.778 168.005C163.533 164.704 149.92 140.038 144.265 135.209Z" fill="#155EEF"/>
</svg>
