<svg xmlns="http://www.w3.org/2000/svg" xmlns:svgjs="http://svgjs.com/svgjs" xmlns:xlink="http://www.w3.org/1999/xlink" width="288" height="288"><circle cx="144" cy="144" r="144" fill="#fff" transform="matrix(.89 0 0 .89 15.84 15.84)"/><svg xmlns="http://www.w3.org/2000/svg" width="288" height="288" enable-background="new 0 0 32 32" viewBox="0 0 32 32"><rect width="473.333" height="236" x="-415.333" y="-18.651" fill="#299065" class="color000 svgShape" display="none"/><g fill="#299065" class="color000 svgShape" display="none"><circle cx="16" cy="16" r="16" class="color000 svgShape"/><polyline stroke="#FFF" stroke-miterlimit="10" stroke-width="2" points="25.142 22.142 9.858 22.142 9.858 6.858"/><polyline stroke="#FFF" stroke-miterlimit="10" stroke-width="2" points="25.704 16.307 15.818 16.307 15.818 6.421"/></g><g fill="#299065" class="color000 svgShape" display="none"><path d="M16,1c8.271,0,15,6.729,15,15s-6.729,15-15,15S1,24.271,1,16S7.729,1,16,1 M16,0C7.163,0,0,7.163,0,16    s7.163,16,16,16s16-7.163,16-16S24.837,0,16,0L16,0z" class="color000 svgShape"/><polyline stroke="#1A1718" stroke-miterlimit="10" points="25.142 22.142 9.858 22.142 9.858 6.858"/><polyline stroke="#1A1718" stroke-miterlimit="10" points="25.704 16.307 15.818 16.307 15.818 6.421"/></g><g fill="#299065" class="color000 svgShape" display="none"><rect width="28" height="28" x="2" y="2" class="color000 svgShape"/><path d="M16,31.5C7.453,31.5,0.5,24.547,0.5,16S7.453,0.5,16,0.5S31.5,7.453,31.5,16S24.547,31.5,16,31.5z" class="color000 svgShape"/><path d="M16,1c8.271,0,15,6.729,15,15s-6.729,15-15,15S1,24.271,1,16S7.729,1,16,1 M16,0C7.163,0,0,7.163,0,16s7.163,16,16,16     s16-7.163,16-16S24.837,0,16,0L16,0z" class="color000 svgShape"/><polyline points="25.142 22.142 9.858 22.142 9.858 6.858" class="color000 svgShape"/><polygon points="25.142 22.642 9.358 22.642 9.358 6.858 10.358 6.858 10.358 21.642 25.142 21.642" class="color000 svgShape"/><g class="color000 svgShape"><polyline points="25.704 16.307 15.818 16.307 15.818 6.421" class="color000 svgShape"/><polygon points="25.704 16.807 15.317 16.807 15.317 6.421 16.317 6.421 16.317 15.807 25.704 15.807" class="color000 svgShape"/></g></g><path fill="#299065" d="M16,32c8.837,0,16-7.163,16-16S24.837,0,16,0S0,7.163,0,16S7.163,32,16,32z M14.817,6.421h2v8.886h8.887v2H14.817V6.421z     M8.858,6.858h2v14.283h14.283v2H8.858V6.858z" class="color000 svgShape"/></svg></svg>