<svg width="374" height="217" viewBox="0 0 374 217" fill="none" xmlns="http://www.w3.org/2000/svg">
<g clip-path="url(#clip0_1187_16022)">
<rect width="373" height="217" transform="translate(0.333496)" fill="#F9FAFB"/>
<rect x="15.0002" y="16" width="8" height="8" rx="4" fill="#F2F4F7"/>
<rect x="39.0002" y="16" width="8" height="8" rx="4" fill="#F2F4F7"/>
<rect x="63.0002" y="16" width="8" height="8" rx="4" fill="#F2F4F7"/>
<rect x="87.0002" y="16" width="8" height="8" rx="4" fill="#F2F4F7"/>
<rect x="111" y="16" width="8" height="8" rx="4" fill="#F2F4F7"/>
<rect x="135" y="16" width="8" height="8" rx="4" fill="#F2F4F7"/>
<rect x="159" y="16" width="8" height="8" rx="4" fill="#F2F4F7"/>
<rect x="183" y="16" width="8" height="8" rx="4" fill="#F2F4F7"/>
<rect x="207" y="16" width="8" height="8" rx="4" fill="#F2F4F7"/>
<rect x="231" y="16" width="8" height="8" rx="4" fill="#F2F4F7"/>
<rect x="255" y="16" width="8" height="8" rx="4" fill="#F2F4F7"/>
<rect x="279" y="16" width="8" height="8" rx="4" fill="#F2F4F7"/>
<rect x="303" y="16" width="8" height="8" rx="4" fill="#F2F4F7"/>
<rect x="327" y="16" width="8" height="8" rx="4" fill="#F2F4F7"/>
<rect x="351" y="16" width="8" height="8" rx="4" fill="#F2F4F7"/>
<rect x="15.0002" y="40" width="8" height="8" rx="4" fill="#F2F4F7"/>
<rect x="39.0002" y="40" width="8" height="8" rx="4" fill="#F2F4F7"/>
<rect x="63.0002" y="40" width="8" height="8" rx="4" fill="#F2F4F7"/>
<rect x="87.0002" y="40" width="8" height="8" rx="4" fill="#F2F4F7"/>
<rect x="111" y="40" width="8" height="8" rx="4" fill="#F2F4F7"/>
<rect x="135" y="40" width="8" height="8" rx="4" fill="#F2F4F7"/>
<rect x="159" y="40" width="8" height="8" rx="4" fill="#F2F4F7"/>
<rect x="183" y="40" width="8" height="8" rx="4" fill="#F2F4F7"/>
<rect x="207" y="40" width="8" height="8" rx="4" fill="#F2F4F7"/>
<rect x="231" y="40" width="8" height="8" rx="4" fill="#F2F4F7"/>
<rect x="255" y="40" width="8" height="8" rx="4" fill="#F2F4F7"/>
<rect x="279" y="40" width="8" height="8" rx="4" fill="#F2F4F7"/>
<rect x="303" y="40" width="8" height="8" rx="4" fill="#F2F4F7"/>
<rect x="327" y="40" width="8" height="8" rx="4" fill="#F2F4F7"/>
<rect x="351" y="40" width="8" height="8" rx="4" fill="#F2F4F7"/>
<rect x="15.0002" y="64" width="8" height="8" rx="4" fill="#F2F4F7"/>
<rect x="39.0002" y="64" width="8" height="8" rx="4" fill="#F2F4F7"/>
<rect x="63.0002" y="64" width="8" height="8" rx="4" fill="#F2F4F7"/>
<rect x="87.0002" y="64" width="8" height="8" rx="4" fill="#F2F4F7"/>
<rect x="111" y="64" width="8" height="8" rx="4" fill="#F2F4F7"/>
<rect x="135" y="64" width="8" height="8" rx="4" fill="#F2F4F7"/>
<rect x="159" y="64" width="8" height="8" rx="4" fill="#F2F4F7"/>
<rect x="183" y="64" width="8" height="8" rx="4" fill="#F2F4F7"/>
<rect x="207" y="64" width="8" height="8" rx="4" fill="#F2F4F7"/>
<rect x="231" y="64" width="8" height="8" rx="4" fill="#F2F4F7"/>
<rect x="255" y="64" width="8" height="8" rx="4" fill="#F2F4F7"/>
<rect x="279" y="64" width="8" height="8" rx="4" fill="#F2F4F7"/>
<rect x="303" y="64" width="8" height="8" rx="4" fill="#F2F4F7"/>
<rect x="327" y="64" width="8" height="8" rx="4" fill="#F2F4F7"/>
<rect x="351" y="64" width="8" height="8" rx="4" fill="#F2F4F7"/>
<rect x="15.0002" y="88" width="8" height="8" rx="4" fill="#F2F4F7"/>
<rect x="39.0002" y="88" width="8" height="8" rx="4" fill="#F2F4F7"/>
<rect x="63.0002" y="88" width="8" height="8" rx="4" fill="#F2F4F7"/>
<rect x="87.0002" y="88" width="8" height="8" rx="4" fill="#F2F4F7"/>
<rect x="111" y="88" width="8" height="8" rx="4" fill="#F2F4F7"/>
<rect x="135" y="88" width="8" height="8" rx="4" fill="#F2F4F7"/>
<rect x="159" y="88" width="8" height="8" rx="4" fill="#F2F4F7"/>
<rect x="183" y="88" width="8" height="8" rx="4" fill="#F2F4F7"/>
<rect x="207" y="88" width="8" height="8" rx="4" fill="#F2F4F7"/>
<rect x="231" y="88" width="8" height="8" rx="4" fill="#F2F4F7"/>
<rect x="255" y="88" width="8" height="8" rx="4" fill="#F2F4F7"/>
<rect x="279" y="88" width="8" height="8" rx="4" fill="#F2F4F7"/>
<rect x="303" y="88" width="8" height="8" rx="4" fill="#F2F4F7"/>
<rect x="327" y="88" width="8" height="8" rx="4" fill="#F2F4F7"/>
<rect x="351" y="88" width="8" height="8" rx="4" fill="#F2F4F7"/>
<rect x="15.0002" y="112" width="8" height="8" rx="4" fill="#F2F4F7"/>
<rect x="39.0002" y="112" width="8" height="8" rx="4" fill="#F2F4F7"/>
<rect x="63.0002" y="112" width="8" height="8" rx="4" fill="#F2F4F7"/>
<rect x="87.0002" y="112" width="8" height="8" rx="4" fill="#F2F4F7"/>
<rect x="111" y="112" width="8" height="8" rx="4" fill="#F2F4F7"/>
<rect x="135" y="112" width="8" height="8" rx="4" fill="#F2F4F7"/>
<rect x="159" y="112" width="8" height="8" rx="4" fill="#F2F4F7"/>
<rect x="183" y="112" width="8" height="8" rx="4" fill="#F2F4F7"/>
<rect x="207" y="112" width="8" height="8" rx="4" fill="#F2F4F7"/>
<rect x="231" y="112" width="8" height="8" rx="4" fill="#F2F4F7"/>
<rect x="255" y="112" width="8" height="8" rx="4" fill="#F2F4F7"/>
<rect x="279" y="112" width="8" height="8" rx="4" fill="#F2F4F7"/>
<rect x="303" y="112" width="8" height="8" rx="4" fill="#F2F4F7"/>
<rect x="327" y="112" width="8" height="8" rx="4" fill="#F2F4F7"/>
<rect x="351" y="112" width="8" height="8" rx="4" fill="#F2F4F7"/>
<rect x="15.0002" y="136" width="8" height="8" rx="4" fill="#F2F4F7"/>
<rect x="39.0002" y="136" width="8" height="8" rx="4" fill="#F2F4F7"/>
<rect x="63.0002" y="136" width="8" height="8" rx="4" fill="#F2F4F7"/>
<rect x="87.0002" y="136" width="8" height="8" rx="4" fill="#F2F4F7"/>
<rect x="111" y="136" width="8" height="8" rx="4" fill="#F2F4F7"/>
<rect x="135" y="136" width="8" height="8" rx="4" fill="#F2F4F7"/>
<rect x="159" y="136" width="8" height="8" rx="4" fill="#F2F4F7"/>
<rect x="183" y="136" width="8" height="8" rx="4" fill="#F2F4F7"/>
<rect x="207" y="136" width="8" height="8" rx="4" fill="#F2F4F7"/>
<rect x="231" y="136" width="8" height="8" rx="4" fill="#F2F4F7"/>
<rect x="255" y="136" width="8" height="8" rx="4" fill="#F2F4F7"/>
<rect x="279" y="136" width="8" height="8" rx="4" fill="#F2F4F7"/>
<rect x="303" y="136" width="8" height="8" rx="4" fill="#F2F4F7"/>
<rect x="327" y="136" width="8" height="8" rx="4" fill="#F2F4F7"/>
<rect x="351" y="136" width="8" height="8" rx="4" fill="#F2F4F7"/>
<rect x="15.0002" y="160" width="8" height="8" rx="4" fill="#F2F4F7"/>
<rect x="39.0002" y="160" width="8" height="8" rx="4" fill="#F2F4F7"/>
<rect x="63.0002" y="160" width="8" height="8" rx="4" fill="#F2F4F7"/>
<rect x="87.0002" y="160" width="8" height="8" rx="4" fill="#F2F4F7"/>
<rect x="111" y="160" width="8" height="8" rx="4" fill="#F2F4F7"/>
<rect x="135" y="160" width="8" height="8" rx="4" fill="#F2F4F7"/>
<rect x="159" y="160" width="8" height="8" rx="4" fill="#F2F4F7"/>
<rect x="183" y="160" width="8" height="8" rx="4" fill="#F2F4F7"/>
<rect x="207" y="160" width="8" height="8" rx="4" fill="#F2F4F7"/>
<rect x="231" y="160" width="8" height="8" rx="4" fill="#F2F4F7"/>
<rect x="255" y="160" width="8" height="8" rx="4" fill="#F2F4F7"/>
<rect x="279" y="160" width="8" height="8" rx="4" fill="#F2F4F7"/>
<rect x="303" y="160" width="8" height="8" rx="4" fill="#F2F4F7"/>
<rect x="327" y="160" width="8" height="8" rx="4" fill="#F2F4F7"/>
<rect x="351" y="160" width="8" height="8" rx="4" fill="#F2F4F7"/>
<rect x="15.0002" y="184" width="8" height="8" rx="4" fill="#F2F4F7"/>
<rect x="39.0002" y="184" width="8" height="8" rx="4" fill="#F2F4F7"/>
<rect x="63.0002" y="184" width="8" height="8" rx="4" fill="#F2F4F7"/>
<rect x="87.0002" y="184" width="8" height="8" rx="4" fill="#F2F4F7"/>
<rect x="111" y="184" width="8" height="8" rx="4" fill="#F2F4F7"/>
<rect x="135" y="184" width="8" height="8" rx="4" fill="#F2F4F7"/>
<rect x="159" y="184" width="8" height="8" rx="4" fill="#F2F4F7"/>
<rect x="183" y="184" width="8" height="8" rx="4" fill="#F2F4F7"/>
<rect x="207" y="184" width="8" height="8" rx="4" fill="#F2F4F7"/>
<rect x="231" y="184" width="8" height="8" rx="4" fill="#F2F4F7"/>
<rect x="255" y="184" width="8" height="8" rx="4" fill="#F2F4F7"/>
<rect x="279" y="184" width="8" height="8" rx="4" fill="#F2F4F7"/>
<rect x="303" y="184" width="8" height="8" rx="4" fill="#F2F4F7"/>
<rect x="327" y="184" width="8" height="8" rx="4" fill="#F2F4F7"/>
<rect x="351" y="184" width="8" height="8" rx="4" fill="#F2F4F7"/>
<rect x="15.0002" y="208" width="8" height="8" rx="4" fill="#F2F4F7"/>
<rect x="39.0002" y="208" width="8" height="8" rx="4" fill="#F2F4F7"/>
<rect x="63.0002" y="208" width="8" height="8" rx="4" fill="#F2F4F7"/>
<rect x="87.0002" y="208" width="8" height="8" rx="4" fill="#F2F4F7"/>
<rect x="111" y="208" width="8" height="8" rx="4" fill="#F2F4F7"/>
<rect x="135" y="208" width="8" height="8" rx="4" fill="#F2F4F7"/>
<rect x="159" y="208" width="8" height="8" rx="4" fill="#F2F4F7"/>
<rect x="183" y="208" width="8" height="8" rx="4" fill="#F2F4F7"/>
<rect x="207" y="208" width="8" height="8" rx="4" fill="#F2F4F7"/>
<rect x="231" y="208" width="8" height="8" rx="4" fill="#F2F4F7"/>
<rect x="255" y="208" width="8" height="8" rx="4" fill="#F2F4F7"/>
<rect x="279" y="208" width="8" height="8" rx="4" fill="#F2F4F7"/>
<rect x="303" y="208" width="8" height="8" rx="4" fill="#F2F4F7"/>
<rect x="327" y="208" width="8" height="8" rx="4" fill="#F2F4F7"/>
<rect x="351" y="208" width="8" height="8" rx="4" fill="#F2F4F7"/>
<rect width="373" height="200" transform="translate(0.000244141 16)" fill="url(#paint0_linear_1187_16022)"/>
<g clip-path="url(#clip1_1187_16022)">
<rect x="67.0002" y="28" width="240" height="188" rx="16" fill="url(#paint1_linear_1187_16022)"/>
<mask id="path-138-inside-1_1187_16022" fill="white">
<path d="M67.0002 28H307V56H67.0002V28Z"/>
</mask>
<path d="M67.0002 28H307V56H67.0002V28Z" fill="white"/>
<path d="M307 55H67.0002V57H307V55Z" fill="#EAECF0" mask="url(#path-138-inside-1_1187_16022)"/>
<rect x="79.0002" y="39" width="6" height="6" rx="3" fill="#F04438"/>
<rect x="89.0002" y="39" width="6" height="6" rx="3" fill="#FEC84B"/>
<rect x="99.0002" y="39" width="6" height="6" rx="3" fill="#17B26A"/>
<rect x="115" y="36" width="180" height="12" rx="4" fill="#F2F4F7"/>
<g clip-path="url(#clip2_1187_16022)">
<rect x="244" y="71.0004" width="32" height="32" rx="16" fill="#D1E0FF"/>
<mask id="mask0_1187_16022" style="mask-type:luminance" maskUnits="userSpaceOnUse" x="244" y="92" width="31" height="16">
<path d="M244.673 96.012C244.673 96.012 245.862 102.179 245.983 102.3C246.104 102.421 259.426 107.843 259.426 107.843C259.426 107.843 268.011 106.452 268.011 106.311C268.011 106.17 274.178 97.0195 274.178 97.0195C274.178 97.0195 273.554 96.1531 272.002 95.1049C271.75 94.9353 271.346 94.7699 270.843 94.6109C270.734 94.5763 270.619 94.5417 270.501 94.5077C270.5 94.5074 270.499 94.5074 270.498 94.5071C270.105 94.3939 269.666 94.284 269.202 94.1782C267.944 95.1363 262.505 93.1797 261.748 93.4259C261.08 93.6429 260.466 94.283 260.126 95.0591C260.123 95.0655 260.12 95.0722 260.117 95.0789C260.074 95.178 260.036 95.279 260.003 95.3815C259.994 95.4097 259.985 95.4379 259.976 95.4662C259.976 95.4662 259.966 95.4344 259.946 95.379C259.804 94.995 259.182 93.466 258.2 93.3387C257.391 93.2339 255.905 93.1515 254.719 92.9348C254.058 93.1121 253.163 93.3256 252.224 93.541C252.072 93.5759 251.919 93.6108 251.766 93.6455C251.444 93.7189 251.12 93.7916 250.803 93.8625C249.08 94.2484 247.53 94.5843 247.333 94.6616C246.869 94.843 244.673 96.012 244.673 96.012Z" fill="white"/>
</mask>
<g mask="url(#mask0_1187_16022)">
<path d="M244.673 96.0114C244.673 96.0114 245.862 102.179 245.983 102.3C246.104 102.42 259.426 107.842 259.426 107.842C259.426 107.842 268.011 106.451 268.011 106.31C268.011 106.169 274.178 97.0189 274.178 97.0189C274.178 97.0189 273.554 96.1525 272.002 95.1043C271.75 94.9347 271.346 94.7693 270.843 94.6103C270.734 94.5757 270.619 94.5411 270.501 94.5071C270.5 94.5068 270.499 94.5068 270.498 94.5065C270.105 94.3933 269.666 94.2834 269.202 94.1776C267.944 95.1357 262.505 93.1791 261.748 93.4253C261.08 93.6423 260.466 94.2824 260.126 95.0585C260.123 95.0649 260.12 95.0716 260.117 95.0783C260.074 95.1774 260.036 95.2783 260.003 95.3809C259.994 95.4091 259.985 95.4373 259.976 95.4655C259.976 95.4655 259.966 95.4338 259.946 95.3784C259.804 94.9943 259.182 93.4653 258.2 93.3381C257.391 93.2333 255.905 93.1509 254.719 92.9342C254.058 93.1115 253.163 93.3249 252.224 93.5404C252.072 93.5753 251.919 93.6102 251.766 93.6449C251.444 93.7183 251.12 93.791 250.803 93.8619C249.08 94.2478 247.53 94.5837 247.333 94.661C246.869 94.8424 244.673 96.0114 244.673 96.0114Z" fill="#4C70F5" stroke="black" stroke-width="0.284929" stroke-linecap="round" stroke-linejoin="round"/>
<path d="M265.961 100.969L263.247 98.3055L262.354 101.617L265.961 100.969Z" fill="#F5D256" stroke="black" stroke-width="0.284929" stroke-linecap="round" stroke-linejoin="round"/>
<path d="M256.338 101.37L256.622 97.5774L253.517 99.0314L256.338 101.37Z" fill="#49A2A6" stroke="black" stroke-width="0.284929" stroke-linecap="round" stroke-linejoin="round"/>
<path d="M250.864 100.963L247.614 102.937L250.603 104.617L250.864 100.963Z" fill="#F5D256" stroke="black" stroke-width="0.284929" stroke-linecap="round" stroke-linejoin="round"/>
<path d="M272.126 94.3571L268.876 96.3313L271.865 98.0116L272.126 94.3571Z" fill="#49A2A6" stroke="black" stroke-width="0.284929" stroke-linecap="round" stroke-linejoin="round"/>
<path d="M250.656 98.6639L251.392 94.4407L246.248 96.8489L250.656 98.6639Z" fill="#BF9EF9" stroke="black" stroke-width="0.284929" stroke-linecap="round" stroke-linejoin="round"/>
<path d="M265.39 96.9051L266.126 92.6823L260.982 95.0905L265.39 96.9051Z" fill="#E938B5" stroke="black" stroke-width="0.284929" stroke-linecap="round" stroke-linejoin="round"/>
<path d="M269.067 100.462L271.133 104.218L273.641 99.1219L269.067 100.462Z" fill="#BF9EF9" stroke="black" stroke-width="0.284929" stroke-linecap="round" stroke-linejoin="round"/>
<path d="M254.5 95.9259L258.406 94.1574L253.52 91.261L254.5 95.9259Z" fill="#F5D256" stroke="black" stroke-width="0.284929" stroke-linecap="round" stroke-linejoin="round"/>
</g>
<path opacity="0.52" d="M260.003 95.3808C260.005 95.3911 260.008 95.401 260.01 95.4113L260.104 96.1835C260.114 95.5623 260.708 95.0808 261.318 94.9641C261.928 94.8474 262.553 95.0016 263.162 95.1257C264.264 95.3497 265.386 95.4764 266.51 95.503C268.005 95.5382 269.565 95.377 270.844 94.6102C270.734 94.5756 270.62 94.541 270.501 94.507C270.5 94.5067 270.499 94.5067 270.499 94.5064C270.105 94.3932 269.666 94.2833 269.202 94.1775C267.944 95.1356 262.506 93.179 261.749 93.4252C261.074 93.6441 260.456 94.2932 260.118 95.0782C260.075 95.1773 260.037 95.2783 260.003 95.3808Z" fill="#0B41B7"/>
<path opacity="0.52" d="M251.766 93.6447C253.455 94.5467 255.543 94.372 257.303 95.1365C257.923 95.4055 258.493 95.7892 258.975 96.2623C259.139 96.4235 259.372 96.6095 259.572 96.4944C259.633 96.4591 259.677 96.3998 259.716 96.3405C259.926 96.0203 260.127 95.4808 260.126 95.0583C260.123 95.0647 260.12 95.0715 260.117 95.0782C260.074 95.1773 260.036 95.2782 260.003 95.3808C259.994 95.409 259.985 95.4372 259.976 95.4654C259.976 95.4654 259.966 95.4337 259.946 95.3782C259.804 94.9942 259.182 93.4652 258.2 93.338C257.391 93.2331 255.905 93.1508 254.719 92.9341C254.058 93.1113 253.163 93.3248 252.224 93.5402C252.072 93.5752 251.919 93.6101 251.766 93.6447Z" fill="#0B41B7"/>
<path d="M254.954 82.7986C255.235 83.2717 256.034 83.7852 256.634 84.1234C256.838 85.3591 256.58 87.7654 256.301 89.6925C256.247 90.0618 256.193 90.4137 256.141 90.7362C256.035 91.3972 255.938 91.9357 255.878 92.2514C256.955 92.3947 258.103 92.4274 258.588 92.464C259.286 92.5165 259.655 93.9385 259.834 94.8075C259.887 95.0597 259.922 95.2655 259.946 95.3777C259.966 95.4332 259.977 95.4649 259.977 95.4649C259.983 95.1783 260.019 94.9123 260.078 94.6661C260.098 94.5779 260.122 94.4924 260.149 94.4093C260.18 94.3113 260.215 94.2167 260.254 94.1257C260.565 93.3884 261.092 92.8877 261.596 92.6181C261.8 92.5091 262.102 92.4838 262.477 92.5124C262.423 92.2844 262.4 91.9649 262.395 91.6155C262.391 91.2039 262.411 90.751 262.436 90.3593C262.467 89.8877 262.504 89.5047 262.51 89.3874C263.288 89.6605 264.116 89.7653 264.903 89.5207C265.071 89.4685 265.237 89.4005 265.4 89.3146C268.256 87.8157 266.418 83.3909 265.012 80.8019C264.384 79.646 263.842 78.8562 263.842 78.8562C263.787 78.8206 263.385 78.7398 262.823 78.6616H262.823C261.358 78.4571 258.81 78.2689 258.55 78.9398C258.19 79.8678 258.893 80.3746 258.703 80.7535C258.514 81.132 258.116 82.0789 258.116 82.0789C258.116 82.0789 258.053 81.9433 257.941 81.752C257.646 81.2439 257.016 80.3438 256.355 80.564C256.05 80.6657 255.739 80.8609 255.478 81.1058C255.444 81.1372 255.411 81.1699 255.379 81.2032C254.921 81.6789 254.66 82.3046 254.954 82.7986Z" fill="#CC927A" stroke="black" stroke-width="0.284929" stroke-linecap="round" stroke-linejoin="round"/>
<path d="M264.719 86.7122C264.658 87.2568 264.56 87.8043 264.617 88.3495C264.66 88.7493 264.784 89.1345 264.903 89.5205C265.071 89.4682 265.237 89.4003 265.4 89.3144C268.256 87.8155 266.418 83.3907 265.012 80.8017C264.384 79.6458 263.842 78.8559 263.842 78.8559C263.787 78.8204 263.385 78.7396 262.823 78.6614C264.349 81.0225 265.035 83.918 264.719 86.7122Z" fill="#FFC7B3"/>
<path d="M255.48 81.1052C255.911 81.1373 256.339 81.2055 256.729 81.3857C257.023 81.5216 257.295 81.7203 257.614 81.7767C257.723 81.7963 257.843 81.7947 257.943 81.7514C257.648 81.2434 257.017 80.3433 256.356 80.5635C256.052 80.6651 255.741 80.8603 255.48 81.1052Z" fill="#FFC7B3"/>
<path d="M259.486 87.5083C259.486 87.5083 259.548 90.5564 262.396 90.9705L262.511 89.3861C262.511 89.3861 260.381 88.4908 259.486 87.5083Z" fill="#B27059"/>
<path d="M255.878 92.2508C256.956 92.3941 258.104 92.4268 258.588 92.4633C259.286 92.5159 259.655 93.9378 259.835 94.8068C259.903 94.7908 259.968 94.7658 260.024 94.7187C260.044 94.7027 260.062 94.685 260.078 94.6655C260.127 94.6075 260.164 94.535 260.192 94.453C260.225 94.3545 260.245 94.2424 260.254 94.125C260.281 93.7891 260.229 93.4118 260.192 93.1951C260.144 92.9073 260.039 92.6214 259.876 92.3806C259.754 92.1995 259.599 92.0447 259.41 91.9341C258.78 91.5652 257.972 91.7713 257.268 91.5786C256.844 91.4623 256.463 91.1953 256.208 90.8362C256.185 90.8032 256.162 90.7699 256.141 90.7356C256.035 91.3966 255.938 91.9351 255.878 92.2508Z" fill="#B27059"/>
<path d="M260.124 94.4394C260.12 94.4147 260.115 94.3903 260.111 94.3657C260.056 94.3009 260.008 94.2304 259.967 94.1544L260.124 94.4394Z" fill="#B27059"/>
<path d="M259.877 92.6156C259.927 93.2022 260.005 93.7862 260.112 94.3651C260.124 94.3798 260.137 94.3943 260.15 94.4084C260.164 94.4234 260.178 94.4382 260.193 94.4526C260.226 94.3542 260.246 94.242 260.255 94.1247C260.566 93.3874 261.093 92.8867 261.597 92.6172C261.801 92.5082 262.103 92.4829 262.478 92.5114C262.424 92.2835 262.401 91.9639 262.397 91.6145C262.111 91.8065 261.885 92.1139 261.55 92.1979C261.129 92.3043 260.697 92.0168 260.264 92.0594C260.141 92.0716 260.012 92.1165 259.94 92.2168C259.905 92.2652 259.886 92.321 259.877 92.38C259.866 92.4566 259.871 92.538 259.877 92.6156Z" fill="#B27059"/>
<path d="M254.954 82.7986C255.235 83.2717 256.034 83.7852 256.634 84.1234C256.838 85.3591 256.58 87.7654 256.301 89.6926C256.138 90.819 255.967 91.7819 255.878 92.2515C256.955 92.3948 258.103 92.4275 258.588 92.464C259.488 92.532 259.842 94.8796 259.946 95.3778C259.966 95.4332 259.977 95.4649 259.977 95.4649C260.012 93.9702 260.831 93.0275 261.596 92.6182C261.8 92.5092 262.102 92.4839 262.477 92.5124C262.359 92.0156 262.39 91.0834 262.436 90.3593C262.467 89.8878 262.504 89.5047 262.51 89.3874C263.455 89.7189 264.471 89.8022 265.4 89.3146C268.256 87.8158 266.418 83.391 265.012 80.8019C264.384 79.646 263.842 78.8562 263.842 78.8562C263.645 78.7274 258.91 78.0119 258.55 78.9399C258.19 79.8679 258.893 80.3746 258.703 80.7535C258.514 81.1321 258.116 82.079 258.116 82.079C258.116 82.079 257.264 80.2612 256.355 80.5641C256.011 80.6788 255.659 80.9132 255.379 81.2033C254.921 81.6789 254.66 82.3046 254.954 82.7986Z" stroke="black" stroke-width="0.284929" stroke-linecap="round" stroke-linejoin="round"/>
<path d="M244.673 96.0113C244.673 96.0113 245.862 102.179 245.983 102.299C246.104 102.42 259.426 107.842 259.426 107.842C259.426 107.842 268.012 106.451 268.012 106.31C268.012 106.169 274.179 97.0188 274.179 97.0188C274.179 97.0188 273.554 96.1524 272.003 95.1042C271.696 94.8974 271.163 94.6974 270.501 94.507C270.501 94.5067 270.5 94.5067 270.499 94.5064C270.106 94.3932 269.667 94.2833 269.203 94.1775C267.944 95.1356 262.506 93.179 261.749 93.4252C260.966 93.6793 260.26 94.5124 259.977 95.4654C259.977 95.4654 259.967 95.4337 259.946 95.3782C259.805 94.9942 259.183 93.4652 258.201 93.338C257.391 93.2331 255.906 93.1508 254.72 92.9341C254.058 93.1113 253.163 93.3248 252.225 93.5402C250.025 94.0454 247.585 94.5628 247.334 94.6609C246.87 94.8423 244.673 96.0113 244.673 96.0113Z" stroke="black" stroke-width="0.284929" stroke-linecap="round" stroke-linejoin="round"/>
<path d="M256.634 84.1233C257.042 84.3534 257.359 84.5025 257.359 84.5025" stroke="black" stroke-width="0.284929" stroke-linecap="round" stroke-linejoin="round"/>
<path d="M259.486 87.5083C260.117 88.0628 261.25 88.9447 262.511 89.3861" stroke="black" stroke-width="0.284929" stroke-linecap="round" stroke-linejoin="round"/>
<path d="M254.127 77.9304C254.155 78.0243 254.239 78.0874 254.307 78.1579C254.652 78.5179 254.578 79.0901 254.661 79.5818C254.681 79.6969 254.755 79.8408 254.869 79.8132C254.785 79.9498 254.792 80.137 254.887 80.2665C254.981 80.3963 255.157 80.4604 255.313 80.4226C255.314 80.5268 255.269 80.6303 255.192 80.7002C255.261 80.8441 255.251 81.0233 255.166 81.1586C255.239 81.1393 255.32 81.1576 255.38 81.2031C255.66 80.913 256.012 80.6787 256.356 80.564C257.265 80.261 258.117 82.0789 258.117 82.0789C258.117 82.0789 258.515 81.132 258.704 80.7534C258.894 80.3745 258.191 79.8677 258.551 78.9398C258.911 78.0118 263.646 78.7272 263.843 78.8561C263.843 78.8561 264.385 79.6459 265.013 80.8018C265.123 80.5829 265.208 80.3473 265.26 80.1059C265.295 79.9411 265.315 79.7735 265.318 79.6062C265.322 79.3632 265.297 79.1061 265.408 78.8904C265.198 78.7792 265.268 78.4676 265.226 78.2333C265.176 77.957 264.928 77.7117 264.992 77.438C264.806 77.2893 264.722 77.0235 264.789 76.7947C264.519 76.6793 264.342 76.3754 264.375 76.0831C264.148 76.0222 263.961 75.8282 263.91 75.5987C263.773 75.6862 263.594 75.7042 263.443 75.6455C263.371 75.6176 263.304 75.5734 263.227 75.5702C263.066 75.5638 262.942 75.7391 262.781 75.7404C262.516 75.743 262.399 75.3003 262.136 75.3327C262.014 75.3477 261.931 75.4647 261.816 75.5074C261.621 75.5795 261.422 75.4218 261.274 75.2762C261.171 75.5186 260.853 75.6426 260.613 75.5343C260.538 75.5 260.47 75.4468 260.391 75.4218C260.377 75.4173 260.363 75.4138 260.349 75.4115C260.165 75.3775 259.979 75.4907 259.804 75.5695C259.615 75.6548 259.344 75.6763 259.247 75.4936C259.178 75.6949 258.904 75.7276 258.696 75.6785C258.489 75.6292 258.272 75.5352 258.073 75.6109C257.889 75.6811 257.697 75.8872 257.539 75.7692C257.508 75.7458 257.485 75.7122 257.453 75.6904C257.369 75.6333 257.25 75.6772 257.176 75.7465C257.101 75.8157 257.049 75.9074 256.969 75.9696C256.789 76.1081 256.488 76.0337 256.394 75.8273C256.222 76.2068 255.654 76.328 255.342 76.0523C255.238 76.185 255.233 76.3664 255.189 76.5286C255.145 76.6911 255.017 76.8639 254.85 76.8415C254.755 76.8286 254.669 76.753 254.575 76.7725C254.479 76.7921 254.432 76.8979 254.399 76.9902C254.32 77.2139 254.242 77.4377 254.162 77.6611C254.132 77.748 254.101 77.8419 254.127 77.9304Z" fill="#3D0027" stroke="black" stroke-width="0.284929" stroke-linecap="round" stroke-linejoin="round"/>
<path d="M257.313 83.1428C257.326 83.0059 257.271 82.8713 257.199 82.7537C257.026 82.4684 256.747 82.2482 256.429 82.1449C256.272 82.0943 256.08 82.0789 255.962 82.1943" stroke="black" stroke-width="0.284929" stroke-linecap="round" stroke-linejoin="round"/>
<path d="M256.905 82.4498C256.863 82.4075 256.796 82.3963 256.737 82.4078C256.678 82.4194 256.625 82.4501 256.575 82.4828C256.496 82.5332 256.42 82.5896 256.361 82.6614C256.301 82.7332 256.258 82.8216 256.255 82.9149" stroke="black" stroke-width="0.284929" stroke-linecap="round" stroke-linejoin="round"/>
<path d="M264.17 83.0005C264.217 83.0322 265.04 84.6295 264.66 84.8507C264.281 85.0722 263.553 84.1237 263.553 84.1237" stroke="black" stroke-width="0.284929" stroke-linecap="round" stroke-linejoin="round"/>
<path d="M261.949 84.8169L263.663 86.4828C263.663 86.4828 263.03 87.437 262.105 86.7225C260.997 85.8673 261.949 84.8169 261.949 84.8169Z" fill="white" stroke="black" stroke-width="0.284929" stroke-linecap="round" stroke-linejoin="round"/>
<path d="M260.32 75.4814C260.318 75.5356 260.363 75.5788 260.405 75.6138C260.637 75.808 260.871 76.0032 261.136 76.1484C261.533 76.3658 261.983 76.4616 262.403 76.6293C262.913 76.8325 263.375 77.1399 263.805 77.48C264.126 77.7332 264.437 78.0124 264.641 78.3663C264.95 78.9 264.989 79.5542 265.259 80.1059C265.294 79.9411 265.315 79.7735 265.317 79.6062C265.321 79.3632 265.296 79.1061 265.407 78.8904C265.197 78.7792 265.267 78.4676 265.225 78.2333C265.175 77.957 264.928 77.7117 264.991 77.438C264.805 77.2893 264.721 77.0235 264.788 76.7947C264.518 76.6793 264.341 76.3754 264.374 76.0831C264.147 76.0222 263.961 75.8282 263.909 75.5987C263.772 75.6862 263.593 75.7042 263.442 75.6455C263.37 75.6176 263.303 75.5734 263.226 75.5702C263.065 75.5638 262.942 75.7391 262.78 75.7404C262.515 75.743 262.398 75.3003 262.135 75.3327C262.013 75.3477 261.93 75.4647 261.815 75.5074C261.62 75.5795 261.421 75.4218 261.273 75.2762C261.17 75.5186 260.853 75.6426 260.612 75.5343C260.537 75.5 260.469 75.4468 260.39 75.4218C260.376 75.4173 260.362 75.4138 260.348 75.4115C260.334 75.433 260.322 75.4561 260.32 75.4814Z" fill="#6D1151"/>
<path d="M259.976 95.4653C259.941 96.9597 259.745 103.827 259.745 103.827" stroke="black" stroke-width="0.284929" stroke-linecap="round" stroke-linejoin="round"/>
<path d="M262.478 92.513C263.509 92.5912 265.091 93.0771 266.687 93.3499C268.09 93.59 269.524 93.2598 268.559 92.3726C268.507 92.3242 268.444 92.2758 268.373 92.2267C268.372 92.2264 268.371 92.2258 268.37 92.2251C268.37 92.2248 268.37 92.2245 268.37 92.2245C266.998 91.2914 262.437 90.3599 262.437 90.3599C262.39 91.084 262.359 92.0161 262.478 92.513Z" fill="#0638C4" stroke="black" stroke-width="0.284929" stroke-linecap="round" stroke-linejoin="round"/>
<path d="M253.555 91.1774C253.534 91.7867 254.662 92.0897 255.88 92.2515C255.969 91.7819 256.14 90.819 256.303 89.6926C256.303 89.6926 254.869 89.8705 254.073 90.4097C253.774 90.6116 253.566 90.8642 253.555 91.1774Z" fill="#0638C4" stroke="black" stroke-width="0.284929" stroke-linecap="round" stroke-linejoin="round"/>
<path d="M259.977 95.465C260.259 94.512 260.966 93.6789 261.748 93.4247C262.506 93.1785 267.944 95.1351 269.202 94.177C269.244 94.1456 269.281 94.1107 269.313 94.0725C269.725 93.5821 269.358 93.0484 268.968 92.681C268.967 92.6801 268.965 92.6791 268.964 92.6782C268.69 92.4211 268.406 92.2461 268.373 92.2262C268.444 92.2752 268.506 92.3236 268.559 92.372C269.524 93.2593 268.09 93.5895 266.687 93.3494C265.091 93.0766 263.509 92.5907 262.477 92.5124C262.102 92.4839 261.8 92.5092 261.596 92.6182C260.83 93.0276 260.012 93.9703 259.977 95.465Z" fill="#4C70F5" stroke="black" stroke-width="0.284929" stroke-linecap="round" stroke-linejoin="round"/>
<path d="M259.978 95.465C259.972 95.4839 259.962 95.4506 259.947 95.3778" stroke="black" stroke-width="0.284929" stroke-linecap="round" stroke-linejoin="round"/>
<path d="M252.988 92.1881C253.158 92.5477 253.86 92.7763 254.721 92.9336C255.906 93.1503 257.392 93.2327 258.201 93.3375C259.184 93.4648 259.805 94.9938 259.947 95.3778C259.843 94.8797 259.489 92.532 258.589 92.464C258.104 92.4275 256.956 92.3948 255.879 92.2515C254.661 92.0896 253.533 91.7867 253.554 91.1774C253.565 90.8642 253.773 90.6116 254.072 90.4097C254.042 90.4218 253.257 90.751 252.978 91.3312C252.978 91.3312 252.978 91.3316 252.977 91.3322C252.861 91.5749 252.834 91.8617 252.988 92.1881Z" fill="#4C70F5" stroke="black" stroke-width="0.284929" stroke-linecap="round" stroke-linejoin="round"/>
<path d="M254.072 90.4099L254.074 90.4091" stroke="black" stroke-width="0.284929" stroke-linecap="round" stroke-linejoin="round"/>
<path d="M252.225 93.5401C253.163 93.3247 254.058 93.1112 254.72 92.934C253.86 92.7766 253.157 92.548 252.987 92.1884C252.833 91.8621 252.861 91.5752 252.977 91.3325C252.955 91.3691 252.246 92.5493 252.225 93.5401Z" fill="#0638C4" stroke="black" stroke-width="0.284929" stroke-linecap="round" stroke-linejoin="round"/>
<path d="M252.977 91.3333L252.978 91.3309" stroke="black" stroke-width="0.284929" stroke-linecap="round" stroke-linejoin="round"/>
<path d="M269.314 94.0722C269.282 94.1104 269.245 94.1453 269.203 94.1767C269.667 94.2825 270.106 94.3925 270.5 94.5056C270.5 94.5059 270.501 94.5059 270.502 94.5062C270.103 93.668 268.966 92.6779 268.966 92.6779C269.357 93.0452 269.728 93.5805 269.314 94.0722Z" fill="#0638C4" stroke="black" stroke-width="0.284929" stroke-linecap="round" stroke-linejoin="round"/>
<path d="M259.427 96.9187C259.427 97.177 259.637 97.3864 259.895 97.3864C260.153 97.3864 260.363 97.177 260.363 96.9187V96.1407C260.363 95.8824 260.153 95.673 259.895 95.673C259.637 95.673 259.427 95.8824 259.427 96.1407V96.9187Z" fill="#F5D256" stroke="black" stroke-width="0.284929" stroke-linecap="round" stroke-linejoin="round"/>
<path d="M254.127 77.9304C254.155 78.0243 254.239 78.0874 254.307 78.1579C254.652 78.5179 254.578 79.0901 254.661 79.5818C254.681 79.6969 254.755 79.8408 254.869 79.8132C254.785 79.9498 254.792 80.137 254.887 80.2665C254.981 80.3963 255.157 80.4604 255.313 80.4226C255.314 80.5268 255.269 80.6303 255.192 80.7002C255.261 80.8441 255.251 81.0233 255.166 81.1586C255.239 81.1393 255.32 81.1576 255.38 81.2031C255.66 80.913 256.012 80.6787 256.356 80.564C257.265 80.261 258.117 82.0789 258.117 82.0789C258.117 82.0789 258.515 81.132 258.704 80.7534C258.894 80.3745 258.191 79.8677 258.551 78.9398C258.911 78.0118 263.646 78.7272 263.843 78.8561C263.843 78.8561 264.385 79.6459 265.013 80.8018C265.198 80.4332 265.312 80.0184 265.318 79.6062C265.322 79.3632 265.297 79.1061 265.408 78.8904C265.198 78.7792 265.268 78.4676 265.226 78.2333C265.176 77.957 264.928 77.7117 264.992 77.438C264.806 77.2893 264.722 77.0235 264.789 76.7947C264.519 76.6793 264.342 76.3754 264.375 76.0831C264.148 76.0222 263.961 75.8282 263.91 75.5987C263.773 75.6862 263.594 75.7042 263.443 75.6455C263.371 75.6176 263.304 75.5734 263.227 75.5702C263.066 75.5638 262.942 75.7391 262.781 75.7404C262.516 75.743 262.399 75.3003 262.136 75.3327C262.014 75.3477 261.931 75.4647 261.816 75.5074C261.621 75.5795 261.422 75.4218 261.274 75.2762C261.171 75.5186 260.853 75.6426 260.613 75.5343C260.538 75.5 260.47 75.4468 260.391 75.4218C260.194 75.3596 259.993 75.4846 259.804 75.5695C259.615 75.6548 259.344 75.6763 259.247 75.4936C259.178 75.6949 258.904 75.7276 258.696 75.6785C258.489 75.6292 258.272 75.5352 258.073 75.6109C257.889 75.6811 257.697 75.8872 257.539 75.7692C257.508 75.7458 257.485 75.7122 257.453 75.6904C257.369 75.6333 257.25 75.6772 257.176 75.7465C257.101 75.8157 257.049 75.9074 256.969 75.9696C256.789 76.1081 256.488 76.0337 256.394 75.8273C256.222 76.2068 255.654 76.328 255.342 76.0523C255.238 76.185 255.233 76.3664 255.189 76.5286C255.145 76.6911 255.017 76.8639 254.85 76.8415C254.755 76.8286 254.669 76.753 254.575 76.7725C254.479 76.7921 254.432 76.8979 254.399 76.9902C254.32 77.2139 254.242 77.4377 254.162 77.6611C254.132 77.748 254.101 77.8419 254.127 77.9304Z" stroke="black" stroke-width="0.284929" stroke-linecap="round" stroke-linejoin="round"/>
<path opacity="0.52" d="M252.781 103.124C252.811 104.274 253.03 105.496 252.511 106.522C252.333 106.874 252.04 107.204 251.651 107.274C251.232 107.349 250.828 107.11 250.469 106.881C249.932 106.537 249.395 106.194 248.859 105.851C248.467 105.6 248.066 105.341 247.794 104.965C247.47 104.516 247.363 103.945 247.339 103.392C247.303 102.547 247.44 101.704 247.627 100.879C247.987 99.2947 248.554 97.7173 249.593 96.4678C249.807 96.2098 250.044 95.9643 250.333 95.7921C251.137 95.3123 252.557 94.951 252.975 96.0707C253.468 97.3913 253.11 99.1194 252.954 100.474C252.854 101.354 252.758 102.237 252.781 103.124Z" fill="#0B41B7"/>
<path d="M252.064 95.8394L248.875 101.724C248.875 101.724 242.615 92.7577 242.73 92.7807C242.79 92.7926 245.433 91.9579 247.914 91.1671C248.053 91.9566 248.399 93.0083 249.106 93.919C249.924 94.9736 251.184 95.6006 252.064 95.8394Z" fill="#CC927A" stroke="black" stroke-width="0.284929" stroke-linecap="round" stroke-linejoin="round"/>
<path d="M258.011 91.4036C257.817 91.7703 254.563 92.5518 253.921 92.4143L253.666 92.8855L252.966 94.1769L252.594 94.8639C252.594 94.8639 251.401 94.3693 250.4 93.1243C249.993 92.6181 249.738 92.1546 249.579 91.7729C249.311 91.133 249.311 90.7221 249.311 90.7221C249.556 90.6439 249.793 90.5679 250.02 90.4955C250.466 90.3525 250.869 90.2233 251.205 90.1156C251.832 89.9147 252.225 89.788 252.225 89.788C252.225 89.788 252.217 88.2866 252.977 87.642C253.991 86.782 254.157 84.8879 254.586 84.8164C254.951 84.7555 255.312 85.8521 255.249 86.9512C255.238 87.1451 255.214 87.3394 255.174 87.5272C255.174 87.5272 257.267 87.3676 257.496 87.551C257.725 87.7346 257.931 88.0097 257.587 88.4453C257.587 88.4453 258.068 88.9957 257.77 89.4313C257.77 89.4313 258.239 90.022 257.867 90.4375C257.867 90.4375 258.204 91.0366 258.011 91.4036Z" fill="#CC927A" stroke="black" stroke-width="0.284929" stroke-linecap="round" stroke-linejoin="round"/>
<path d="M252.955 95.9286C252.839 95.9632 252.646 95.9597 252.402 95.9171C252.401 95.9171 252.4 95.9167 252.399 95.9164C252.296 95.8981 252.184 95.8728 252.064 95.8404C251.185 95.6016 249.925 94.9747 249.106 93.9201C248.4 93.0094 248.054 91.9577 247.915 91.1682C247.861 90.8627 247.839 90.5966 247.838 90.3934C247.837 90.2348 247.85 90.1142 247.872 90.0424C247.994 89.6408 248.769 89.6565 249.143 89.6392C249.517 89.6215 250.019 90.496 250.019 90.496C249.793 90.5684 249.556 90.6444 249.311 90.7226C249.311 90.7226 249.311 91.4547 249.947 92.4866C250.072 92.6888 250.221 92.9026 250.399 93.1248C251.4 94.3698 252.593 94.8644 252.593 94.8644L252.966 94.1775C252.984 94.1864 253.567 94.4842 253.656 94.8644C253.689 95.0057 253.478 95.7715 252.955 95.9286Z" fill="#49A2A6" stroke="black" stroke-width="0.284929" stroke-linecap="round" stroke-linejoin="round"/>
<path d="M252.965 94.1765H252.964" stroke="black" stroke-width="0.284929" stroke-linecap="round" stroke-linejoin="round"/>
<path d="M252.954 95.9288C252.954 95.9288 252.201 98.5814 251.873 99.4641C251.831 99.5757 251.77 99.7424 251.692 99.9475C251.591 100.214 251.462 100.544 251.31 100.902C251.027 101.568 250.666 102.33 250.266 102.948H250.265C249.861 103.572 249.416 104.049 248.97 104.135C247.882 104.346 245.611 102.63 244.015 100.88C243.692 100.526 243.396 100.17 243.144 99.8289C242.66 99.175 242.236 98.2813 241.914 97.3354C241.239 95.3503 241.016 93.1343 241.645 92.4195C241.852 92.1846 242.274 91.9534 242.805 91.7364C243.13 91.6041 243.495 91.4768 243.877 91.3572C245.674 90.7924 247.837 90.3937 247.837 90.3937C247.838 90.5969 247.861 90.863 247.914 91.1684C248 91.6573 248.166 92.2467 248.447 92.841C248.62 93.2065 248.837 93.5738 249.106 93.9203C249.113 93.9296 249.12 93.9386 249.127 93.9476C249.607 94.5563 250.234 95.0204 250.846 95.348C251.278 95.5795 251.703 95.7426 252.064 95.8407C252.466 95.9503 252.79 95.9782 252.954 95.9288Z" fill="#4C70F5" stroke="black" stroke-width="0.284929" stroke-linecap="round" stroke-linejoin="round"/>
<path d="M253.665 92.8847L252.966 94.1762L252.593 94.8631C252.593 94.8631 251.4 94.3685 250.399 93.1235C249.993 92.6174 249.738 92.1539 249.578 91.7721C249.595 91.757 249.615 91.7448 249.637 91.7362C249.728 91.7009 249.829 91.7404 249.917 91.782C250.74 92.1724 251.49 92.8248 252.401 92.8587C252.684 92.8693 252.966 92.8177 253.249 92.8264C253.39 92.8308 253.529 92.8507 253.665 92.8847Z" fill="#B27059"/>
<path d="M255.249 86.9512C254.8 87.1666 254.268 87.2945 253.955 87.6769C253.787 87.883 253.702 88.1427 253.61 88.3927C253.392 88.9867 253.118 89.5653 252.736 90.0701C252.552 90.3131 252.317 90.5525 252.015 90.5868C251.685 90.624 251.389 90.4009 251.205 90.1156C251.831 89.9147 252.225 89.788 252.225 89.788C252.225 89.788 252.216 88.2866 252.976 87.642C253.99 86.782 254.156 84.8879 254.586 84.8164C254.95 84.7555 255.312 85.8521 255.249 86.9512Z" fill="#FFC7B3"/>
<path d="M252.953 95.9275C252.953 95.9275 252.201 98.58 251.872 99.4628C251.831 99.5744 251.77 99.7411 251.692 99.9462C251.63 99.8898 251.572 99.8302 251.516 99.7693C251.099 99.3154 250.781 98.7801 250.491 98.2367C250.111 97.5261 249.771 96.7943 249.473 96.0455C249.206 95.3743 248.972 94.6902 248.739 94.0065C248.655 93.7581 248.417 93.2096 248.447 92.8397C248.619 93.2051 248.836 93.5725 249.105 93.919C249.924 94.9736 251.184 95.6006 252.063 95.8394C252.466 95.949 252.789 95.9769 252.953 95.9275Z" fill="#0638C4"/>
<path d="M252.953 95.9286C252.838 95.9632 252.645 95.9597 252.401 95.917C252.4 95.917 252.399 95.9167 252.398 95.9164C251.969 95.8058 251.55 95.6782 251.224 95.3888C251.101 95.2804 250.998 95.1529 250.894 95.0262C250.728 94.8214 250.561 94.6166 250.394 94.4118C250.187 94.1573 249.977 93.8983 249.851 93.5957C249.724 93.2934 249.691 92.9353 249.838 92.6424C249.869 92.5799 249.906 92.5292 249.946 92.4866C250.071 92.6888 250.22 92.9026 250.398 93.1248C251.399 94.3698 252.592 94.8644 252.592 94.8644L252.965 94.1774C252.983 94.1864 253.566 94.4842 253.655 94.8644C253.688 95.0057 253.477 95.7715 252.953 95.9286Z" fill="#2D8787"/>
<path d="M246.925 99.6812L244.015 100.88C243.692 100.525 243.396 100.17 243.144 99.8286C242.66 99.1747 242.236 98.281 241.914 97.3351L246.925 99.6812Z" fill="#BF9EF9" stroke="black" stroke-width="0.284929" stroke-linecap="round" stroke-linejoin="round"/>
<path d="M245.978 92.6329L242.989 94.3132L242.805 91.7354C243.129 91.603 243.495 91.4758 243.877 91.3562L245.978 92.6329Z" fill="#F5D256" stroke="black" stroke-width="0.284929" stroke-linecap="round" stroke-linejoin="round"/>
<path d="M251.399 97.3231L247.22 96.3021L249.127 93.9468C249.607 94.5555 250.233 95.0196 250.846 95.3472L251.399 97.3231Z" fill="#E938B5" stroke="black" stroke-width="0.284929" stroke-linecap="round" stroke-linejoin="round"/>
<path d="M251.309 100.901C251.026 101.567 250.665 102.329 250.265 102.947H250.265L249.23 103.529L248.939 99.4617L251.309 100.901Z" fill="#49A2A6" stroke="black" stroke-width="0.284929" stroke-linecap="round" stroke-linejoin="round"/>
<path d="M252.955 95.9286C252.79 95.978 252.467 95.9501 252.064 95.8404C251.185 95.6016 249.925 94.9747 249.106 93.9201C248.4 93.0094 248.054 91.9577 247.915 91.1682C247.861 90.8627 247.839 90.5966 247.838 90.3934C247.837 90.2348 247.85 90.1142 247.872 90.0424C247.994 89.6408 248.769 89.6565 249.143 89.6392C249.517 89.6215 250.019 90.496 250.019 90.496C249.793 90.5684 249.556 90.6444 249.311 90.7226C249.311 90.7226 249.311 91.7698 250.399 93.1248C251.4 94.3698 252.593 94.8644 252.593 94.8644L252.966 94.1775C252.984 94.1864 253.567 94.4842 253.656 94.8644C253.689 95.0057 253.478 95.7715 252.955 95.9286Z" stroke="black" stroke-width="0.284929" stroke-linecap="round" stroke-linejoin="round"/>
<path d="M251.873 99.4638C251.577 100.259 250.279 103.882 248.97 104.135C247.662 104.388 244.643 101.855 243.144 99.8286C241.645 97.8021 240.717 93.4751 241.645 92.4195C242.574 91.3643 247.837 90.3937 247.837 90.3937C247.838 90.5969 247.861 90.863 247.914 91.1684C248.053 91.9579 248.399 93.0096 249.106 93.9203C249.924 94.9749 251.184 95.6019 252.064 95.8407C252.466 95.9503 252.79 95.9782 252.954 95.9288C252.954 95.9288 252.201 98.5814 251.873 99.4641V99.4638Z" stroke="black" stroke-width="0.284929" stroke-linecap="round" stroke-linejoin="round"/>
<path d="M258.011 91.4036C257.817 91.7703 254.563 92.5518 253.921 92.4143L252.966 94.177L252.594 94.8639C252.594 94.8639 251.401 94.3693 250.4 93.1243C249.311 91.7693 249.311 90.7221 249.311 90.7221C249.556 90.6439 249.793 90.5679 250.02 90.4955C251.296 90.0868 252.225 89.7881 252.225 89.7881C252.225 89.7881 252.217 88.2866 252.977 87.642C253.991 86.782 254.157 84.8879 254.586 84.8164C255.015 84.7446 255.439 86.2752 255.174 87.5272C255.174 87.5272 257.267 87.3676 257.496 87.551C257.725 87.7346 257.931 88.0097 257.587 88.4453C257.587 88.4453 258.068 88.9957 257.77 89.4313C257.77 89.4313 258.239 90.022 257.867 90.4375C257.867 90.4375 258.204 91.0366 258.011 91.4036Z" stroke="black" stroke-width="0.284929" stroke-linecap="round" stroke-linejoin="round"/>
</g>
</g>
<rect x="67.5002" y="28.5" width="239" height="187" rx="15.5" stroke="url(#paint2_linear_1187_16022)"/>
<g filter="url(#filter0_dd_1187_16022)">
<path d="M41.0002 96C41.0002 87.1634 48.1637 80 57.0002 80H217C225.837 80 233 87.1634 233 96V108C233 116.837 225.837 124 217 124H41.0002V96Z" fill="#2970FF" shape-rendering="crispEdges"/>
<path d="M67.6707 96.3636V108H66.0571L60.1423 99.4659H60.0343V108H58.2787V96.3636H59.9037L65.8241 104.909H65.9321V96.3636H67.6707ZM73.8568 108.176C72.9969 108.176 72.2564 107.992 71.6352 107.625C71.0178 107.254 70.5405 106.733 70.2034 106.062C69.87 105.388 69.7034 104.598 69.7034 103.693C69.7034 102.799 69.87 102.011 70.2034 101.33C70.5405 100.648 71.0102 100.116 71.6125 99.733C72.2185 99.3504 72.9269 99.1591 73.7375 99.1591C74.2299 99.1591 74.7072 99.2405 75.1693 99.4034C75.6314 99.5663 76.0462 99.822 76.4136 100.17C76.781 100.519 77.0708 100.972 77.2829 101.528C77.495 102.081 77.6011 102.754 77.6011 103.545V104.148H70.6636V102.875H75.9363C75.9363 102.428 75.8454 102.032 75.6636 101.688C75.4818 101.339 75.2261 101.064 74.8966 100.864C74.5708 100.663 74.1882 100.562 73.7488 100.562C73.2716 100.562 72.8549 100.68 72.4988 100.915C72.1466 101.146 71.8738 101.449 71.6806 101.824C71.4912 102.195 71.3966 102.598 71.3966 103.034V104.028C71.3966 104.612 71.4988 105.108 71.7034 105.517C71.9117 105.926 72.2015 106.239 72.5727 106.455C72.9439 106.667 73.3776 106.773 73.8738 106.773C74.1958 106.773 74.4894 106.727 74.7545 106.636C75.0197 106.542 75.2488 106.402 75.442 106.216C75.6352 106.03 75.7829 105.801 75.8852 105.528L77.4931 105.818C77.3644 106.292 77.1333 106.706 76.8 107.062C76.4704 107.415 76.0556 107.689 75.5556 107.886C75.0594 108.08 74.4931 108.176 73.8568 108.176ZM81.3625 108L78.7943 99.2727H80.55L82.2602 105.682H82.3454L84.0613 99.2727H85.817L87.5216 105.653H87.6068L89.3056 99.2727H91.0613L88.4988 108H86.7659L84.9931 101.699H84.8625L83.0897 108H81.3625ZM98.6068 96.3636V108H96.9079V96.3636H98.6068ZM104.654 108.176C103.794 108.176 103.053 107.992 102.432 107.625C101.815 107.254 101.337 106.733 101 106.062C100.667 105.388 100.5 104.598 100.5 103.693C100.5 102.799 100.667 102.011 101 101.33C101.337 100.648 101.807 100.116 102.409 99.733C103.015 99.3504 103.724 99.1591 104.534 99.1591C105.027 99.1591 105.504 99.2405 105.966 99.4034C106.428 99.5663 106.843 99.822 107.21 100.17C107.578 100.519 107.868 100.972 108.08 101.528C108.292 102.081 108.398 102.754 108.398 103.545V104.148H101.46V102.875H106.733C106.733 102.428 106.642 102.032 106.46 101.688C106.279 101.339 106.023 101.064 105.693 100.864C105.368 100.663 104.985 100.562 104.546 100.562C104.068 100.562 103.652 100.68 103.296 100.915C102.943 101.146 102.671 101.449 102.478 101.824C102.288 102.195 102.193 102.598 102.193 103.034V104.028C102.193 104.612 102.296 105.108 102.5 105.517C102.709 105.926 102.998 106.239 103.37 106.455C103.741 106.667 104.174 106.773 104.671 106.773C104.993 106.773 105.286 106.727 105.551 106.636C105.817 106.542 106.046 106.402 106.239 106.216C106.432 106.03 106.58 105.801 106.682 105.528L108.29 105.818C108.161 106.292 107.93 106.706 107.597 107.062C107.267 107.415 106.853 107.689 106.353 107.886C105.856 108.08 105.29 108.176 104.654 108.176ZM112.823 108.193C112.27 108.193 111.77 108.091 111.323 107.886C110.876 107.678 110.522 107.377 110.26 106.983C110.003 106.589 109.874 106.106 109.874 105.534C109.874 105.042 109.969 104.636 110.158 104.318C110.347 104 110.603 103.748 110.925 103.562C111.247 103.377 111.607 103.237 112.005 103.142C112.402 103.047 112.808 102.975 113.22 102.926C113.743 102.866 114.167 102.816 114.493 102.778C114.819 102.737 115.056 102.67 115.203 102.58C115.351 102.489 115.425 102.341 115.425 102.136V102.097C115.425 101.6 115.285 101.216 115.005 100.943C114.728 100.67 114.315 100.534 113.766 100.534C113.194 100.534 112.743 100.661 112.414 100.915C112.088 101.165 111.862 101.443 111.737 101.75L110.141 101.386C110.33 100.856 110.607 100.428 110.97 100.102C111.338 99.7727 111.76 99.5341 112.237 99.3864C112.715 99.2348 113.217 99.1591 113.743 99.1591C114.092 99.1591 114.461 99.2008 114.851 99.2841C115.245 99.3636 115.612 99.5114 115.953 99.7273C116.298 99.9432 116.58 100.252 116.8 100.653C117.02 101.051 117.13 101.568 117.13 102.205V108H115.47V106.807H115.402C115.292 107.027 115.128 107.242 114.908 107.455C114.688 107.667 114.406 107.843 114.061 107.983C113.717 108.123 113.304 108.193 112.823 108.193ZM113.192 106.83C113.662 106.83 114.063 106.737 114.397 106.551C114.734 106.366 114.989 106.123 115.164 105.824C115.342 105.521 115.431 105.197 115.431 104.852V103.727C115.37 103.788 115.253 103.845 115.078 103.898C114.908 103.947 114.713 103.991 114.493 104.028C114.273 104.062 114.059 104.095 113.851 104.125C113.643 104.152 113.469 104.174 113.328 104.193C112.999 104.235 112.698 104.305 112.425 104.403C112.156 104.502 111.94 104.644 111.777 104.83C111.618 105.011 111.539 105.254 111.539 105.557C111.539 105.977 111.694 106.295 112.005 106.511C112.315 106.723 112.711 106.83 113.192 106.83ZM122.659 108.17C121.955 108.17 121.326 107.991 120.773 107.631C120.224 107.267 119.792 106.75 119.478 106.08C119.167 105.405 119.012 104.597 119.012 103.653C119.012 102.71 119.169 101.903 119.483 101.233C119.801 100.562 120.237 100.049 120.79 99.6932C121.343 99.3371 121.97 99.1591 122.671 99.1591C123.212 99.1591 123.648 99.25 123.978 99.4318C124.311 99.6098 124.568 99.8182 124.75 100.057C124.936 100.295 125.08 100.506 125.182 100.688H125.284V96.3636H126.983V108H125.324V106.642H125.182C125.08 106.828 124.932 107.04 124.739 107.278C124.549 107.517 124.288 107.725 123.955 107.903C123.621 108.081 123.19 108.17 122.659 108.17ZM123.034 106.722C123.523 106.722 123.936 106.593 124.273 106.335C124.614 106.074 124.871 105.712 125.046 105.25C125.224 104.788 125.313 104.25 125.313 103.636C125.313 103.03 125.226 102.5 125.051 102.045C124.877 101.591 124.621 101.237 124.284 100.983C123.947 100.729 123.531 100.602 123.034 100.602C122.523 100.602 122.097 100.735 121.756 101C121.415 101.265 121.157 101.627 120.983 102.085C120.813 102.544 120.728 103.061 120.728 103.636C120.728 104.22 120.815 104.744 120.989 105.21C121.163 105.676 121.421 106.045 121.762 106.318C122.106 106.587 122.531 106.722 123.034 106.722ZM137.318 108.176C136.474 108.176 135.746 107.985 135.137 107.602C134.531 107.216 134.065 106.684 133.739 106.006C133.413 105.328 133.25 104.551 133.25 103.676C133.25 102.79 133.417 102.008 133.75 101.33C134.084 100.648 134.553 100.116 135.159 99.733C135.765 99.3504 136.479 99.1591 137.301 99.1591C137.964 99.1591 138.555 99.2822 139.074 99.5284C139.593 99.7708 140.012 100.112 140.33 100.551C140.652 100.991 140.843 101.504 140.904 102.091H139.25C139.159 101.682 138.951 101.33 138.625 101.034C138.303 100.739 137.871 100.591 137.33 100.591C136.856 100.591 136.442 100.716 136.085 100.966C135.733 101.212 135.459 101.564 135.262 102.023C135.065 102.477 134.966 103.015 134.966 103.636C134.966 104.273 135.063 104.822 135.256 105.284C135.449 105.746 135.722 106.104 136.074 106.358C136.43 106.612 136.849 106.739 137.33 106.739C137.652 106.739 137.943 106.68 138.205 106.562C138.47 106.441 138.692 106.269 138.87 106.045C139.051 105.822 139.178 105.553 139.25 105.239H140.904C140.843 105.803 140.659 106.307 140.353 106.75C140.046 107.193 139.635 107.542 139.12 107.795C138.608 108.049 138.008 108.176 137.318 108.176ZM142.72 108V99.2727H144.362V100.659H144.453C144.612 100.189 144.893 99.8201 145.294 99.5511C145.7 99.2784 146.158 99.142 146.669 99.142C146.775 99.142 146.9 99.1458 147.044 99.1534C147.192 99.161 147.308 99.1705 147.391 99.1818V100.807C147.323 100.788 147.201 100.767 147.027 100.744C146.853 100.718 146.679 100.705 146.505 100.705C146.103 100.705 145.745 100.79 145.431 100.96C145.12 101.127 144.874 101.36 144.692 101.659C144.51 101.955 144.419 102.292 144.419 102.67V108H142.72ZM152.31 108.176C151.45 108.176 150.71 107.992 150.088 107.625C149.471 107.254 148.994 106.733 148.656 106.062C148.323 105.388 148.156 104.598 148.156 103.693C148.156 102.799 148.323 102.011 148.656 101.33C148.994 100.648 149.463 100.116 150.066 99.733C150.672 99.3504 151.38 99.1591 152.191 99.1591C152.683 99.1591 153.16 99.2405 153.622 99.4034C154.085 99.5663 154.499 99.822 154.867 100.17C155.234 100.519 155.524 100.972 155.736 101.528C155.948 102.081 156.054 102.754 156.054 103.545V104.148H149.117V102.875H154.389C154.389 102.428 154.299 102.032 154.117 101.688C153.935 101.339 153.679 101.064 153.35 100.864C153.024 100.663 152.641 100.562 152.202 100.562C151.725 100.562 151.308 100.68 150.952 100.915C150.6 101.146 150.327 101.449 150.134 101.824C149.944 102.195 149.85 102.598 149.85 103.034V104.028C149.85 104.612 149.952 105.108 150.156 105.517C150.365 105.926 150.655 106.239 151.026 106.455C151.397 106.667 151.831 106.773 152.327 106.773C152.649 106.773 152.942 106.727 153.208 106.636C153.473 106.542 153.702 106.402 153.895 106.216C154.088 106.03 154.236 105.801 154.338 105.528L155.946 105.818C155.817 106.292 155.586 106.706 155.253 107.062C154.924 107.415 154.509 107.689 154.009 107.886C153.513 108.08 152.946 108.176 152.31 108.176ZM160.479 108.193C159.926 108.193 159.426 108.091 158.979 107.886C158.532 107.678 158.178 107.377 157.916 106.983C157.659 106.589 157.53 106.106 157.53 105.534C157.53 105.042 157.625 104.636 157.814 104.318C158.004 104 158.259 103.748 158.581 103.562C158.903 103.377 159.263 103.237 159.661 103.142C160.058 103.047 160.464 102.975 160.877 102.926C161.399 102.866 161.824 102.816 162.149 102.778C162.475 102.737 162.712 102.67 162.86 102.58C163.007 102.489 163.081 102.341 163.081 102.136V102.097C163.081 101.6 162.941 101.216 162.661 100.943C162.384 100.67 161.971 100.534 161.422 100.534C160.85 100.534 160.399 100.661 160.07 100.915C159.744 101.165 159.519 101.443 159.394 101.75L157.797 101.386C157.987 100.856 158.263 100.428 158.627 100.102C158.994 99.7727 159.416 99.5341 159.894 99.3864C160.371 99.2348 160.873 99.1591 161.399 99.1591C161.748 99.1591 162.117 99.2008 162.507 99.2841C162.901 99.3636 163.269 99.5114 163.61 99.7273C163.954 99.9432 164.237 100.252 164.456 100.653C164.676 101.051 164.786 101.568 164.786 102.205V108H163.127V106.807H163.058C162.949 107.027 162.784 107.242 162.564 107.455C162.344 107.667 162.062 107.843 161.718 107.983C161.373 108.123 160.96 108.193 160.479 108.193ZM160.848 106.83C161.318 106.83 161.719 106.737 162.053 106.551C162.39 106.366 162.646 106.123 162.82 105.824C162.998 105.521 163.087 105.197 163.087 104.852V103.727C163.026 103.788 162.909 103.845 162.735 103.898C162.564 103.947 162.369 103.991 162.149 104.028C161.93 104.062 161.716 104.095 161.507 104.125C161.299 104.152 161.125 104.174 160.985 104.193C160.655 104.235 160.354 104.305 160.081 104.403C159.812 104.502 159.596 104.644 159.433 104.83C159.274 105.011 159.195 105.254 159.195 105.557C159.195 105.977 159.35 106.295 159.661 106.511C159.971 106.723 160.367 106.83 160.848 106.83ZM171.122 99.2727V100.636H166.355V99.2727H171.122ZM167.634 97.1818H169.333V105.438C169.333 105.767 169.382 106.015 169.48 106.182C169.579 106.345 169.706 106.456 169.861 106.517C170.02 106.574 170.192 106.602 170.378 106.602C170.514 106.602 170.634 106.593 170.736 106.574C170.838 106.555 170.918 106.54 170.975 106.528L171.281 107.932C171.183 107.97 171.043 108.008 170.861 108.045C170.679 108.087 170.452 108.11 170.179 108.114C169.732 108.121 169.316 108.042 168.929 107.875C168.543 107.708 168.23 107.451 167.992 107.102C167.753 106.754 167.634 106.316 167.634 105.79V97.1818ZM176.669 108.176C175.809 108.176 175.069 107.992 174.448 107.625C173.83 107.254 173.353 106.733 173.016 106.062C172.683 105.388 172.516 104.598 172.516 103.693C172.516 102.799 172.683 102.011 173.016 101.33C173.353 100.648 173.823 100.116 174.425 99.733C175.031 99.3504 175.739 99.1591 176.55 99.1591C177.042 99.1591 177.52 99.2405 177.982 99.4034C178.444 99.5663 178.859 99.822 179.226 100.17C179.594 100.519 179.883 100.972 180.095 101.528C180.308 102.081 180.414 102.754 180.414 103.545V104.148H173.476V102.875H178.749C178.749 102.428 178.658 102.032 178.476 101.688C178.294 101.339 178.039 101.064 177.709 100.864C177.383 100.663 177.001 100.562 176.561 100.562C176.084 100.562 175.667 100.68 175.311 100.915C174.959 101.146 174.686 101.449 174.493 101.824C174.304 102.195 174.209 102.598 174.209 103.034V104.028C174.209 104.612 174.311 105.108 174.516 105.517C174.724 105.926 175.014 106.239 175.385 106.455C175.756 106.667 176.19 106.773 176.686 106.773C177.008 106.773 177.302 106.727 177.567 106.636C177.832 106.542 178.061 106.402 178.255 106.216C178.448 106.03 178.595 105.801 178.698 105.528L180.306 105.818C180.177 106.292 179.946 106.706 179.612 107.062C179.283 107.415 178.868 107.689 178.368 107.886C177.872 108.08 177.306 108.176 176.669 108.176ZM185.566 108.17C184.861 108.17 184.232 107.991 183.679 107.631C183.13 107.267 182.698 106.75 182.384 106.08C182.073 105.405 181.918 104.597 181.918 103.653C181.918 102.71 182.075 101.903 182.389 101.233C182.708 100.562 183.143 100.049 183.696 99.6932C184.249 99.3371 184.876 99.1591 185.577 99.1591C186.119 99.1591 186.554 99.25 186.884 99.4318C187.217 99.6098 187.475 99.8182 187.656 100.057C187.842 100.295 187.986 100.506 188.088 100.688H188.191V96.3636H189.889V108H188.23V106.642H188.088C187.986 106.828 187.838 107.04 187.645 107.278C187.456 107.517 187.194 107.725 186.861 107.903C186.528 108.081 186.096 108.17 185.566 108.17ZM185.941 106.722C186.429 106.722 186.842 106.593 187.179 106.335C187.52 106.074 187.778 105.712 187.952 105.25C188.13 104.788 188.219 104.25 188.219 103.636C188.219 103.03 188.132 102.5 187.958 102.045C187.783 101.591 187.528 101.237 187.191 100.983C186.853 100.729 186.437 100.602 185.941 100.602C185.429 100.602 185.003 100.735 184.662 101C184.321 101.265 184.064 101.627 183.889 102.085C183.719 102.544 183.634 103.061 183.634 103.636C183.634 104.22 183.721 104.744 183.895 105.21C184.069 105.676 184.327 106.045 184.668 106.318C185.013 106.587 185.437 106.722 185.941 106.722ZM194.456 96.3636L194.308 104.653H192.735L192.587 96.3636H194.456ZM193.524 108.108C193.21 108.108 192.941 107.998 192.718 107.778C192.494 107.555 192.384 107.286 192.388 106.972C192.384 106.661 192.494 106.396 192.718 106.176C192.941 105.953 193.21 105.841 193.524 105.841C193.831 105.841 194.096 105.953 194.32 106.176C194.543 106.396 194.657 106.661 194.661 106.972C194.657 107.18 194.602 107.371 194.496 107.545C194.394 107.716 194.257 107.852 194.087 107.955C193.916 108.057 193.729 108.108 193.524 108.108ZM200.11 109.12H216.11V93.12H200.11V109.12Z" fill="white"/>
</g>
<g filter="url(#filter1_dd_1187_16022)">
<path d="M153 156C153 147.163 160.164 140 169 140H317C325.837 140 333 147.163 333 156V184H169C160.164 184 153 176.837 153 168V156Z" fill="white" shape-rendering="crispEdges"/>
<path d="M169 140.5H317C325.561 140.5 332.5 147.44 332.5 156V183.5H169C160.44 183.5 153.5 176.56 153.5 168V156C153.5 147.44 160.44 140.5 169 140.5Z" stroke="#EAECF0" shape-rendering="crispEdges"/>
<rect x="169" y="152" width="60" height="20" rx="4" fill="#EAECF0"/>
<rect x="237" y="152" width="80" height="20" rx="4" fill="#EAECF0"/>
</g>
<g clip-path="url(#clip3_1187_16022)">
<path d="M55.6565 157.149L52.8377 159.609L53.6821 163.271C53.7268 163.463 53.714 163.663 53.6454 163.847C53.5768 164.032 53.4555 164.192 53.2965 164.307C53.1375 164.423 52.9479 164.489 52.7515 164.498C52.555 164.506 52.3605 164.457 52.1921 164.355L48.9977 162.418L45.8102 164.355C45.6418 164.457 45.4472 164.506 45.2508 164.498C45.0544 164.489 44.8648 164.423 44.7058 164.307C44.5468 164.192 44.4255 164.032 44.3569 163.847C44.2883 163.663 44.2755 163.463 44.3202 163.271L45.1633 159.613L42.344 157.149C42.1948 157.02 42.087 156.85 42.034 156.661C41.981 156.471 41.9851 156.27 42.0459 156.083C42.1067 155.896 42.2215 155.73 42.3758 155.608C42.5301 155.486 42.7171 155.412 42.9133 155.395L46.6296 155.073L48.0802 151.613C48.156 151.432 48.2837 151.277 48.4475 151.168C48.6112 151.058 48.8035 151 49.0002 151C49.1969 151 49.3893 151.058 49.553 151.168C49.7167 151.277 49.8445 151.432 49.9202 151.613L51.3752 155.073L55.0902 155.395C55.2864 155.412 55.4734 155.486 55.6277 155.608C55.782 155.73 55.8968 155.896 55.9576 156.083C56.0184 156.27 56.0226 156.471 55.9695 156.661C55.9165 156.85 55.8087 157.02 55.6596 157.149H55.6565Z" fill="#FDB022"/>
</g>
<g clip-path="url(#clip4_1187_16022)">
<path d="M75.6565 157.149L72.8377 159.609L73.6821 163.271C73.7268 163.463 73.714 163.663 73.6454 163.847C73.5768 164.032 73.4555 164.192 73.2965 164.307C73.1375 164.423 72.9479 164.489 72.7515 164.498C72.555 164.506 72.3605 164.457 72.1921 164.355L68.9977 162.418L65.8102 164.355C65.6418 164.457 65.4472 164.506 65.2508 164.498C65.0544 164.489 64.8648 164.423 64.7058 164.307C64.5468 164.192 64.4255 164.032 64.3569 163.847C64.2883 163.663 64.2755 163.463 64.3202 163.271L65.1633 159.613L62.344 157.149C62.1948 157.02 62.087 156.85 62.034 156.661C61.981 156.471 61.9851 156.27 62.0459 156.083C62.1067 155.896 62.2215 155.73 62.3758 155.608C62.5301 155.486 62.7171 155.412 62.9133 155.395L66.6296 155.073L68.0802 151.613C68.156 151.432 68.2837 151.277 68.4475 151.168C68.6112 151.058 68.8035 151 69.0002 151C69.1969 151 69.3893 151.058 69.553 151.168C69.7167 151.277 69.8445 151.432 69.9202 151.613L71.3752 155.073L75.0902 155.395C75.2864 155.412 75.4734 155.486 75.6277 155.608C75.782 155.73 75.8968 155.896 75.9576 156.083C76.0184 156.27 76.0226 156.471 75.9695 156.661C75.9165 156.85 75.8087 157.02 75.6596 157.149H75.6565Z" fill="#FDB022"/>
</g>
<g clip-path="url(#clip5_1187_16022)">
<path d="M95.6565 157.149L92.8377 159.609L93.6821 163.271C93.7268 163.463 93.714 163.663 93.6454 163.847C93.5768 164.032 93.4555 164.192 93.2965 164.307C93.1375 164.423 92.9479 164.489 92.7515 164.498C92.555 164.506 92.3605 164.457 92.1921 164.355L88.9977 162.418L85.8102 164.355C85.6418 164.457 85.4472 164.506 85.2508 164.498C85.0544 164.489 84.8648 164.423 84.7058 164.307C84.5468 164.192 84.4255 164.032 84.3569 163.847C84.2883 163.663 84.2755 163.463 84.3202 163.271L85.1633 159.613L82.344 157.149C82.1948 157.02 82.087 156.85 82.034 156.661C81.981 156.471 81.9851 156.27 82.0459 156.083C82.1067 155.896 82.2215 155.73 82.3758 155.608C82.5301 155.486 82.7171 155.412 82.9133 155.395L86.6296 155.073L88.0802 151.613C88.156 151.432 88.2837 151.277 88.4475 151.168C88.6112 151.058 88.8035 151 89.0002 151C89.1969 151 89.3893 151.058 89.553 151.168C89.7167 151.277 89.8445 151.432 89.9202 151.613L91.3752 155.073L95.0902 155.395C95.2864 155.412 95.4734 155.486 95.6277 155.608C95.782 155.73 95.8968 155.896 95.9576 156.083C96.0184 156.27 96.0226 156.471 95.9695 156.661C95.9165 156.85 95.8087 157.02 95.6596 157.149H95.6565Z" fill="#FDB022"/>
</g>
<g clip-path="url(#clip6_1187_16022)">
<path d="M115.656 157.149L112.838 159.609L113.682 163.271C113.727 163.463 113.714 163.663 113.645 163.847C113.577 164.032 113.455 164.192 113.296 164.307C113.137 164.423 112.948 164.489 112.751 164.498C112.555 164.506 112.36 164.457 112.192 164.355L108.998 162.418L105.81 164.355C105.642 164.457 105.447 164.506 105.251 164.498C105.054 164.489 104.865 164.423 104.706 164.307C104.547 164.192 104.425 164.032 104.357 163.847C104.288 163.663 104.276 163.463 104.32 163.271L105.163 159.613L102.344 157.149C102.195 157.02 102.087 156.85 102.034 156.661C101.981 156.471 101.985 156.27 102.046 156.083C102.107 155.896 102.222 155.73 102.376 155.608C102.53 155.486 102.717 155.412 102.913 155.395L106.63 155.073L108.08 151.613C108.156 151.432 108.284 151.277 108.447 151.168C108.611 151.058 108.803 151 109 151C109.197 151 109.389 151.058 109.553 151.168C109.717 151.277 109.844 151.432 109.92 151.613L111.375 155.073L115.09 155.395C115.286 155.412 115.473 155.486 115.628 155.608C115.782 155.73 115.897 155.896 115.958 156.083C116.018 156.27 116.023 156.471 115.97 156.661C115.917 156.85 115.809 157.02 115.66 157.149H115.656Z" fill="#FDB022"/>
</g>
<g clip-path="url(#clip7_1187_16022)">
<path d="M135.656 157.149L132.838 159.609L133.682 163.271C133.727 163.463 133.714 163.663 133.645 163.847C133.577 164.032 133.455 164.192 133.296 164.307C133.137 164.423 132.948 164.489 132.751 164.498C132.555 164.506 132.36 164.457 132.192 164.355L128.998 162.418L125.81 164.355C125.642 164.457 125.447 164.506 125.251 164.498C125.054 164.489 124.865 164.423 124.706 164.307C124.547 164.192 124.425 164.032 124.357 163.847C124.288 163.663 124.276 163.463 124.32 163.271L125.163 159.613L122.344 157.149C122.195 157.02 122.087 156.85 122.034 156.661C121.981 156.471 121.985 156.27 122.046 156.083C122.107 155.896 122.222 155.73 122.376 155.608C122.53 155.486 122.717 155.412 122.913 155.395L126.63 155.073L128.08 151.613C128.156 151.432 128.284 151.277 128.447 151.168C128.611 151.058 128.803 151 129 151C129.197 151 129.389 151.058 129.553 151.168C129.717 151.277 129.844 151.432 129.92 151.613L131.375 155.073L135.09 155.395C135.286 155.412 135.473 155.486 135.628 155.608C135.782 155.73 135.897 155.896 135.958 156.083C136.018 156.27 136.023 156.471 135.97 156.661C135.917 156.85 135.809 157.02 135.66 157.149H135.656Z" fill="#FDB022"/>
</g>
</g>
<defs>
<filter id="filter0_dd_1187_16022" x="21.0002" y="80" width="232" height="84" filterUnits="userSpaceOnUse" color-interpolation-filters="sRGB">
<feFlood flood-opacity="0" result="BackgroundImageFix"/>
<feColorMatrix in="SourceAlpha" type="matrix" values="0 0 0 0 0 0 0 0 0 0 0 0 0 0 0 0 0 0 127 0" result="hardAlpha"/>
<feMorphology radius="4" operator="erode" in="SourceAlpha" result="effect1_dropShadow_1187_16022"/>
<feOffset dy="8"/>
<feGaussianBlur stdDeviation="4"/>
<feComposite in2="hardAlpha" operator="out"/>
<feColorMatrix type="matrix" values="0 0 0 0 0.0627451 0 0 0 0 0.0941176 0 0 0 0 0.156863 0 0 0 0.03 0"/>
<feBlend mode="normal" in2="BackgroundImageFix" result="effect1_dropShadow_1187_16022"/>
<feColorMatrix in="SourceAlpha" type="matrix" values="0 0 0 0 0 0 0 0 0 0 0 0 0 0 0 0 0 0 127 0" result="hardAlpha"/>
<feMorphology radius="4" operator="erode" in="SourceAlpha" result="effect2_dropShadow_1187_16022"/>
<feOffset dy="20"/>
<feGaussianBlur stdDeviation="12"/>
<feComposite in2="hardAlpha" operator="out"/>
<feColorMatrix type="matrix" values="0 0 0 0 0.0627451 0 0 0 0 0.0941176 0 0 0 0 0.156863 0 0 0 0.08 0"/>
<feBlend mode="normal" in2="effect1_dropShadow_1187_16022" result="effect2_dropShadow_1187_16022"/>
<feBlend mode="normal" in="SourceGraphic" in2="effect2_dropShadow_1187_16022" result="shape"/>
</filter>
<filter id="filter1_dd_1187_16022" x="133" y="140" width="220" height="84" filterUnits="userSpaceOnUse" color-interpolation-filters="sRGB">
<feFlood flood-opacity="0" result="BackgroundImageFix"/>
<feColorMatrix in="SourceAlpha" type="matrix" values="0 0 0 0 0 0 0 0 0 0 0 0 0 0 0 0 0 0 127 0" result="hardAlpha"/>
<feMorphology radius="4" operator="erode" in="SourceAlpha" result="effect1_dropShadow_1187_16022"/>
<feOffset dy="8"/>
<feGaussianBlur stdDeviation="4"/>
<feComposite in2="hardAlpha" operator="out"/>
<feColorMatrix type="matrix" values="0 0 0 0 0.0627451 0 0 0 0 0.0941176 0 0 0 0 0.156863 0 0 0 0.03 0"/>
<feBlend mode="normal" in2="BackgroundImageFix" result="effect1_dropShadow_1187_16022"/>
<feColorMatrix in="SourceAlpha" type="matrix" values="0 0 0 0 0 0 0 0 0 0 0 0 0 0 0 0 0 0 127 0" result="hardAlpha"/>
<feMorphology radius="4" operator="erode" in="SourceAlpha" result="effect2_dropShadow_1187_16022"/>
<feOffset dy="20"/>
<feGaussianBlur stdDeviation="12"/>
<feComposite in2="hardAlpha" operator="out"/>
<feColorMatrix type="matrix" values="0 0 0 0 0.0627451 0 0 0 0 0.0941176 0 0 0 0 0.156863 0 0 0 0.08 0"/>
<feBlend mode="normal" in2="effect1_dropShadow_1187_16022" result="effect2_dropShadow_1187_16022"/>
<feBlend mode="normal" in="SourceGraphic" in2="effect2_dropShadow_1187_16022" result="shape"/>
</filter>
<linearGradient id="paint0_linear_1187_16022" x1="186.5" y1="0" x2="186.5" y2="200" gradientUnits="userSpaceOnUse">
<stop stop-color="white" stop-opacity="0"/>
<stop offset="1" stop-color="white"/>
</linearGradient>
<linearGradient id="paint1_linear_1187_16022" x1="187" y1="28" x2="187" y2="216" gradientUnits="userSpaceOnUse">
<stop stop-color="#F2F4F7"/>
<stop offset="1" stop-color="#F2F4F7" stop-opacity="0"/>
</linearGradient>
<linearGradient id="paint2_linear_1187_16022" x1="187" y1="28" x2="187" y2="216" gradientUnits="userSpaceOnUse">
<stop stop-color="#EAECF0"/>
<stop offset="1" stop-color="#EAECF0" stop-opacity="0"/>
</linearGradient>
<clipPath id="clip0_1187_16022">
<rect width="373" height="217" fill="white" transform="translate(0.333496)"/>
</clipPath>
<clipPath id="clip1_1187_16022">
<rect x="67.0002" y="28" width="240" height="188" rx="16" fill="white"/>
</clipPath>
<clipPath id="clip2_1187_16022">
<rect x="244" y="71.0004" width="32" height="32" rx="16" fill="white"/>
</clipPath>
<clipPath id="clip3_1187_16022">
<rect width="16" height="16" fill="white" transform="translate(41.0002 150)"/>
</clipPath>
<clipPath id="clip4_1187_16022">
<rect width="16" height="16" fill="white" transform="translate(61.0002 150)"/>
</clipPath>
<clipPath id="clip5_1187_16022">
<rect width="16" height="16" fill="white" transform="translate(81.0002 150)"/>
</clipPath>
<clipPath id="clip6_1187_16022">
<rect width="16" height="16" fill="white" transform="translate(101 150)"/>
</clipPath>
<clipPath id="clip7_1187_16022">
<rect width="16" height="16" fill="white" transform="translate(121 150)"/>
</clipPath>
</defs>
</svg>
