<svg width="373" height="217" viewBox="0 0 373 217" fill="none" xmlns="http://www.w3.org/2000/svg">
<rect width="373" height="217" fill="#F9FAFB"/>
<rect x="15" y="16" width="8" height="8" rx="4" fill="#F2F4F7"/>
<rect x="39" y="16" width="8" height="8" rx="4" fill="#F2F4F7"/>
<rect x="63" y="16" width="8" height="8" rx="4" fill="#F2F4F7"/>
<rect x="87" y="16" width="8" height="8" rx="4" fill="#F2F4F7"/>
<rect x="111" y="16" width="8" height="8" rx="4" fill="#F2F4F7"/>
<rect x="135" y="16" width="8" height="8" rx="4" fill="#F2F4F7"/>
<rect x="159" y="16" width="8" height="8" rx="4" fill="#F2F4F7"/>
<rect x="183" y="16" width="8" height="8" rx="4" fill="#F2F4F7"/>
<rect x="207" y="16" width="8" height="8" rx="4" fill="#F2F4F7"/>
<rect x="231" y="16" width="8" height="8" rx="4" fill="#F2F4F7"/>
<rect x="255" y="16" width="8" height="8" rx="4" fill="#F2F4F7"/>
<rect x="279" y="16" width="8" height="8" rx="4" fill="#F2F4F7"/>
<rect x="303" y="16" width="8" height="8" rx="4" fill="#F2F4F7"/>
<rect x="327" y="16" width="8" height="8" rx="4" fill="#F2F4F7"/>
<rect x="351" y="16" width="8" height="8" rx="4" fill="#F2F4F7"/>
<rect x="15" y="40" width="8" height="8" rx="4" fill="#F2F4F7"/>
<rect x="39" y="40" width="8" height="8" rx="4" fill="#F2F4F7"/>
<rect x="63" y="40" width="8" height="8" rx="4" fill="#F2F4F7"/>
<rect x="87" y="40" width="8" height="8" rx="4" fill="#F2F4F7"/>
<rect x="111" y="40" width="8" height="8" rx="4" fill="#F2F4F7"/>
<rect x="135" y="40" width="8" height="8" rx="4" fill="#F2F4F7"/>
<rect x="159" y="40" width="8" height="8" rx="4" fill="#F2F4F7"/>
<rect x="183" y="40" width="8" height="8" rx="4" fill="#F2F4F7"/>
<rect x="207" y="40" width="8" height="8" rx="4" fill="#F2F4F7"/>
<rect x="231" y="40" width="8" height="8" rx="4" fill="#F2F4F7"/>
<rect x="255" y="40" width="8" height="8" rx="4" fill="#F2F4F7"/>
<rect x="279" y="40" width="8" height="8" rx="4" fill="#F2F4F7"/>
<rect x="303" y="40" width="8" height="8" rx="4" fill="#F2F4F7"/>
<rect x="327" y="40" width="8" height="8" rx="4" fill="#F2F4F7"/>
<rect x="351" y="40" width="8" height="8" rx="4" fill="#F2F4F7"/>
<rect x="15" y="64" width="8" height="8" rx="4" fill="#F2F4F7"/>
<rect x="39" y="64" width="8" height="8" rx="4" fill="#F2F4F7"/>
<rect x="63" y="64" width="8" height="8" rx="4" fill="#F2F4F7"/>
<rect x="87" y="64" width="8" height="8" rx="4" fill="#F2F4F7"/>
<rect x="111" y="64" width="8" height="8" rx="4" fill="#F2F4F7"/>
<rect x="135" y="64" width="8" height="8" rx="4" fill="#F2F4F7"/>
<rect x="159" y="64" width="8" height="8" rx="4" fill="#F2F4F7"/>
<rect x="183" y="64" width="8" height="8" rx="4" fill="#F2F4F7"/>
<rect x="207" y="64" width="8" height="8" rx="4" fill="#F2F4F7"/>
<rect x="231" y="64" width="8" height="8" rx="4" fill="#F2F4F7"/>
<rect x="255" y="64" width="8" height="8" rx="4" fill="#F2F4F7"/>
<rect x="279" y="64" width="8" height="8" rx="4" fill="#F2F4F7"/>
<rect x="303" y="64" width="8" height="8" rx="4" fill="#F2F4F7"/>
<rect x="327" y="64" width="8" height="8" rx="4" fill="#F2F4F7"/>
<rect x="351" y="64" width="8" height="8" rx="4" fill="#F2F4F7"/>
<rect x="15" y="88" width="8" height="8" rx="4" fill="#F2F4F7"/>
<rect x="39" y="88" width="8" height="8" rx="4" fill="#F2F4F7"/>
<rect x="63" y="88" width="8" height="8" rx="4" fill="#F2F4F7"/>
<rect x="87" y="88" width="8" height="8" rx="4" fill="#F2F4F7"/>
<rect x="111" y="88" width="8" height="8" rx="4" fill="#F2F4F7"/>
<rect x="135" y="88" width="8" height="8" rx="4" fill="#F2F4F7"/>
<rect x="159" y="88" width="8" height="8" rx="4" fill="#F2F4F7"/>
<rect x="183" y="88" width="8" height="8" rx="4" fill="#F2F4F7"/>
<rect x="207" y="88" width="8" height="8" rx="4" fill="#F2F4F7"/>
<rect x="231" y="88" width="8" height="8" rx="4" fill="#F2F4F7"/>
<rect x="255" y="88" width="8" height="8" rx="4" fill="#F2F4F7"/>
<rect x="279" y="88" width="8" height="8" rx="4" fill="#F2F4F7"/>
<rect x="303" y="88" width="8" height="8" rx="4" fill="#F2F4F7"/>
<rect x="327" y="88" width="8" height="8" rx="4" fill="#F2F4F7"/>
<rect x="351" y="88" width="8" height="8" rx="4" fill="#F2F4F7"/>
<rect x="15" y="112" width="8" height="8" rx="4" fill="#F2F4F7"/>
<rect x="39" y="112" width="8" height="8" rx="4" fill="#F2F4F7"/>
<rect x="63" y="112" width="8" height="8" rx="4" fill="#F2F4F7"/>
<rect x="87" y="112" width="8" height="8" rx="4" fill="#F2F4F7"/>
<rect x="111" y="112" width="8" height="8" rx="4" fill="#F2F4F7"/>
<rect x="135" y="112" width="8" height="8" rx="4" fill="#F2F4F7"/>
<rect x="159" y="112" width="8" height="8" rx="4" fill="#F2F4F7"/>
<rect x="183" y="112" width="8" height="8" rx="4" fill="#F2F4F7"/>
<rect x="207" y="112" width="8" height="8" rx="4" fill="#F2F4F7"/>
<rect x="231" y="112" width="8" height="8" rx="4" fill="#F2F4F7"/>
<rect x="255" y="112" width="8" height="8" rx="4" fill="#F2F4F7"/>
<rect x="279" y="112" width="8" height="8" rx="4" fill="#F2F4F7"/>
<rect x="303" y="112" width="8" height="8" rx="4" fill="#F2F4F7"/>
<rect x="327" y="112" width="8" height="8" rx="4" fill="#F2F4F7"/>
<rect x="351" y="112" width="8" height="8" rx="4" fill="#F2F4F7"/>
<rect x="15" y="136" width="8" height="8" rx="4" fill="#F2F4F7"/>
<rect x="39" y="136" width="8" height="8" rx="4" fill="#F2F4F7"/>
<rect x="63" y="136" width="8" height="8" rx="4" fill="#F2F4F7"/>
<rect x="87" y="136" width="8" height="8" rx="4" fill="#F2F4F7"/>
<rect x="111" y="136" width="8" height="8" rx="4" fill="#F2F4F7"/>
<rect x="135" y="136" width="8" height="8" rx="4" fill="#F2F4F7"/>
<rect x="159" y="136" width="8" height="8" rx="4" fill="#F2F4F7"/>
<rect x="183" y="136" width="8" height="8" rx="4" fill="#F2F4F7"/>
<rect x="207" y="136" width="8" height="8" rx="4" fill="#F2F4F7"/>
<rect x="231" y="136" width="8" height="8" rx="4" fill="#F2F4F7"/>
<rect x="255" y="136" width="8" height="8" rx="4" fill="#F2F4F7"/>
<rect x="279" y="136" width="8" height="8" rx="4" fill="#F2F4F7"/>
<rect x="303" y="136" width="8" height="8" rx="4" fill="#F2F4F7"/>
<rect x="327" y="136" width="8" height="8" rx="4" fill="#F2F4F7"/>
<rect x="351" y="136" width="8" height="8" rx="4" fill="#F2F4F7"/>
<rect x="15" y="160" width="8" height="8" rx="4" fill="#F2F4F7"/>
<rect x="39" y="160" width="8" height="8" rx="4" fill="#F2F4F7"/>
<rect x="63" y="160" width="8" height="8" rx="4" fill="#F2F4F7"/>
<rect x="87" y="160" width="8" height="8" rx="4" fill="#F2F4F7"/>
<rect x="111" y="160" width="8" height="8" rx="4" fill="#F2F4F7"/>
<rect x="135" y="160" width="8" height="8" rx="4" fill="#F2F4F7"/>
<rect x="159" y="160" width="8" height="8" rx="4" fill="#F2F4F7"/>
<rect x="183" y="160" width="8" height="8" rx="4" fill="#F2F4F7"/>
<rect x="207" y="160" width="8" height="8" rx="4" fill="#F2F4F7"/>
<rect x="231" y="160" width="8" height="8" rx="4" fill="#F2F4F7"/>
<rect x="255" y="160" width="8" height="8" rx="4" fill="#F2F4F7"/>
<rect x="279" y="160" width="8" height="8" rx="4" fill="#F2F4F7"/>
<rect x="303" y="160" width="8" height="8" rx="4" fill="#F2F4F7"/>
<rect x="327" y="160" width="8" height="8" rx="4" fill="#F2F4F7"/>
<rect x="351" y="160" width="8" height="8" rx="4" fill="#F2F4F7"/>
<rect x="15" y="184" width="8" height="8" rx="4" fill="#F2F4F7"/>
<rect x="39" y="184" width="8" height="8" rx="4" fill="#F2F4F7"/>
<rect x="63" y="184" width="8" height="8" rx="4" fill="#F2F4F7"/>
<rect x="87" y="184" width="8" height="8" rx="4" fill="#F2F4F7"/>
<rect x="111" y="184" width="8" height="8" rx="4" fill="#F2F4F7"/>
<rect x="135" y="184" width="8" height="8" rx="4" fill="#F2F4F7"/>
<rect x="159" y="184" width="8" height="8" rx="4" fill="#F2F4F7"/>
<rect x="183" y="184" width="8" height="8" rx="4" fill="#F2F4F7"/>
<rect x="207" y="184" width="8" height="8" rx="4" fill="#F2F4F7"/>
<rect x="231" y="184" width="8" height="8" rx="4" fill="#F2F4F7"/>
<rect x="255" y="184" width="8" height="8" rx="4" fill="#F2F4F7"/>
<rect x="279" y="184" width="8" height="8" rx="4" fill="#F2F4F7"/>
<rect x="303" y="184" width="8" height="8" rx="4" fill="#F2F4F7"/>
<rect x="327" y="184" width="8" height="8" rx="4" fill="#F2F4F7"/>
<rect x="351" y="184" width="8" height="8" rx="4" fill="#F2F4F7"/>
<rect x="15" y="208" width="8" height="8" rx="4" fill="#F2F4F7"/>
<rect x="39" y="208" width="8" height="8" rx="4" fill="#F2F4F7"/>
<rect x="63" y="208" width="8" height="8" rx="4" fill="#F2F4F7"/>
<rect x="87" y="208" width="8" height="8" rx="4" fill="#F2F4F7"/>
<rect x="111" y="208" width="8" height="8" rx="4" fill="#F2F4F7"/>
<rect x="135" y="208" width="8" height="8" rx="4" fill="#F2F4F7"/>
<rect x="159" y="208" width="8" height="8" rx="4" fill="#F2F4F7"/>
<rect x="183" y="208" width="8" height="8" rx="4" fill="#F2F4F7"/>
<rect x="207" y="208" width="8" height="8" rx="4" fill="#F2F4F7"/>
<rect x="231" y="208" width="8" height="8" rx="4" fill="#F2F4F7"/>
<rect x="255" y="208" width="8" height="8" rx="4" fill="#F2F4F7"/>
<rect x="279" y="208" width="8" height="8" rx="4" fill="#F2F4F7"/>
<rect x="303" y="208" width="8" height="8" rx="4" fill="#F2F4F7"/>
<rect x="327" y="208" width="8" height="8" rx="4" fill="#F2F4F7"/>
<rect x="351" y="208" width="8" height="8" rx="4" fill="#F2F4F7"/>
<rect width="373" height="200" transform="translate(0 16)" fill="url(#paint0_linear_1187_15859)"/>
<rect x="67.5" y="28.5" width="239" height="187" rx="15.5" fill="url(#paint1_linear_1187_15859)"/>
<rect x="67.5" y="28.5" width="239" height="187" rx="15.5" stroke="url(#paint2_linear_1187_15859)"/>
<mask id="path-137-inside-1_1187_15859" fill="white">
<path d="M67 28H307V56H67V28Z"/>
</mask>
<path d="M67 28H307V56H67V28Z" fill="white"/>
<path d="M307 55H67V57H307V55Z" fill="#EAECF0" mask="url(#path-137-inside-1_1187_15859)"/>
<rect x="79" y="39" width="6" height="6" rx="3" fill="#F04438"/>
<rect x="89" y="39" width="6" height="6" rx="3" fill="#FEC84B"/>
<rect x="99" y="39" width="6" height="6" rx="3" fill="#17B26A"/>
<rect x="115" y="36" width="180" height="12" rx="4" fill="#F2F4F7"/>
<path d="M149.5 170.5C148.215 170.5 146.958 170.881 145.889 171.595C144.82 172.31 143.987 173.325 143.495 174.513C143.003 175.7 142.874 177.007 143.125 178.268C143.376 179.529 143.995 180.687 144.904 181.596C145.813 182.505 146.971 183.124 148.232 183.375C149.493 183.626 150.8 183.497 151.988 183.005C153.175 182.513 154.19 181.68 154.905 180.611C155.619 179.542 156 178.286 156 177C155.998 175.277 155.313 173.624 154.094 172.406C152.876 171.187 151.223 170.502 149.5 170.5ZM150.25 180H150V180.5C150 180.633 149.947 180.76 149.854 180.854C149.76 180.947 149.633 181 149.5 181C149.368 181 149.24 180.947 149.147 180.854C149.053 180.76 149 180.633 149 180.5V180H148C147.868 180 147.74 179.947 147.647 179.854C147.553 179.76 147.5 179.633 147.5 179.5C147.5 179.367 147.553 179.24 147.647 179.146C147.74 179.053 147.868 179 148 179H150.25C150.449 179 150.64 178.921 150.78 178.78C150.921 178.64 151 178.449 151 178.25C151 178.051 150.921 177.86 150.78 177.72C150.64 177.579 150.449 177.5 150.25 177.5H148.75C148.286 177.5 147.841 177.316 147.513 176.987C147.184 176.659 147 176.214 147 175.75C147 175.286 147.184 174.841 147.513 174.513C147.841 174.184 148.286 174 148.75 174H149V173.5C149 173.367 149.053 173.24 149.147 173.146C149.24 173.053 149.368 173 149.5 173C149.633 173 149.76 173.053 149.854 173.146C149.947 173.24 150 173.367 150 173.5V174H151C151.133 174 151.26 174.053 151.354 174.146C151.447 174.24 151.5 174.367 151.5 174.5C151.5 174.633 151.447 174.76 151.354 174.854C151.26 174.947 151.133 175 151 175H148.75C148.551 175 148.36 175.079 148.22 175.22C148.079 175.36 148 175.551 148 175.75C148 175.949 148.079 176.14 148.22 176.28C148.36 176.421 148.551 176.5 148.75 176.5H150.25C150.714 176.5 151.159 176.684 151.488 177.013C151.816 177.341 152 177.786 152 178.25C152 178.714 151.816 179.159 151.488 179.487C151.159 179.816 150.714 180 150.25 180Z" fill="#155EEF"/>
<path d="M165.033 182.091V171.182H165.732V182.091H165.033ZM167.219 174.565C167.173 174.162 166.986 173.849 166.656 173.628C166.327 173.403 165.912 173.291 165.412 173.291C165.054 173.291 164.744 173.348 164.483 173.462C164.222 173.572 164.018 173.726 163.874 173.922C163.732 174.115 163.661 174.335 163.661 174.582C163.661 174.79 163.709 174.969 163.805 175.119C163.905 175.27 164.034 175.396 164.193 175.499C164.355 175.598 164.528 175.682 164.713 175.75C164.898 175.815 165.075 175.869 165.246 175.912L166.098 176.134C166.376 176.202 166.662 176.294 166.955 176.411C167.247 176.527 167.518 176.68 167.768 176.871C168.018 177.061 168.22 177.297 168.374 177.578C168.53 177.859 168.608 178.196 168.608 178.588C168.608 179.082 168.48 179.521 168.224 179.905C167.972 180.288 167.604 180.591 167.121 180.812C166.641 181.034 166.06 181.145 165.378 181.145C164.724 181.145 164.159 181.041 163.682 180.834C163.205 180.626 162.831 180.332 162.561 179.952C162.291 179.568 162.142 179.114 162.114 178.588H163.435C163.46 178.903 163.563 179.166 163.741 179.376C163.923 179.584 164.155 179.739 164.436 179.841C164.72 179.94 165.031 179.99 165.369 179.99C165.741 179.99 166.072 179.932 166.362 179.815C166.655 179.696 166.885 179.531 167.053 179.321C167.22 179.108 167.304 178.859 167.304 178.575C167.304 178.317 167.23 178.105 167.082 177.94C166.938 177.776 166.74 177.639 166.49 177.531C166.243 177.423 165.963 177.328 165.651 177.246L164.619 176.964C163.92 176.774 163.366 176.494 162.957 176.125C162.551 175.756 162.348 175.267 162.348 174.659C162.348 174.156 162.484 173.717 162.757 173.342C163.03 172.967 163.399 172.676 163.865 172.469C164.331 172.259 164.857 172.153 165.442 172.153C166.033 172.153 166.554 172.257 167.006 172.464C167.46 172.672 167.818 172.957 168.08 173.321C168.341 173.682 168.477 174.097 168.489 174.565H167.219ZM172.964 172.153C173.353 172.156 173.737 172.227 174.115 172.366C174.493 172.506 174.833 172.733 175.137 173.048C175.444 173.364 175.689 173.79 175.87 174.327C176.055 174.861 176.149 175.526 176.152 176.321C176.152 177.085 176.075 177.766 175.922 178.362C175.768 178.956 175.548 179.457 175.261 179.866C174.977 180.276 174.632 180.587 174.225 180.8C173.819 181.013 173.362 181.119 172.853 181.119C172.333 181.119 171.872 181.017 171.468 180.812C171.065 180.608 170.737 180.325 170.484 179.964C170.231 179.601 170.074 179.183 170.011 178.712H171.311C171.396 179.087 171.569 179.391 171.831 179.624C172.095 179.854 172.436 179.969 172.853 179.969C173.493 179.969 173.991 179.69 174.349 179.134C174.707 178.574 174.887 177.793 174.89 176.79H174.822C174.674 177.034 174.49 177.244 174.268 177.42C174.049 177.597 173.804 177.733 173.531 177.83C173.258 177.926 172.967 177.974 172.657 177.974C172.154 177.974 171.697 177.851 171.285 177.604C170.873 177.357 170.545 177.017 170.301 176.585C170.056 176.153 169.934 175.661 169.934 175.107C169.934 174.555 170.059 174.055 170.309 173.607C170.562 173.158 170.914 172.803 171.366 172.541C171.821 172.277 172.353 172.148 172.964 172.153ZM172.968 173.261C172.636 173.261 172.336 173.344 172.069 173.509C171.805 173.67 171.596 173.891 171.443 174.169C171.289 174.445 171.213 174.751 171.213 175.089C171.213 175.428 171.287 175.734 171.434 176.01C171.585 176.283 171.789 176.5 172.048 176.662C172.309 176.821 172.608 176.901 172.943 176.901C173.193 176.901 173.426 176.852 173.642 176.756C173.858 176.659 174.047 176.526 174.208 176.355C174.37 176.182 174.497 175.986 174.588 175.767C174.679 175.548 174.724 175.318 174.724 175.077C174.724 174.756 174.647 174.457 174.494 174.182C174.343 173.906 174.136 173.685 173.872 173.517C173.608 173.347 173.306 173.261 172.968 173.261ZM180.593 172.153C180.982 172.156 181.366 172.227 181.744 172.366C182.121 172.506 182.462 172.733 182.766 173.048C183.073 173.364 183.317 173.79 183.499 174.327C183.684 174.861 183.778 175.526 183.781 176.321C183.781 177.085 183.704 177.766 183.55 178.362C183.397 178.956 183.177 179.457 182.89 179.866C182.606 180.276 182.261 180.587 181.854 180.8C181.448 181.013 180.991 181.119 180.482 181.119C179.962 181.119 179.501 181.017 179.097 180.812C178.694 180.608 178.366 180.325 178.113 179.964C177.86 179.601 177.702 179.183 177.64 178.712H178.94C179.025 179.087 179.198 179.391 179.46 179.624C179.724 179.854 180.065 179.969 180.482 179.969C181.121 179.969 181.62 179.69 181.978 179.134C182.336 178.574 182.516 177.793 182.519 176.79H182.451C182.303 177.034 182.119 177.244 181.897 177.42C181.678 177.597 181.433 177.733 181.16 177.83C180.887 177.926 180.596 177.974 180.286 177.974C179.783 177.974 179.326 177.851 178.914 177.604C178.502 177.357 178.174 177.017 177.93 176.585C177.685 176.153 177.563 175.661 177.563 175.107C177.563 174.555 177.688 174.055 177.938 173.607C178.191 173.158 178.543 172.803 178.995 172.541C179.45 172.277 179.982 172.148 180.593 172.153ZM180.597 173.261C180.265 173.261 179.965 173.344 179.698 173.509C179.434 173.67 179.225 173.891 179.072 174.169C178.918 174.445 178.842 174.751 178.842 175.089C178.842 175.428 178.915 175.734 179.063 176.01C179.214 176.283 179.418 176.5 179.677 176.662C179.938 176.821 180.237 176.901 180.572 176.901C180.822 176.901 181.055 176.852 181.271 176.756C181.487 176.659 181.675 176.526 181.837 176.355C181.999 176.182 182.126 175.986 182.217 175.767C182.308 175.548 182.353 175.318 182.353 175.077C182.353 174.756 182.276 174.457 182.123 174.182C181.972 173.906 181.765 173.685 181.501 173.517C181.237 173.347 180.935 173.261 180.597 173.261ZM188.222 172.153C188.611 172.156 188.995 172.227 189.373 172.366C189.75 172.506 190.091 172.733 190.395 173.048C190.702 173.364 190.946 173.79 191.128 174.327C191.313 174.861 191.407 175.526 191.409 176.321C191.409 177.085 191.333 177.766 191.179 178.362C191.026 178.956 190.806 179.457 190.519 179.866C190.235 180.276 189.89 180.587 189.483 180.8C189.077 181.013 188.62 181.119 188.111 181.119C187.591 181.119 187.13 181.017 186.726 180.812C186.323 180.608 185.995 180.325 185.742 179.964C185.489 179.601 185.331 179.183 185.269 178.712H186.569C186.654 179.087 186.827 179.391 187.088 179.624C187.353 179.854 187.694 179.969 188.111 179.969C188.75 179.969 189.249 179.69 189.607 179.134C189.965 178.574 190.145 177.793 190.148 176.79H190.08C189.932 177.034 189.748 177.244 189.526 177.42C189.307 177.597 189.061 177.733 188.789 177.83C188.516 177.926 188.225 177.974 187.915 177.974C187.412 177.974 186.955 177.851 186.543 177.604C186.131 177.357 185.803 177.017 185.559 176.585C185.314 176.153 185.192 175.661 185.192 175.107C185.192 174.555 185.317 174.055 185.567 173.607C185.82 173.158 186.172 172.803 186.624 172.541C187.078 172.277 187.611 172.148 188.222 172.153ZM188.226 173.261C187.894 173.261 187.594 173.344 187.327 173.509C187.063 173.67 186.854 173.891 186.701 174.169C186.547 174.445 186.471 174.751 186.471 175.089C186.471 175.428 186.544 175.734 186.692 176.01C186.843 176.283 187.047 176.5 187.306 176.662C187.567 176.821 187.865 176.901 188.201 176.901C188.451 176.901 188.684 176.852 188.9 176.756C189.115 176.659 189.304 176.526 189.466 176.355C189.628 176.182 189.755 175.986 189.846 175.767C189.936 175.548 189.982 175.318 189.982 175.077C189.982 174.756 189.905 174.457 189.752 174.182C189.601 173.906 189.394 173.685 189.13 173.517C188.865 173.347 188.564 173.261 188.226 173.261ZM196.29 171.864L193.477 182.312H192.339L195.152 171.864H196.29ZM197.372 181V174.455H198.595V175.52H198.676C198.813 175.159 199.036 174.878 199.345 174.676C199.655 174.472 200.026 174.369 200.457 174.369C200.895 174.369 201.261 174.472 201.557 174.676C201.855 174.881 202.075 175.162 202.217 175.52H202.286C202.442 175.17 202.69 174.892 203.031 174.685C203.372 174.474 203.778 174.369 204.25 174.369C204.844 174.369 205.328 174.555 205.703 174.928C206.081 175.3 206.27 175.861 206.27 176.611V181H204.996V176.73C204.996 176.287 204.875 175.966 204.634 175.767C204.392 175.568 204.104 175.469 203.768 175.469C203.354 175.469 203.031 175.597 202.801 175.852C202.571 176.105 202.456 176.43 202.456 176.828V181H201.186V176.649C201.186 176.294 201.075 176.009 200.854 175.793C200.632 175.577 200.344 175.469 199.989 175.469C199.747 175.469 199.524 175.533 199.32 175.661C199.118 175.786 198.955 175.96 198.83 176.185C198.707 176.409 198.646 176.669 198.646 176.964V181H197.372ZM210.735 181.132C210.121 181.132 209.586 180.991 209.128 180.71C208.671 180.429 208.316 180.036 208.063 179.53C207.81 179.024 207.684 178.433 207.684 177.757C207.684 177.078 207.81 176.484 208.063 175.976C208.316 175.467 208.671 175.072 209.128 174.791C209.586 174.51 210.121 174.369 210.735 174.369C211.348 174.369 211.884 174.51 212.341 174.791C212.799 175.072 213.154 175.467 213.407 175.976C213.659 176.484 213.786 177.078 213.786 177.757C213.786 178.433 213.659 179.024 213.407 179.53C213.154 180.036 212.799 180.429 212.341 180.71C211.884 180.991 211.348 181.132 210.735 181.132ZM210.739 180.062C211.137 180.062 211.466 179.957 211.728 179.747C211.989 179.537 212.182 179.257 212.307 178.908C212.435 178.558 212.499 178.173 212.499 177.753C212.499 177.335 212.435 176.952 212.307 176.602C212.182 176.25 211.989 175.967 211.728 175.754C211.466 175.541 211.137 175.435 210.739 175.435C210.338 175.435 210.006 175.541 209.742 175.754C209.48 175.967 209.286 176.25 209.158 176.602C209.033 176.952 208.971 177.335 208.971 177.753C208.971 178.173 209.033 178.558 209.158 178.908C209.286 179.257 209.48 179.537 209.742 179.747C210.006 179.957 210.338 180.062 210.739 180.062ZM216.482 177.114V181H215.208V174.455H216.431V175.52H216.512C216.663 175.173 216.898 174.895 217.219 174.685C217.543 174.474 217.951 174.369 218.442 174.369C218.888 174.369 219.279 174.463 219.614 174.651C219.95 174.835 220.21 175.111 220.394 175.477C220.579 175.844 220.671 176.297 220.671 176.837V181H219.397V176.99C219.397 176.516 219.273 176.145 219.026 175.878C218.779 175.608 218.44 175.473 218.008 175.473C217.712 175.473 217.45 175.537 217.219 175.665C216.992 175.793 216.812 175.98 216.678 176.227C216.548 176.472 216.482 176.767 216.482 177.114ZM225.435 174.455V175.477H221.86V174.455H225.435ZM222.819 172.886H224.093V179.078C224.093 179.325 224.13 179.511 224.204 179.636C224.278 179.759 224.373 179.842 224.489 179.888C224.609 179.93 224.738 179.952 224.877 179.952C224.979 179.952 225.069 179.945 225.146 179.93C225.222 179.916 225.282 179.905 225.325 179.896L225.555 180.949C225.481 180.977 225.376 181.006 225.239 181.034C225.103 181.065 224.933 181.082 224.728 181.085C224.393 181.091 224.08 181.031 223.79 180.906C223.501 180.781 223.266 180.588 223.087 180.327C222.908 180.065 222.819 179.737 222.819 179.342V172.886ZM228.26 177.114V181H226.985V172.273H228.243V175.52H228.324C228.477 175.168 228.711 174.888 229.027 174.68C229.342 174.473 229.754 174.369 230.262 174.369C230.711 174.369 231.103 174.462 231.439 174.646C231.777 174.831 232.038 175.107 232.223 175.473C232.41 175.837 232.504 176.291 232.504 176.837V181H231.23V176.99C231.23 176.51 231.106 176.138 230.859 175.874C230.612 175.607 230.268 175.473 229.828 175.473C229.527 175.473 229.257 175.537 229.018 175.665C228.782 175.793 228.596 175.98 228.46 176.227C228.326 176.472 228.26 176.767 228.26 177.114Z" fill="#667085"/>
<g filter="url(#filter0_dd_1187_15859)">
<g filter="url(#filter1_d_1187_15859)">
<rect x="45" y="99" width="284" height="50" rx="25" fill="white"/>
<rect x="43.5" y="97.5" width="287" height="53" rx="26.5" stroke="#84ADFF" stroke-width="3"/>
<path d="M91.75 118.75H88.25V116.125C88.25 114.733 87.6969 113.397 86.7123 112.413C85.7277 111.428 84.3924 110.875 83 110.875C81.6076 110.875 80.2723 111.428 79.2877 112.413C78.3031 113.397 77.75 114.733 77.75 116.125V118.75H74.25C73.7859 118.75 73.3408 118.934 73.0126 119.263C72.6844 119.591 72.5 120.036 72.5 120.5V132.75C72.5 133.214 72.6844 133.659 73.0126 133.987C73.3408 134.316 73.7859 134.5 74.25 134.5H91.75C92.2141 134.5 92.6592 134.316 92.9874 133.987C93.3156 133.659 93.5 133.214 93.5 132.75V120.5C93.5 120.036 93.3156 119.591 92.9874 119.263C92.6592 118.934 92.2141 118.75 91.75 118.75ZM79.5 116.125C79.5 115.197 79.8687 114.307 80.5251 113.65C81.1815 112.994 82.0717 112.625 83 112.625C83.9283 112.625 84.8185 112.994 85.4749 113.65C86.1313 114.307 86.5 115.197 86.5 116.125V118.75H79.5V116.125Z" fill="#155EEF"/>
<path d="M109.793 131L106.582 120.091H108.777L110.915 128.102H111.021L113.166 120.091H115.361L117.491 128.067H117.598L119.722 120.091H121.916L118.713 131H116.547L114.331 123.124H114.168L111.952 131H109.793ZM126.297 131L123.086 120.091H125.281L127.419 128.102H127.525L129.67 120.091H131.865L133.995 128.067H134.102L136.225 120.091H138.42L135.217 131H133.051L130.835 123.124H130.672L128.456 131H126.297ZM142.8 131L139.59 120.091H141.785L143.923 128.102H144.029L146.174 120.091H148.369L150.499 128.067H150.606L152.729 120.091H154.924L151.721 131H149.555L147.339 123.124H147.175L144.96 131H142.8ZM156.854 131.135C156.466 131.135 156.132 130.998 155.853 130.723C155.573 130.444 155.434 130.107 155.434 129.714C155.434 129.326 155.573 128.995 155.853 128.72C156.132 128.441 156.466 128.301 156.854 128.301C157.242 128.301 157.576 128.441 157.855 128.72C158.135 128.995 158.275 129.326 158.275 129.714C158.275 129.975 158.208 130.214 158.076 130.432C157.948 130.645 157.777 130.815 157.564 130.943C157.351 131.071 157.114 131.135 156.854 131.135ZM162.461 135.091C162.144 135.091 161.855 135.065 161.595 135.013C161.334 134.965 161.14 134.913 161.012 134.857L161.524 133.116C161.912 133.221 162.258 133.266 162.561 133.251C162.864 133.237 163.131 133.124 163.363 132.911C163.6 132.697 163.808 132.349 163.988 131.866L164.251 131.142L160.26 120.091H162.532L165.295 128.557H165.409L168.172 120.091H170.451L165.956 132.456C165.747 133.024 165.482 133.505 165.16 133.898C164.838 134.295 164.455 134.594 164.01 134.793C163.565 134.991 163.048 135.091 162.461 135.091ZM176.671 131.22C175.648 131.22 174.756 130.986 173.994 130.517C173.231 130.048 172.639 129.393 172.218 128.55C171.797 127.707 171.586 126.722 171.586 125.595C171.586 124.464 171.797 123.474 172.218 122.626C172.639 121.779 173.231 121.121 173.994 120.652C174.756 120.183 175.648 119.949 176.671 119.949C177.694 119.949 178.586 120.183 179.349 120.652C180.111 121.121 180.703 121.779 181.124 122.626C181.546 123.474 181.756 124.464 181.756 125.595C181.756 126.722 181.546 127.707 181.124 128.55C180.703 129.393 180.111 130.048 179.349 130.517C178.586 130.986 177.694 131.22 176.671 131.22ZM176.678 129.438C177.341 129.438 177.89 129.262 178.326 128.912C178.762 128.562 179.084 128.095 179.292 127.513C179.505 126.93 179.612 126.289 179.612 125.588C179.612 124.892 179.505 124.253 179.292 123.67C179.084 123.083 178.762 122.612 178.326 122.257C177.89 121.902 177.341 121.724 176.678 121.724C176.011 121.724 175.457 121.902 175.016 122.257C174.581 122.612 174.256 123.083 174.043 123.67C173.835 124.253 173.731 124.892 173.731 125.588C173.731 126.289 173.835 126.93 174.043 127.513C174.256 128.095 174.581 128.562 175.016 128.912C175.457 129.262 176.011 129.438 176.678 129.438ZM191.037 126.476V120.091H193.168V131H191.08V129.111H190.966C190.715 129.693 190.313 130.179 189.759 130.567C189.21 130.95 188.525 131.142 187.706 131.142C187.006 131.142 186.385 130.988 185.846 130.68C185.31 130.368 184.889 129.906 184.581 129.295C184.278 128.685 184.127 127.929 184.127 127.03V120.091H186.25V126.774C186.25 127.518 186.456 128.109 186.868 128.55C187.28 128.99 187.815 129.21 188.473 129.21C188.871 129.21 189.266 129.111 189.659 128.912C190.057 128.713 190.386 128.412 190.647 128.01C190.912 127.607 191.042 127.096 191.037 126.476ZM196.021 131V120.091H198.074V121.824H198.188C198.386 121.237 198.737 120.775 199.239 120.439C199.745 120.098 200.318 119.928 200.957 119.928C201.09 119.928 201.246 119.932 201.426 119.942C201.611 119.951 201.755 119.963 201.859 119.977V122.009C201.774 121.985 201.623 121.959 201.405 121.93C201.187 121.897 200.969 121.881 200.751 121.881C200.25 121.881 199.802 121.987 199.409 122.2C199.021 122.409 198.713 122.7 198.486 123.074C198.259 123.443 198.145 123.865 198.145 124.338V131H196.021ZM203.868 131V116.455H205.991V121.859H206.119C206.242 121.632 206.42 121.369 206.652 121.071C206.884 120.773 207.206 120.512 207.618 120.29C208.029 120.062 208.574 119.949 209.251 119.949C210.132 119.949 210.918 120.171 211.609 120.616C212.3 121.062 212.842 121.703 213.235 122.541C213.633 123.379 213.832 124.388 213.832 125.567C213.832 126.746 213.636 127.757 213.243 128.599C212.85 129.437 212.31 130.084 211.623 130.538C210.937 130.988 210.153 131.213 209.272 131.213C208.609 131.213 208.067 131.102 207.646 130.879C207.229 130.657 206.903 130.396 206.666 130.098C206.429 129.8 206.247 129.535 206.119 129.303H205.941V131H203.868ZM205.949 125.545C205.949 126.312 206.06 126.985 206.282 127.562C206.505 128.14 206.827 128.592 207.248 128.919C207.67 129.241 208.186 129.402 208.797 129.402C209.431 129.402 209.961 129.234 210.387 128.898C210.814 128.557 211.136 128.095 211.353 127.513C211.576 126.93 211.687 126.275 211.687 125.545C211.687 124.826 211.578 124.179 211.36 123.607C211.147 123.034 210.825 122.581 210.395 122.25C209.968 121.919 209.436 121.753 208.797 121.753C208.181 121.753 207.66 121.911 207.234 122.229C206.813 122.546 206.493 122.989 206.275 123.557C206.057 124.125 205.949 124.788 205.949 125.545ZM216.217 131V120.091H218.269V121.824H218.383C218.582 121.237 218.932 120.775 219.434 120.439C219.941 120.098 220.513 119.928 221.153 119.928C221.285 119.928 221.442 119.932 221.621 119.942C221.806 119.951 221.951 119.963 222.055 119.977V122.009C221.969 121.985 221.818 121.959 221.6 121.93C221.382 121.897 221.165 121.881 220.947 121.881C220.445 121.881 219.997 121.987 219.604 122.2C219.216 122.409 218.908 122.7 218.681 123.074C218.454 123.443 218.34 123.865 218.34 124.338V131H216.217ZM226.969 131.241C226.278 131.241 225.653 131.114 225.094 130.858C224.536 130.598 224.093 130.221 223.766 129.729C223.444 129.236 223.283 128.633 223.283 127.918C223.283 127.302 223.402 126.795 223.638 126.398C223.875 126 224.195 125.685 224.597 125.453C225 125.221 225.45 125.046 225.947 124.928C226.444 124.809 226.951 124.719 227.467 124.658C228.12 124.582 228.65 124.52 229.058 124.473C229.465 124.421 229.761 124.338 229.945 124.224C230.13 124.111 230.222 123.926 230.222 123.67V123.621C230.222 123 230.047 122.52 229.697 122.179C229.351 121.838 228.835 121.668 228.148 121.668C227.433 121.668 226.87 121.826 226.458 122.143C226.051 122.456 225.769 122.804 225.613 123.188L223.617 122.733C223.854 122.07 224.2 121.535 224.654 121.128C225.113 120.716 225.641 120.418 226.238 120.233C226.835 120.044 227.462 119.949 228.12 119.949C228.556 119.949 229.017 120.001 229.505 120.105C229.997 120.205 230.457 120.389 230.883 120.659C231.314 120.929 231.666 121.315 231.941 121.817C232.216 122.314 232.353 122.96 232.353 123.756V131H230.279V129.509H230.194C230.057 129.783 229.851 130.053 229.576 130.318C229.301 130.583 228.949 130.804 228.518 130.979C228.087 131.154 227.571 131.241 226.969 131.241ZM227.431 129.537C228.018 129.537 228.52 129.421 228.937 129.189C229.358 128.957 229.678 128.654 229.896 128.28C230.118 127.901 230.229 127.496 230.229 127.065V125.659C230.154 125.735 230.007 125.806 229.789 125.872C229.576 125.934 229.332 125.988 229.058 126.036C228.783 126.078 228.515 126.118 228.255 126.156C227.995 126.189 227.777 126.218 227.602 126.241C227.19 126.294 226.813 126.381 226.472 126.504C226.136 126.627 225.866 126.805 225.663 127.037C225.464 127.264 225.364 127.567 225.364 127.946C225.364 128.472 225.558 128.869 225.947 129.139C226.335 129.404 226.83 129.537 227.431 129.537ZM237.305 124.523V131H235.181V120.091H237.22V121.866H237.355C237.606 121.289 237.999 120.825 238.534 120.474C239.074 120.124 239.753 119.949 240.572 119.949C241.315 119.949 241.967 120.105 242.525 120.418C243.084 120.725 243.517 121.185 243.825 121.795C244.133 122.406 244.287 123.161 244.287 124.061V131H242.163V124.317C242.163 123.526 241.957 122.908 241.545 122.463C241.133 122.013 240.567 121.788 239.848 121.788C239.355 121.788 238.917 121.895 238.534 122.108C238.155 122.321 237.854 122.634 237.632 123.045C237.414 123.453 237.305 123.945 237.305 124.523ZM251.218 131.213C250.338 131.213 249.552 130.988 248.86 130.538C248.174 130.084 247.634 129.437 247.241 128.599C246.853 127.757 246.659 126.746 246.659 125.567C246.659 124.388 246.855 123.379 247.248 122.541C247.646 121.703 248.19 121.062 248.882 120.616C249.573 120.171 250.357 119.949 251.233 119.949C251.91 119.949 252.454 120.062 252.866 120.29C253.283 120.512 253.605 120.773 253.832 121.071C254.064 121.369 254.244 121.632 254.372 121.859H254.5V116.455H256.623V131H254.549V129.303H254.372C254.244 129.535 254.059 129.8 253.818 130.098C253.581 130.396 253.254 130.657 252.838 130.879C252.421 131.102 251.881 131.213 251.218 131.213ZM251.687 129.402C252.298 129.402 252.814 129.241 253.235 128.919C253.662 128.592 253.984 128.14 254.201 127.562C254.424 126.985 254.535 126.312 254.535 125.545C254.535 124.788 254.426 124.125 254.208 123.557C253.991 122.989 253.671 122.546 253.25 122.229C252.828 121.911 252.307 121.753 251.687 121.753C251.048 121.753 250.515 121.919 250.089 122.25C249.663 122.581 249.341 123.034 249.123 123.607C248.91 124.179 248.804 124.826 248.804 125.545C248.804 126.275 248.913 126.93 249.13 127.513C249.348 128.095 249.67 128.557 250.096 128.898C250.527 129.234 251.057 129.402 251.687 129.402ZM261.053 131.135C260.665 131.135 260.331 130.998 260.052 130.723C259.772 130.444 259.633 130.107 259.633 129.714C259.633 129.326 259.772 128.995 260.052 128.72C260.331 128.441 260.665 128.301 261.053 128.301C261.442 128.301 261.775 128.441 262.055 128.72C262.334 128.995 262.474 129.326 262.474 129.714C262.474 129.975 262.407 130.214 262.275 130.432C262.147 130.645 261.977 130.815 261.763 130.943C261.55 131.071 261.314 131.135 261.053 131.135ZM269.913 131.22C268.857 131.22 267.948 130.981 267.186 130.503C266.429 130.02 265.846 129.355 265.439 128.507C265.032 127.66 264.828 126.689 264.828 125.595C264.828 124.487 265.036 123.509 265.453 122.662C265.87 121.81 266.457 121.144 267.214 120.666C267.972 120.188 268.865 119.949 269.892 119.949C270.721 119.949 271.459 120.103 272.108 120.411C272.757 120.714 273.28 121.14 273.678 121.689C274.08 122.238 274.319 122.88 274.395 123.614H272.328C272.214 123.102 271.954 122.662 271.547 122.293C271.144 121.923 270.605 121.739 269.928 121.739C269.336 121.739 268.817 121.895 268.372 122.207C267.932 122.515 267.589 122.955 267.342 123.528C267.096 124.097 266.973 124.769 266.973 125.545C266.973 126.341 267.094 127.027 267.335 127.605C267.577 128.183 267.918 128.63 268.358 128.947C268.803 129.265 269.326 129.423 269.928 129.423C270.33 129.423 270.695 129.35 271.021 129.203C271.353 129.052 271.63 128.836 271.852 128.557C272.08 128.277 272.238 127.941 272.328 127.548H274.395C274.319 128.254 274.089 128.884 273.706 129.438C273.322 129.991 272.809 130.427 272.165 130.744C271.526 131.062 270.775 131.22 269.913 131.22ZM281.261 131.22C280.238 131.22 279.346 130.986 278.583 130.517C277.821 130.048 277.229 129.393 276.808 128.55C276.386 127.707 276.176 126.722 276.176 125.595C276.176 124.464 276.386 123.474 276.808 122.626C277.229 121.779 277.821 121.121 278.583 120.652C279.346 120.183 280.238 119.949 281.261 119.949C282.284 119.949 283.176 120.183 283.939 120.652C284.701 121.121 285.293 121.779 285.714 122.626C286.136 123.474 286.346 124.464 286.346 125.595C286.346 126.722 286.136 127.707 285.714 128.55C285.293 129.393 284.701 130.048 283.939 130.517C283.176 130.986 282.284 131.22 281.261 131.22ZM281.268 129.438C281.931 129.438 282.48 129.262 282.916 128.912C283.351 128.562 283.673 128.095 283.882 127.513C284.095 126.93 284.201 126.289 284.201 125.588C284.201 124.892 284.095 124.253 283.882 123.67C283.673 123.083 283.351 122.612 282.916 122.257C282.48 121.902 281.931 121.724 281.268 121.724C280.6 121.724 280.047 121.902 279.606 122.257C279.171 122.612 278.846 123.083 278.633 123.67C278.425 124.253 278.321 124.892 278.321 125.588C278.321 126.289 278.425 126.93 278.633 127.513C278.846 128.095 279.171 128.562 279.606 128.912C280.047 129.262 280.6 129.438 281.268 129.438ZM288.717 131V120.091H290.755V121.866H290.89C291.117 121.265 291.489 120.796 292.005 120.46C292.521 120.119 293.139 119.949 293.859 119.949C294.588 119.949 295.199 120.119 295.691 120.46C296.188 120.801 296.555 121.27 296.792 121.866H296.906C297.166 121.284 297.58 120.82 298.148 120.474C298.717 120.124 299.394 119.949 300.18 119.949C301.169 119.949 301.977 120.259 302.602 120.879C303.231 121.5 303.546 122.435 303.546 123.685V131H301.423V123.884C301.423 123.145 301.221 122.61 300.819 122.278C300.416 121.947 299.936 121.781 299.377 121.781C298.686 121.781 298.148 121.994 297.765 122.42C297.381 122.842 297.19 123.384 297.19 124.047V131H295.073V123.749C295.073 123.157 294.888 122.681 294.519 122.321C294.15 121.961 293.669 121.781 293.077 121.781C292.675 121.781 292.303 121.888 291.962 122.101C291.626 122.309 291.354 122.6 291.146 122.974C290.942 123.348 290.84 123.782 290.84 124.274V131H288.717Z" fill="black"/>
</g>
</g>
<defs>
<filter id="filter0_dd_1187_15859" x="22" y="96" width="330" height="96" filterUnits="userSpaceOnUse" color-interpolation-filters="sRGB">
<feFlood flood-opacity="0" result="BackgroundImageFix"/>
<feColorMatrix in="SourceAlpha" type="matrix" values="0 0 0 0 0 0 0 0 0 0 0 0 0 0 0 0 0 0 127 0" result="hardAlpha"/>
<feMorphology radius="4" operator="erode" in="SourceAlpha" result="effect1_dropShadow_1187_15859"/>
<feOffset dy="8"/>
<feGaussianBlur stdDeviation="4"/>
<feComposite in2="hardAlpha" operator="out"/>
<feColorMatrix type="matrix" values="0 0 0 0 0.0627451 0 0 0 0 0.0941176 0 0 0 0 0.156863 0 0 0 0.03 0"/>
<feBlend mode="normal" in2="BackgroundImageFix" result="effect1_dropShadow_1187_15859"/>
<feColorMatrix in="SourceAlpha" type="matrix" values="0 0 0 0 0 0 0 0 0 0 0 0 0 0 0 0 0 0 127 0" result="hardAlpha"/>
<feMorphology radius="4" operator="erode" in="SourceAlpha" result="effect2_dropShadow_1187_15859"/>
<feOffset dy="20"/>
<feGaussianBlur stdDeviation="12"/>
<feComposite in2="hardAlpha" operator="out"/>
<feColorMatrix type="matrix" values="0 0 0 0 0.0627451 0 0 0 0 0.0941176 0 0 0 0 0.156863 0 0 0 0.08 0"/>
<feBlend mode="normal" in2="effect1_dropShadow_1187_15859" result="effect2_dropShadow_1187_15859"/>
<feBlend mode="normal" in="SourceGraphic" in2="effect2_dropShadow_1187_15859" result="shape"/>
</filter>
<filter id="filter1_d_1187_15859" x="37.5" y="91.5" width="299" height="65" filterUnits="userSpaceOnUse" color-interpolation-filters="sRGB">
<feFlood flood-opacity="0" result="BackgroundImageFix"/>
<feColorMatrix in="SourceAlpha" type="matrix" values="0 0 0 0 0 0 0 0 0 0 0 0 0 0 0 0 0 0 127 0" result="hardAlpha"/>
<feMorphology radius="4.5" operator="dilate" in="SourceAlpha" result="effect1_dropShadow_1187_15859"/>
<feOffset/>
<feComposite in2="hardAlpha" operator="out"/>
<feColorMatrix type="matrix" values="0 0 0 0 0.517647 0 0 0 0 0.678431 0 0 0 0 1 0 0 0 0.2 0"/>
<feBlend mode="normal" in2="BackgroundImageFix" result="effect1_dropShadow_1187_15859"/>
<feBlend mode="normal" in="SourceGraphic" in2="effect1_dropShadow_1187_15859" result="shape"/>
</filter>
<linearGradient id="paint0_linear_1187_15859" x1="186.5" y1="0" x2="186.5" y2="200" gradientUnits="userSpaceOnUse">
<stop stop-color="white" stop-opacity="0"/>
<stop offset="1" stop-color="white"/>
</linearGradient>
<linearGradient id="paint1_linear_1187_15859" x1="187" y1="28" x2="187" y2="216" gradientUnits="userSpaceOnUse">
<stop stop-color="#F2F4F7"/>
<stop offset="1" stop-color="#F2F4F7" stop-opacity="0"/>
</linearGradient>
<linearGradient id="paint2_linear_1187_15859" x1="187" y1="28" x2="187" y2="216" gradientUnits="userSpaceOnUse">
<stop stop-color="#EAECF0"/>
<stop offset="1" stop-color="#EAECF0" stop-opacity="0"/>
</linearGradient>
</defs>
</svg>
