<svg width="374" height="217" viewBox="0 0 374 217" fill="none" xmlns="http://www.w3.org/2000/svg">
<g clip-path="url(#clip0_1187_16194)">
<rect width="373" height="217" transform="translate(0.666504)" fill="#F9FAFB"/>
<rect x="16" y="16" width="8" height="8" rx="4" fill="#F2F4F7"/>
<rect x="40" y="16" width="8" height="8" rx="4" fill="#F2F4F7"/>
<rect x="64" y="16" width="8" height="8" rx="4" fill="#F2F4F7"/>
<rect x="88" y="16" width="8" height="8" rx="4" fill="#F2F4F7"/>
<rect x="112" y="16" width="8" height="8" rx="4" fill="#F2F4F7"/>
<rect x="136" y="16" width="8" height="8" rx="4" fill="#F2F4F7"/>
<rect x="160" y="16" width="8" height="8" rx="4" fill="#F2F4F7"/>
<rect x="184" y="16" width="8" height="8" rx="4" fill="#F2F4F7"/>
<rect x="208" y="16" width="8" height="8" rx="4" fill="#F2F4F7"/>
<rect x="232" y="16" width="8" height="8" rx="4" fill="#F2F4F7"/>
<rect x="256" y="16" width="8" height="8" rx="4" fill="#F2F4F7"/>
<rect x="280" y="16" width="8" height="8" rx="4" fill="#F2F4F7"/>
<rect x="304" y="16" width="8" height="8" rx="4" fill="#F2F4F7"/>
<rect x="328" y="16" width="8" height="8" rx="4" fill="#F2F4F7"/>
<rect x="352" y="16" width="8" height="8" rx="4" fill="#F2F4F7"/>
<rect x="16" y="40" width="8" height="8" rx="4" fill="#F2F4F7"/>
<rect x="40" y="40" width="8" height="8" rx="4" fill="#F2F4F7"/>
<rect x="64" y="40" width="8" height="8" rx="4" fill="#F2F4F7"/>
<rect x="88" y="40" width="8" height="8" rx="4" fill="#F2F4F7"/>
<rect x="112" y="40" width="8" height="8" rx="4" fill="#F2F4F7"/>
<rect x="136" y="40" width="8" height="8" rx="4" fill="#F2F4F7"/>
<rect x="160" y="40" width="8" height="8" rx="4" fill="#F2F4F7"/>
<rect x="184" y="40" width="8" height="8" rx="4" fill="#F2F4F7"/>
<rect x="208" y="40" width="8" height="8" rx="4" fill="#F2F4F7"/>
<rect x="232" y="40" width="8" height="8" rx="4" fill="#F2F4F7"/>
<rect x="256" y="40" width="8" height="8" rx="4" fill="#F2F4F7"/>
<rect x="280" y="40" width="8" height="8" rx="4" fill="#F2F4F7"/>
<rect x="304" y="40" width="8" height="8" rx="4" fill="#F2F4F7"/>
<rect x="328" y="40" width="8" height="8" rx="4" fill="#F2F4F7"/>
<rect x="352" y="40" width="8" height="8" rx="4" fill="#F2F4F7"/>
<rect x="16" y="64" width="8" height="8" rx="4" fill="#F2F4F7"/>
<rect x="40" y="64" width="8" height="8" rx="4" fill="#F2F4F7"/>
<rect x="64" y="64" width="8" height="8" rx="4" fill="#F2F4F7"/>
<rect x="88" y="64" width="8" height="8" rx="4" fill="#F2F4F7"/>
<rect x="112" y="64" width="8" height="8" rx="4" fill="#F2F4F7"/>
<rect x="136" y="64" width="8" height="8" rx="4" fill="#F2F4F7"/>
<rect x="160" y="64" width="8" height="8" rx="4" fill="#F2F4F7"/>
<rect x="184" y="64" width="8" height="8" rx="4" fill="#F2F4F7"/>
<rect x="208" y="64" width="8" height="8" rx="4" fill="#F2F4F7"/>
<rect x="232" y="64" width="8" height="8" rx="4" fill="#F2F4F7"/>
<rect x="256" y="64" width="8" height="8" rx="4" fill="#F2F4F7"/>
<rect x="280" y="64" width="8" height="8" rx="4" fill="#F2F4F7"/>
<rect x="304" y="64" width="8" height="8" rx="4" fill="#F2F4F7"/>
<rect x="328" y="64" width="8" height="8" rx="4" fill="#F2F4F7"/>
<rect x="352" y="64" width="8" height="8" rx="4" fill="#F2F4F7"/>
<rect x="16" y="88" width="8" height="8" rx="4" fill="#F2F4F7"/>
<rect x="40" y="88" width="8" height="8" rx="4" fill="#F2F4F7"/>
<rect x="64" y="88" width="8" height="8" rx="4" fill="#F2F4F7"/>
<rect x="88" y="88" width="8" height="8" rx="4" fill="#F2F4F7"/>
<rect x="112" y="88" width="8" height="8" rx="4" fill="#F2F4F7"/>
<rect x="136" y="88" width="8" height="8" rx="4" fill="#F2F4F7"/>
<rect x="160" y="88" width="8" height="8" rx="4" fill="#F2F4F7"/>
<rect x="184" y="88" width="8" height="8" rx="4" fill="#F2F4F7"/>
<rect x="208" y="88" width="8" height="8" rx="4" fill="#F2F4F7"/>
<rect x="232" y="88" width="8" height="8" rx="4" fill="#F2F4F7"/>
<rect x="256" y="88" width="8" height="8" rx="4" fill="#F2F4F7"/>
<rect x="280" y="88" width="8" height="8" rx="4" fill="#F2F4F7"/>
<rect x="304" y="88" width="8" height="8" rx="4" fill="#F2F4F7"/>
<rect x="328" y="88" width="8" height="8" rx="4" fill="#F2F4F7"/>
<rect x="352" y="88" width="8" height="8" rx="4" fill="#F2F4F7"/>
<rect x="16" y="112" width="8" height="8" rx="4" fill="#F2F4F7"/>
<rect x="40" y="112" width="8" height="8" rx="4" fill="#F2F4F7"/>
<rect x="64" y="112" width="8" height="8" rx="4" fill="#F2F4F7"/>
<rect x="88" y="112" width="8" height="8" rx="4" fill="#F2F4F7"/>
<rect x="112" y="112" width="8" height="8" rx="4" fill="#F2F4F7"/>
<rect x="136" y="112" width="8" height="8" rx="4" fill="#F2F4F7"/>
<rect x="160" y="112" width="8" height="8" rx="4" fill="#F2F4F7"/>
<rect x="184" y="112" width="8" height="8" rx="4" fill="#F2F4F7"/>
<rect x="208" y="112" width="8" height="8" rx="4" fill="#F2F4F7"/>
<rect x="232" y="112" width="8" height="8" rx="4" fill="#F2F4F7"/>
<rect x="256" y="112" width="8" height="8" rx="4" fill="#F2F4F7"/>
<rect x="280" y="112" width="8" height="8" rx="4" fill="#F2F4F7"/>
<rect x="304" y="112" width="8" height="8" rx="4" fill="#F2F4F7"/>
<rect x="328" y="112" width="8" height="8" rx="4" fill="#F2F4F7"/>
<rect x="352" y="112" width="8" height="8" rx="4" fill="#F2F4F7"/>
<rect x="16" y="136" width="8" height="8" rx="4" fill="#F2F4F7"/>
<rect x="40" y="136" width="8" height="8" rx="4" fill="#F2F4F7"/>
<rect x="64" y="136" width="8" height="8" rx="4" fill="#F2F4F7"/>
<rect x="88" y="136" width="8" height="8" rx="4" fill="#F2F4F7"/>
<rect x="112" y="136" width="8" height="8" rx="4" fill="#F2F4F7"/>
<rect x="136" y="136" width="8" height="8" rx="4" fill="#F2F4F7"/>
<rect x="160" y="136" width="8" height="8" rx="4" fill="#F2F4F7"/>
<rect x="184" y="136" width="8" height="8" rx="4" fill="#F2F4F7"/>
<rect x="208" y="136" width="8" height="8" rx="4" fill="#F2F4F7"/>
<rect x="232" y="136" width="8" height="8" rx="4" fill="#F2F4F7"/>
<rect x="256" y="136" width="8" height="8" rx="4" fill="#F2F4F7"/>
<rect x="280" y="136" width="8" height="8" rx="4" fill="#F2F4F7"/>
<rect x="304" y="136" width="8" height="8" rx="4" fill="#F2F4F7"/>
<rect x="328" y="136" width="8" height="8" rx="4" fill="#F2F4F7"/>
<rect x="352" y="136" width="8" height="8" rx="4" fill="#F2F4F7"/>
<rect x="16" y="160" width="8" height="8" rx="4" fill="#F2F4F7"/>
<rect x="40" y="160" width="8" height="8" rx="4" fill="#F2F4F7"/>
<rect x="64" y="160" width="8" height="8" rx="4" fill="#F2F4F7"/>
<rect x="88" y="160" width="8" height="8" rx="4" fill="#F2F4F7"/>
<rect x="112" y="160" width="8" height="8" rx="4" fill="#F2F4F7"/>
<rect x="136" y="160" width="8" height="8" rx="4" fill="#F2F4F7"/>
<rect x="160" y="160" width="8" height="8" rx="4" fill="#F2F4F7"/>
<rect x="184" y="160" width="8" height="8" rx="4" fill="#F2F4F7"/>
<rect x="208" y="160" width="8" height="8" rx="4" fill="#F2F4F7"/>
<rect x="232" y="160" width="8" height="8" rx="4" fill="#F2F4F7"/>
<rect x="256" y="160" width="8" height="8" rx="4" fill="#F2F4F7"/>
<rect x="280" y="160" width="8" height="8" rx="4" fill="#F2F4F7"/>
<rect x="304" y="160" width="8" height="8" rx="4" fill="#F2F4F7"/>
<rect x="328" y="160" width="8" height="8" rx="4" fill="#F2F4F7"/>
<rect x="352" y="160" width="8" height="8" rx="4" fill="#F2F4F7"/>
<rect x="16" y="184" width="8" height="8" rx="4" fill="#F2F4F7"/>
<rect x="40" y="184" width="8" height="8" rx="4" fill="#F2F4F7"/>
<rect x="64" y="184" width="8" height="8" rx="4" fill="#F2F4F7"/>
<rect x="88" y="184" width="8" height="8" rx="4" fill="#F2F4F7"/>
<rect x="112" y="184" width="8" height="8" rx="4" fill="#F2F4F7"/>
<rect x="136" y="184" width="8" height="8" rx="4" fill="#F2F4F7"/>
<rect x="160" y="184" width="8" height="8" rx="4" fill="#F2F4F7"/>
<rect x="184" y="184" width="8" height="8" rx="4" fill="#F2F4F7"/>
<rect x="208" y="184" width="8" height="8" rx="4" fill="#F2F4F7"/>
<rect x="232" y="184" width="8" height="8" rx="4" fill="#F2F4F7"/>
<rect x="256" y="184" width="8" height="8" rx="4" fill="#F2F4F7"/>
<rect x="280" y="184" width="8" height="8" rx="4" fill="#F2F4F7"/>
<rect x="304" y="184" width="8" height="8" rx="4" fill="#F2F4F7"/>
<rect x="328" y="184" width="8" height="8" rx="4" fill="#F2F4F7"/>
<rect x="352" y="184" width="8" height="8" rx="4" fill="#F2F4F7"/>
<rect x="16" y="208" width="8" height="8" rx="4" fill="#F2F4F7"/>
<rect x="40" y="208" width="8" height="8" rx="4" fill="#F2F4F7"/>
<rect x="64" y="208" width="8" height="8" rx="4" fill="#F2F4F7"/>
<rect x="88" y="208" width="8" height="8" rx="4" fill="#F2F4F7"/>
<rect x="112" y="208" width="8" height="8" rx="4" fill="#F2F4F7"/>
<rect x="136" y="208" width="8" height="8" rx="4" fill="#F2F4F7"/>
<rect x="160" y="208" width="8" height="8" rx="4" fill="#F2F4F7"/>
<rect x="184" y="208" width="8" height="8" rx="4" fill="#F2F4F7"/>
<rect x="208" y="208" width="8" height="8" rx="4" fill="#F2F4F7"/>
<rect x="232" y="208" width="8" height="8" rx="4" fill="#F2F4F7"/>
<rect x="256" y="208" width="8" height="8" rx="4" fill="#F2F4F7"/>
<rect x="280" y="208" width="8" height="8" rx="4" fill="#F2F4F7"/>
<rect x="304" y="208" width="8" height="8" rx="4" fill="#F2F4F7"/>
<rect x="328" y="208" width="8" height="8" rx="4" fill="#F2F4F7"/>
<rect x="352" y="208" width="8" height="8" rx="4" fill="#F2F4F7"/>
<rect width="373" height="200" transform="translate(1 16)" fill="url(#paint0_linear_1187_16194)"/>
<rect x="68.5" y="28.5" width="239" height="187" rx="15.5" fill="url(#paint1_linear_1187_16194)"/>
<rect x="68.5" y="28.5" width="239" height="187" rx="15.5" stroke="url(#paint2_linear_1187_16194)"/>
<mask id="path-137-inside-1_1187_16194" fill="white">
<path d="M68 28H308V56H68V28Z"/>
</mask>
<path d="M68 28H308V56H68V28Z" fill="white"/>
<path d="M308 55H68V57H308V55Z" fill="#EAECF0" mask="url(#path-137-inside-1_1187_16194)"/>
<rect x="80" y="39" width="6" height="6" rx="3" fill="#F04438"/>
<rect x="90" y="39" width="6" height="6" rx="3" fill="#FEC84B"/>
<rect x="100" y="39" width="6" height="6" rx="3" fill="#17B26A"/>
<rect x="116" y="36" width="180" height="12" rx="4" fill="#F2F4F7"/>
<path d="M153.5 176V181C153.5 181.663 153.237 182.299 152.768 182.768C152.299 183.237 151.663 183.5 151 183.5H147.5C147.367 183.5 147.24 183.447 147.146 183.354C147.053 183.26 147 183.133 147 183C147 182.867 147.053 182.74 147.146 182.646C147.24 182.553 147.367 182.5 147.5 182.5H151C151.398 182.5 151.779 182.342 152.061 182.061C152.342 181.779 152.5 181.398 152.5 181H151C150.602 181 150.221 180.842 149.939 180.561C149.658 180.279 149.5 179.898 149.5 179.5V177C149.5 176.602 149.658 176.221 149.939 175.939C150.221 175.658 150.602 175.5 151 175.5H152.478C152.384 174.461 151.995 173.47 151.358 172.643C150.721 171.816 149.862 171.187 148.882 170.83C147.901 170.473 146.839 170.403 145.819 170.627C144.8 170.851 143.866 171.361 143.125 172.096C142.204 173.005 141.636 174.211 141.523 175.5H143C143.398 175.5 143.779 175.658 144.061 175.939C144.342 176.221 144.5 176.602 144.5 177V179.5C144.5 179.898 144.342 180.279 144.061 180.561C143.779 180.842 143.398 181 143 181H142C141.602 181 141.221 180.842 140.939 180.561C140.658 180.279 140.5 179.898 140.5 179.5V176C140.501 174.712 140.885 173.454 141.602 172.385C142.318 171.315 143.336 170.482 144.527 169.991C145.717 169.501 147.026 169.374 148.289 169.628C149.551 169.881 150.71 170.504 151.618 171.416C152.218 172.019 152.693 172.734 153.016 173.521C153.339 174.307 153.503 175.15 153.5 176Z" fill="#155EEF"/>
<path d="M159.839 180V179.045L162.793 175.986C163.108 175.653 163.368 175.362 163.572 175.112C163.78 174.859 163.935 174.619 164.037 174.392C164.139 174.165 164.19 173.923 164.19 173.668C164.19 173.378 164.122 173.128 163.986 172.918C163.849 172.705 163.663 172.541 163.428 172.428C163.192 172.311 162.926 172.253 162.631 172.253C162.318 172.253 162.045 172.317 161.812 172.445C161.58 172.572 161.401 172.753 161.276 172.986C161.151 173.219 161.088 173.491 161.088 173.804H159.831C159.831 173.273 159.953 172.808 160.197 172.411C160.442 172.013 160.777 171.705 161.203 171.486C161.629 171.264 162.114 171.153 162.656 171.153C163.205 171.153 163.688 171.263 164.105 171.482C164.526 171.697 164.854 171.993 165.089 172.368C165.325 172.74 165.443 173.161 165.443 173.629C165.443 173.953 165.382 174.27 165.26 174.58C165.141 174.889 164.932 175.234 164.634 175.615C164.335 175.993 163.92 176.452 163.389 176.991L161.655 178.807V178.871H165.584V180H159.839ZM166.828 178.295V177.23L170.599 171.273H171.439V172.841H170.906L168.209 177.111V177.179H173.378V178.295H166.828ZM170.966 180V177.972L170.974 177.486V171.273H172.223V180H170.966ZM180.066 178.551L175.165 173.651L175.971 172.845L180.871 177.746L180.066 178.551ZM175.971 178.551L175.165 177.746L180.066 172.845L180.871 173.651L175.971 178.551ZM183.149 180L186.959 172.466V172.402H182.553V171.273H188.322V172.44L184.526 180H183.149ZM197.902 175.053L196.747 175.257C196.699 175.109 196.622 174.969 196.517 174.835C196.415 174.702 196.276 174.592 196.099 174.507C195.923 174.422 195.703 174.379 195.439 174.379C195.078 174.379 194.777 174.46 194.536 174.622C194.294 174.781 194.173 174.987 194.173 175.24C194.173 175.459 194.254 175.635 194.416 175.768C194.578 175.902 194.839 176.011 195.2 176.097L196.24 176.335C196.842 176.474 197.291 176.689 197.587 176.979C197.882 177.268 198.03 177.645 198.03 178.108C198.03 178.5 197.916 178.849 197.689 179.156C197.464 179.46 197.151 179.699 196.747 179.872C196.347 180.045 195.882 180.132 195.354 180.132C194.621 180.132 194.023 179.976 193.56 179.663C193.097 179.348 192.813 178.901 192.707 178.321L193.939 178.134C194.016 178.455 194.173 178.697 194.412 178.862C194.651 179.024 194.962 179.105 195.345 179.105C195.763 179.105 196.097 179.018 196.347 178.845C196.597 178.669 196.722 178.455 196.722 178.202C196.722 177.997 196.645 177.825 196.491 177.686C196.341 177.547 196.109 177.442 195.797 177.371L194.689 177.128C194.078 176.989 193.626 176.767 193.334 176.463C193.044 176.159 192.899 175.774 192.899 175.308C192.899 174.922 193.007 174.584 193.223 174.294C193.439 174.004 193.737 173.778 194.118 173.616C194.499 173.452 194.935 173.369 195.426 173.369C196.134 173.369 196.69 173.523 197.097 173.83C197.503 174.134 197.771 174.541 197.902 175.053ZM203.577 177.286V173.455H204.855V180H203.603V178.866H203.534C203.384 179.216 203.142 179.507 202.81 179.74C202.48 179.97 202.07 180.085 201.578 180.085C201.158 180.085 200.786 179.993 200.462 179.808C200.141 179.621 199.888 179.344 199.703 178.977C199.522 178.611 199.431 178.158 199.431 177.618V173.455H200.705V177.464C200.705 177.911 200.828 178.266 201.076 178.53C201.323 178.794 201.644 178.926 202.039 178.926C202.277 178.926 202.515 178.866 202.75 178.747C202.989 178.628 203.186 178.447 203.343 178.206C203.502 177.964 203.58 177.658 203.577 177.286ZM206.567 182.455V173.455H207.812V174.516H207.918C207.992 174.379 208.099 174.222 208.238 174.043C208.377 173.864 208.57 173.707 208.817 173.574C209.065 173.438 209.391 173.369 209.798 173.369C210.326 173.369 210.798 173.503 211.212 173.77C211.627 174.037 211.952 174.422 212.188 174.925C212.427 175.428 212.546 176.033 212.546 176.74C212.546 177.447 212.428 178.054 212.192 178.56C211.957 179.062 211.633 179.45 211.221 179.723C210.809 179.993 210.339 180.128 209.81 180.128C209.413 180.128 209.087 180.061 208.835 179.928C208.585 179.794 208.388 179.638 208.246 179.459C208.104 179.28 207.995 179.121 207.918 178.982H207.842V182.455H206.567ZM207.816 176.727C207.816 177.187 207.883 177.591 208.016 177.938C208.15 178.284 208.343 178.555 208.596 178.751C208.849 178.945 209.158 179.041 209.525 179.041C209.906 179.041 210.224 178.94 210.479 178.739C210.735 178.534 210.928 178.257 211.059 177.908C211.192 177.558 211.259 177.165 211.259 176.727C211.259 176.295 211.194 175.908 211.063 175.564C210.935 175.22 210.742 174.949 210.484 174.75C210.228 174.551 209.908 174.452 209.525 174.452C209.156 174.452 208.843 174.547 208.587 174.737C208.335 174.928 208.143 175.193 208.012 175.534C207.881 175.875 207.816 176.273 207.816 176.727ZM213.974 182.455V173.455H215.218V174.516H215.325C215.398 174.379 215.505 174.222 215.644 174.043C215.783 173.864 215.977 173.707 216.224 173.574C216.471 173.438 216.798 173.369 217.204 173.369C217.732 173.369 218.204 173.503 218.619 173.77C219.033 174.037 219.359 174.422 219.594 174.925C219.833 175.428 219.952 176.033 219.952 176.74C219.952 177.447 219.835 178.054 219.599 178.56C219.363 179.062 219.039 179.45 218.627 179.723C218.215 179.993 217.745 180.128 217.217 180.128C216.819 180.128 216.494 180.061 216.241 179.928C215.991 179.794 215.795 179.638 215.653 179.459C215.511 179.28 215.401 179.121 215.325 178.982H215.248V182.455H213.974ZM215.222 176.727C215.222 177.187 215.289 177.591 215.423 177.938C215.556 178.284 215.749 178.555 216.002 178.751C216.255 178.945 216.565 179.041 216.931 179.041C217.312 179.041 217.63 178.94 217.886 178.739C218.141 178.534 218.335 178.257 218.465 177.908C218.599 177.558 218.665 177.165 218.665 176.727C218.665 176.295 218.6 175.908 218.469 175.564C218.342 175.22 218.148 174.949 217.89 174.75C217.634 174.551 217.315 174.452 216.931 174.452C216.562 174.452 216.249 174.547 215.994 174.737C215.741 174.928 215.549 175.193 215.418 175.534C215.288 175.875 215.222 176.273 215.222 176.727ZM224.137 180.132C223.523 180.132 222.988 179.991 222.531 179.71C222.073 179.429 221.718 179.036 221.465 178.53C221.212 178.024 221.086 177.433 221.086 176.757C221.086 176.078 221.212 175.484 221.465 174.976C221.718 174.467 222.073 174.072 222.531 173.791C222.988 173.51 223.523 173.369 224.137 173.369C224.751 173.369 225.286 173.51 225.744 173.791C226.201 174.072 226.556 174.467 226.809 174.976C227.062 175.484 227.188 176.078 227.188 176.757C227.188 177.433 227.062 178.024 226.809 178.53C226.556 179.036 226.201 179.429 225.744 179.71C225.286 179.991 224.751 180.132 224.137 180.132ZM224.141 179.062C224.539 179.062 224.869 178.957 225.13 178.747C225.391 178.537 225.585 178.257 225.71 177.908C225.837 177.558 225.901 177.173 225.901 176.753C225.901 176.335 225.837 175.952 225.71 175.602C225.585 175.25 225.391 174.967 225.13 174.754C224.869 174.541 224.539 174.435 224.141 174.435C223.741 174.435 223.408 174.541 223.144 174.754C222.883 174.967 222.688 175.25 222.56 175.602C222.435 175.952 222.373 176.335 222.373 176.753C222.373 177.173 222.435 177.558 222.56 177.908C222.688 178.257 222.883 178.537 223.144 178.747C223.408 178.957 223.741 179.062 224.141 179.062ZM228.61 180V173.455H229.842V174.494H229.91C230.029 174.142 230.24 173.865 230.541 173.663C230.845 173.459 231.189 173.357 231.572 173.357C231.652 173.357 231.745 173.359 231.853 173.365C231.964 173.371 232.051 173.378 232.113 173.386V174.605C232.062 174.591 231.971 174.575 231.841 174.558C231.71 174.538 231.579 174.528 231.449 174.528C231.147 174.528 230.879 174.592 230.643 174.72C230.41 174.845 230.225 175.02 230.089 175.244C229.953 175.466 229.885 175.719 229.885 176.003V180H228.61ZM236.658 173.455V174.477H233.083V173.455H236.658ZM234.042 171.886H235.316V178.078C235.316 178.325 235.353 178.511 235.426 178.636C235.5 178.759 235.596 178.842 235.712 178.888C235.831 178.93 235.961 178.952 236.1 178.952C236.202 178.952 236.292 178.945 236.368 178.93C236.445 178.916 236.505 178.905 236.547 178.896L236.777 179.949C236.703 179.977 236.598 180.006 236.462 180.034C236.326 180.065 236.155 180.082 235.951 180.085C235.615 180.091 235.303 180.031 235.013 179.906C234.723 179.781 234.489 179.588 234.31 179.327C234.131 179.065 234.042 178.737 234.042 178.342V171.886Z" fill="#667085"/>
<rect x="118.5" y="74.5" width="137" height="21" rx="10.5" fill="#EFF4FF"/>
<rect x="118.5" y="74.5" width="137" height="21" rx="10.5" stroke="#B2CCFF"/>
<path d="M126 89.84H138V77.84H126V89.84ZM147.339 80.2727H148.92V85.9744C148.92 86.5994 148.772 87.1491 148.477 87.6236C148.184 88.098 147.772 88.4687 147.241 88.7358C146.71 89 146.089 89.1321 145.379 89.1321C144.665 89.1321 144.043 89 143.512 88.7358C142.981 88.4687 142.569 88.098 142.276 87.6236C141.984 87.1491 141.837 86.5994 141.837 85.9744V80.2727H143.418V85.8423C143.418 86.206 143.498 86.5298 143.657 86.8139C143.819 87.098 144.046 87.321 144.339 87.483C144.631 87.642 144.978 87.7216 145.379 87.7216C145.779 87.7216 146.126 87.642 146.418 87.483C146.714 87.321 146.941 87.098 147.1 86.8139C147.259 86.5298 147.339 86.206 147.339 85.8423V80.2727ZM150.57 91.4545V82.4545H152.087V83.5369H152.176C152.256 83.3778 152.368 83.2088 152.513 83.0298C152.658 82.848 152.854 82.6932 153.101 82.5653C153.348 82.4347 153.664 82.3693 154.047 82.3693C154.553 82.3693 155.009 82.4986 155.415 82.7571C155.824 83.0128 156.148 83.392 156.387 83.8949C156.628 84.3949 156.749 85.0085 156.749 85.7358C156.749 86.4545 156.631 87.0653 156.395 87.5682C156.159 88.071 155.838 88.4545 155.432 88.7188C155.026 88.983 154.566 89.1151 154.051 89.1151C153.676 89.1151 153.365 89.0526 153.118 88.9276C152.871 88.8026 152.672 88.652 152.522 88.4759C152.374 88.2969 152.259 88.1278 152.176 87.9688H152.113V91.4545H150.57ZM152.083 85.7273C152.083 86.1506 152.142 86.5213 152.262 86.8395C152.384 87.1577 152.559 87.4062 152.786 87.5852C153.016 87.7614 153.294 87.8494 153.621 87.8494C153.962 87.8494 154.248 87.7585 154.478 87.5767C154.708 87.392 154.881 87.1406 154.998 86.8224C155.117 86.5014 155.176 86.1364 155.176 85.7273C155.176 85.321 155.118 84.9602 155.002 84.6449C154.885 84.3295 154.712 84.0824 154.482 83.9034C154.252 83.7244 153.965 83.6349 153.621 83.6349C153.292 83.6349 153.012 83.7216 152.782 83.8949C152.551 84.0682 152.377 84.3111 152.257 84.6236C152.141 84.9361 152.083 85.304 152.083 85.7273ZM160.499 89.1151C159.985 89.1151 159.525 88.983 159.118 88.7188C158.712 88.4545 158.391 88.071 158.155 87.5682C157.919 87.0653 157.801 86.4545 157.801 85.7358C157.801 85.0085 157.921 84.3949 158.159 83.8949C158.401 83.392 158.726 83.0128 159.135 82.7571C159.544 82.4986 160 82.3693 160.503 82.3693C160.887 82.3693 161.202 82.4347 161.449 82.5653C161.696 82.6932 161.892 82.848 162.037 83.0298C162.182 83.2088 162.294 83.3778 162.374 83.5369H162.438V80.2727H163.985V89H162.468V87.9688H162.374C162.294 88.1278 162.179 88.2969 162.029 88.4759C161.878 88.652 161.679 88.8026 161.432 88.9276C161.185 89.0526 160.874 89.1151 160.499 89.1151ZM160.929 87.8494C161.256 87.8494 161.534 87.7614 161.765 87.5852C161.995 87.4062 162.169 87.1577 162.289 86.8395C162.408 86.5213 162.468 86.1506 162.468 85.7273C162.468 85.304 162.408 84.9361 162.289 84.6236C162.172 84.3111 161.999 84.0682 161.769 83.8949C161.542 83.7216 161.262 83.6349 160.929 83.6349C160.586 83.6349 160.299 83.7244 160.069 83.9034C159.838 84.0824 159.665 84.3295 159.549 84.6449C159.432 84.9602 159.374 85.321 159.374 85.7273C159.374 86.1364 159.432 86.5014 159.549 86.8224C159.668 87.1406 159.843 87.392 160.073 87.5767C160.306 87.7585 160.591 87.8494 160.929 87.8494ZM167.512 89.1321C167.097 89.1321 166.724 89.0582 166.391 88.9105C166.062 88.7599 165.8 88.5384 165.607 88.2457C165.417 87.9531 165.322 87.5923 165.322 87.1634C165.322 86.794 165.39 86.4886 165.526 86.2472C165.663 86.0057 165.849 85.8125 166.085 85.6676C166.32 85.5227 166.586 85.4134 166.881 85.3395C167.18 85.2628 167.488 85.2074 167.806 85.1733C168.19 85.1335 168.501 85.098 168.739 85.0668C168.978 85.0327 169.151 84.9815 169.259 84.9134C169.37 84.8423 169.425 84.733 169.425 84.5852V84.5597C169.425 84.2386 169.33 83.9901 169.14 83.8139C168.95 83.6378 168.675 83.5497 168.317 83.5497C167.94 83.5497 167.64 83.6321 167.418 83.7969C167.2 83.9616 167.052 84.1562 166.975 84.3807L165.535 84.1761C165.648 83.7784 165.836 83.446 166.097 83.179C166.359 82.9091 166.678 82.7074 167.056 82.5739C167.434 82.4375 167.852 82.3693 168.309 82.3693C168.624 82.3693 168.938 82.4062 169.251 82.4801C169.563 82.554 169.849 82.6761 170.107 82.8466C170.366 83.0142 170.573 83.2429 170.729 83.5327C170.888 83.8224 170.968 84.1847 170.968 84.6193V89H169.485V88.1009H169.434C169.34 88.2827 169.208 88.4531 169.038 88.6122C168.87 88.7685 168.658 88.8949 168.403 88.9915C168.15 89.0852 167.853 89.1321 167.512 89.1321ZM167.913 87.9986C168.222 87.9986 168.491 87.9375 168.718 87.8153C168.945 87.6903 169.12 87.5256 169.242 87.321C169.367 87.1165 169.43 86.8935 169.43 86.652V85.8807C169.381 85.9205 169.299 85.9574 169.183 85.9915C169.069 86.0256 168.941 86.0554 168.799 86.081C168.657 86.1065 168.516 86.1293 168.377 86.1491C168.238 86.169 168.117 86.1861 168.015 86.2003C167.785 86.2315 167.579 86.2827 167.397 86.3537C167.215 86.4247 167.072 86.5241 166.967 86.652C166.862 86.777 166.809 86.9389 166.809 87.1378C166.809 87.4219 166.913 87.6364 167.12 87.7812C167.327 87.9261 167.592 87.9986 167.913 87.9986ZM175.788 82.4545V83.6477H172.025V82.4545H175.788ZM172.954 80.8864H174.496V87.0312C174.496 87.2386 174.528 87.3977 174.59 87.5085C174.656 87.6165 174.741 87.6903 174.846 87.7301C174.951 87.7699 175.067 87.7898 175.195 87.7898C175.292 87.7898 175.38 87.7827 175.46 87.7685C175.542 87.7543 175.604 87.7415 175.647 87.7301L175.907 88.9361C175.825 88.9645 175.707 88.9957 175.553 89.0298C175.403 89.0639 175.218 89.0838 174.999 89.0895C174.613 89.1009 174.265 89.0426 173.955 88.9148C173.646 88.7841 173.4 88.5824 173.218 88.3097C173.039 88.0369 172.951 87.696 172.954 87.2869V80.8864ZM179.905 89.1278C179.249 89.1278 178.682 88.9915 178.205 88.7188C177.73 88.4432 177.365 88.054 177.11 87.5511C176.854 87.0455 176.726 86.4503 176.726 85.7656C176.726 85.0923 176.854 84.5014 177.11 83.9929C177.368 83.4815 177.729 83.0838 178.192 82.7997C178.655 82.5128 179.199 82.3693 179.824 82.3693C180.228 82.3693 180.608 82.4347 180.966 82.5653C181.327 82.6932 181.645 82.892 181.921 83.1619C182.199 83.4318 182.418 83.7756 182.577 84.1932C182.736 84.608 182.816 85.1023 182.816 85.6761V86.1491H177.451V85.1094H181.337C181.334 84.8139 181.27 84.5511 181.145 84.321C181.02 84.0881 180.846 83.9048 180.621 83.7713C180.4 83.6378 180.141 83.571 179.846 83.571C179.53 83.571 179.253 83.6477 179.015 83.8011C178.776 83.9517 178.59 84.1506 178.456 84.3977C178.326 84.642 178.259 84.9105 178.256 85.2031V86.1108C178.256 86.4915 178.326 86.8182 178.465 87.0909C178.604 87.3608 178.799 87.5682 179.049 87.7131C179.299 87.8551 179.591 87.9261 179.926 87.9261C180.151 87.9261 180.354 87.8949 180.536 87.8324C180.718 87.767 180.875 87.6719 181.009 87.5469C181.142 87.4219 181.243 87.267 181.311 87.0824L182.752 87.2443C182.661 87.625 182.488 87.9574 182.232 88.2415C181.979 88.5227 181.655 88.7415 181.26 88.8977C180.865 89.0511 180.414 89.1278 179.905 89.1278ZM189.294 84.1847L187.888 84.3381C187.848 84.196 187.778 84.0625 187.679 83.9375C187.582 83.8125 187.452 83.7116 187.287 83.6349C187.122 83.5582 186.92 83.5199 186.682 83.5199C186.361 83.5199 186.091 83.5895 185.872 83.7287C185.656 83.8679 185.55 84.0483 185.553 84.2699C185.55 84.4602 185.619 84.6151 185.761 84.7344C185.906 84.8537 186.145 84.9517 186.477 85.0284L187.594 85.267C188.213 85.4006 188.673 85.6122 188.974 85.902C189.278 86.1918 189.432 86.571 189.435 87.0398C189.432 87.4517 189.311 87.8153 189.072 88.1307C188.837 88.4432 188.509 88.6875 188.088 88.8636C187.668 89.0398 187.185 89.1278 186.639 89.1278C185.838 89.1278 185.193 88.9602 184.705 88.625C184.216 88.2869 183.925 87.8168 183.831 87.2145L185.335 87.0696C185.403 87.3651 185.548 87.5881 185.77 87.7386C185.991 87.8892 186.28 87.9645 186.635 87.9645C187.001 87.9645 187.295 87.8892 187.517 87.7386C187.741 87.5881 187.854 87.402 187.854 87.1804C187.854 86.9929 187.781 86.8381 187.636 86.7159C187.494 86.5937 187.273 86.5 186.972 86.4347L185.855 86.2003C185.227 86.0696 184.763 85.8494 184.462 85.5398C184.161 85.2273 184.011 84.8324 184.014 84.3551C184.011 83.9517 184.121 83.6023 184.342 83.3068C184.567 83.0085 184.878 82.7784 185.276 82.6165C185.676 82.4517 186.138 82.3693 186.661 82.3693C187.428 82.3693 188.031 82.5327 188.472 82.8594C188.915 83.1861 189.189 83.6278 189.294 84.1847ZM195.567 89.1321C195.152 89.1321 194.778 89.0582 194.446 88.9105C194.116 88.7599 193.855 88.5384 193.662 88.2457C193.472 87.9531 193.376 87.5923 193.376 87.1634C193.376 86.794 193.445 86.4886 193.581 86.2472C193.717 86.0057 193.903 85.8125 194.139 85.6676C194.375 85.5227 194.641 85.4134 194.936 85.3395C195.234 85.2628 195.543 85.2074 195.861 85.1733C196.244 85.1335 196.555 85.098 196.794 85.0668C197.033 85.0327 197.206 84.9815 197.314 84.9134C197.425 84.8423 197.48 84.733 197.48 84.5852V84.5597C197.48 84.2386 197.385 83.9901 197.195 83.8139C197.004 83.6378 196.73 83.5497 196.372 83.5497C195.994 83.5497 195.695 83.6321 195.473 83.7969C195.254 83.9616 195.107 84.1562 195.03 84.3807L193.589 84.1761C193.703 83.7784 193.891 83.446 194.152 83.179C194.413 82.9091 194.733 82.7074 195.111 82.5739C195.489 82.4375 195.906 82.3693 196.364 82.3693C196.679 82.3693 196.993 82.4062 197.305 82.4801C197.618 82.554 197.903 82.6761 198.162 82.8466C198.42 83.0142 198.628 83.2429 198.784 83.5327C198.943 83.8224 199.023 84.1847 199.023 84.6193V89H197.54V88.1009H197.489C197.395 88.2827 197.263 88.4531 197.092 88.6122C196.925 88.7685 196.713 88.8949 196.457 88.9915C196.205 89.0852 195.908 89.1321 195.567 89.1321ZM195.967 87.9986C196.277 87.9986 196.545 87.9375 196.773 87.8153C197 87.6903 197.175 87.5256 197.297 87.321C197.422 87.1165 197.484 86.8935 197.484 86.652V85.8807C197.436 85.9205 197.354 85.9574 197.237 85.9915C197.124 86.0256 196.996 86.0554 196.854 86.081C196.712 86.1065 196.571 86.1293 196.432 86.1491C196.293 86.169 196.172 86.1861 196.07 86.2003C195.839 86.2315 195.634 86.2827 195.452 86.3537C195.27 86.4247 195.126 86.5241 195.021 86.652C194.916 86.777 194.864 86.9389 194.864 87.1378C194.864 87.4219 194.967 87.6364 195.175 87.7812C195.382 87.9261 195.646 87.9986 195.967 87.9986ZM206.186 82.4545L203.855 89H202.151L199.82 82.4545H201.464L202.969 87.3168H203.037L204.545 82.4545H206.186ZM208.95 89.1321C208.535 89.1321 208.161 89.0582 207.829 88.9105C207.499 88.7599 207.238 88.5384 207.045 88.2457C206.854 87.9531 206.759 87.5923 206.759 87.1634C206.759 86.794 206.827 86.4886 206.964 86.2472C207.1 86.0057 207.286 85.8125 207.522 85.6676C207.758 85.5227 208.023 85.4134 208.319 85.3395C208.617 85.2628 208.925 85.2074 209.244 85.1733C209.627 85.1335 209.938 85.098 210.177 85.0668C210.415 85.0327 210.589 84.9815 210.697 84.9134C210.808 84.8423 210.863 84.733 210.863 84.5852V84.5597C210.863 84.2386 210.768 83.9901 210.577 83.8139C210.387 83.6378 210.113 83.5497 209.755 83.5497C209.377 83.5497 209.077 83.6321 208.856 83.7969C208.637 83.9616 208.489 84.1562 208.413 84.3807L206.972 84.1761C207.086 83.7784 207.273 83.446 207.535 83.179C207.796 82.9091 208.116 82.7074 208.494 82.5739C208.871 82.4375 209.289 82.3693 209.746 82.3693C210.062 82.3693 210.376 82.4062 210.688 82.4801C211.001 82.554 211.286 82.6761 211.545 82.8466C211.803 83.0142 212.011 83.2429 212.167 83.5327C212.326 83.8224 212.406 84.1847 212.406 84.6193V89H210.923V88.1009H210.871C210.778 88.2827 210.646 88.4531 210.475 88.6122C210.308 88.7685 210.096 88.8949 209.84 88.9915C209.587 89.0852 209.29 89.1321 208.95 89.1321ZM209.35 87.9986C209.66 87.9986 209.928 87.9375 210.156 87.8153C210.383 87.6903 210.558 87.5256 210.68 87.321C210.805 87.1165 210.867 86.8935 210.867 86.652V85.8807C210.819 85.9205 210.737 85.9574 210.62 85.9915C210.506 86.0256 210.379 86.0554 210.237 86.081C210.094 86.1065 209.954 86.1293 209.815 86.1491C209.675 86.169 209.555 86.1861 209.452 86.2003C209.222 86.2315 209.016 86.2827 208.835 86.3537C208.653 86.4247 208.509 86.5241 208.404 86.652C208.299 86.777 208.246 86.9389 208.246 87.1378C208.246 87.4219 208.35 87.6364 208.558 87.7812C208.765 87.9261 209.029 87.9986 209.35 87.9986ZM213.957 89V82.4545H215.499V89H213.957ZM214.732 81.5256C214.488 81.5256 214.278 81.4446 214.102 81.2827C213.925 81.1179 213.837 80.9205 213.837 80.6903C213.837 80.4574 213.925 80.2599 214.102 80.098C214.278 79.9332 214.488 79.8509 214.732 79.8509C214.979 79.8509 215.19 79.9332 215.363 80.098C215.539 80.2599 215.627 80.4574 215.627 80.6903C215.627 80.9205 215.539 81.1179 215.363 81.2827C215.19 81.4446 214.979 81.5256 214.732 81.5256ZM218.628 80.2727V89H217.086V80.2727H218.628ZM222.098 89.1321C221.683 89.1321 221.31 89.0582 220.977 88.9105C220.648 88.7599 220.386 88.5384 220.193 88.2457C220.003 87.9531 219.908 87.5923 219.908 87.1634C219.908 86.794 219.976 86.4886 220.112 86.2472C220.249 86.0057 220.435 85.8125 220.67 85.6676C220.906 85.5227 221.172 85.4134 221.467 85.3395C221.766 85.2628 222.074 85.2074 222.392 85.1733C222.776 85.1335 223.087 85.098 223.325 85.0668C223.564 85.0327 223.737 84.9815 223.845 84.9134C223.956 84.8423 224.011 84.733 224.011 84.5852V84.5597C224.011 84.2386 223.916 83.9901 223.726 83.8139C223.536 83.6378 223.261 83.5497 222.903 83.5497C222.526 83.5497 222.226 83.6321 222.004 83.7969C221.786 83.9616 221.638 84.1562 221.561 84.3807L220.121 84.1761C220.234 83.7784 220.422 83.446 220.683 83.179C220.945 82.9091 221.264 82.7074 221.642 82.5739C222.02 82.4375 222.438 82.3693 222.895 82.3693C223.21 82.3693 223.524 82.4062 223.837 82.4801C224.149 82.554 224.435 82.6761 224.693 82.8466C224.952 83.0142 225.159 83.2429 225.315 83.5327C225.474 83.8224 225.554 84.1847 225.554 84.6193V89H224.071V88.1009H224.02C223.926 88.2827 223.794 88.4531 223.624 88.6122C223.456 88.7685 223.244 88.8949 222.989 88.9915C222.736 89.0852 222.439 89.1321 222.098 89.1321ZM222.499 87.9986C222.808 87.9986 223.077 87.9375 223.304 87.8153C223.531 87.6903 223.706 87.5256 223.828 87.321C223.953 87.1165 224.016 86.8935 224.016 86.652V85.8807C223.967 85.9205 223.885 85.9574 223.768 85.9915C223.655 86.0256 223.527 86.0554 223.385 86.081C223.243 86.1065 223.102 86.1293 222.963 86.1491C222.824 86.169 222.703 86.1861 222.601 86.2003C222.371 86.2315 222.165 86.2827 221.983 86.3537C221.801 86.4247 221.658 86.5241 221.553 86.652C221.447 86.777 221.395 86.9389 221.395 87.1378C221.395 87.4219 221.499 87.6364 221.706 87.7812C221.913 87.9261 222.178 87.9986 222.499 87.9986ZM227.173 89V80.2727H228.716V83.5369H228.78C228.859 83.3778 228.972 83.2088 229.116 83.0298C229.261 82.848 229.457 82.6932 229.705 82.5653C229.952 82.4347 230.267 82.3693 230.651 82.3693C231.156 82.3693 231.612 82.4986 232.018 82.7571C232.428 83.0128 232.751 83.392 232.99 83.8949C233.232 84.3949 233.352 85.0085 233.352 85.7358C233.352 86.4545 233.234 87.0653 232.999 87.5682C232.763 88.071 232.442 88.4545 232.036 88.7188C231.629 88.983 231.169 89.1151 230.655 89.1151C230.28 89.1151 229.969 89.0526 229.722 88.9276C229.474 88.8026 229.276 88.652 229.125 88.4759C228.977 88.2969 228.862 88.1278 228.78 87.9688H228.69V89H227.173ZM228.686 85.7273C228.686 86.1506 228.746 86.5213 228.865 86.8395C228.987 87.1577 229.162 87.4062 229.389 87.5852C229.619 87.7614 229.898 87.8494 230.224 87.8494C230.565 87.8494 230.851 87.7585 231.081 87.5767C231.311 87.392 231.484 87.1406 231.601 86.8224C231.72 86.5014 231.78 86.1364 231.78 85.7273C231.78 85.321 231.722 84.9602 231.605 84.6449C231.489 84.3295 231.315 84.0824 231.085 83.9034C230.855 83.7244 230.568 83.6349 230.224 83.6349C229.895 83.6349 229.615 83.7216 229.385 83.8949C229.155 84.0682 228.98 84.3111 228.861 84.6236C228.744 84.9361 228.686 85.304 228.686 85.7273ZM236.206 80.2727V89H234.664V80.2727H236.206ZM240.69 89.1278C240.034 89.1278 239.467 88.9915 238.99 88.7188C238.516 88.4432 238.151 88.054 237.895 87.5511C237.639 87.0455 237.511 86.4503 237.511 85.7656C237.511 85.0923 237.639 84.5014 237.895 83.9929C238.153 83.4815 238.514 83.0838 238.977 82.7997C239.44 82.5128 239.984 82.3693 240.609 82.3693C241.013 82.3693 241.393 82.4347 241.751 82.5653C242.112 82.6932 242.43 82.892 242.706 83.1619C242.984 83.4318 243.203 83.7756 243.362 84.1932C243.521 84.608 243.601 85.1023 243.601 85.6761V86.1491H238.236V85.1094H242.122C242.119 84.8139 242.055 84.5511 241.93 84.321C241.805 84.0881 241.631 83.9048 241.406 83.7713C241.185 83.6378 240.926 83.571 240.631 83.571C240.315 83.571 240.038 83.6477 239.8 83.8011C239.561 83.9517 239.375 84.1506 239.241 84.3977C239.111 84.642 239.044 84.9105 239.041 85.2031V86.1108C239.041 86.4915 239.111 86.8182 239.25 87.0909C239.389 87.3608 239.584 87.5682 239.834 87.7131C240.084 87.8551 240.376 87.9261 240.712 87.9261C240.936 87.9261 241.139 87.8949 241.321 87.8324C241.503 87.767 241.661 87.6719 241.794 87.5469C241.928 87.4219 242.028 87.267 242.097 87.0824L243.537 87.2443C243.446 87.625 243.273 87.9574 243.017 88.2415C242.764 88.5227 242.44 88.7415 242.045 88.8977C241.651 89.0511 241.199 89.1278 240.69 89.1278ZM246.794 80.2727L246.653 86.4347H245.281L245.145 80.2727H246.794ZM245.967 89.0938C245.708 89.0938 245.487 89.0028 245.302 88.821C245.12 88.6392 245.029 88.4176 245.029 88.1562C245.029 87.9006 245.12 87.6818 245.302 87.5C245.487 87.3182 245.708 87.2273 245.967 87.2273C246.22 87.2273 246.439 87.3182 246.623 87.5C246.811 87.6818 246.904 87.9006 246.904 88.1562C246.904 88.3295 246.86 88.4872 246.772 88.6293C246.687 88.7713 246.574 88.8849 246.431 88.9702C246.292 89.0526 246.137 89.0938 245.967 89.0938Z" fill="#155EEF"/>
<g filter="url(#filter0_d_1187_16194)">
<rect x="35" y="110" width="148.5" height="44" rx="8" fill="white"/>
<rect x="35.5" y="110.5" width="147.5" height="43" rx="7.5" stroke="#EFF4FF"/>
<path d="M55.0001 121.875C53.5973 121.875 52.2184 122.238 50.9974 122.928C49.7765 123.619 48.7553 124.614 48.033 125.817C47.3108 127.019 46.9122 128.388 46.876 129.791C46.8398 131.193 47.1673 132.581 47.8266 133.819L46.9399 136.479C46.8665 136.699 46.8558 136.936 46.9091 137.161C46.9625 137.387 47.0777 137.594 47.2418 137.758C47.406 137.922 47.6126 138.038 47.8386 138.091C48.0646 138.144 48.3009 138.134 48.5212 138.06L51.1813 137.173C52.271 137.753 53.4784 138.077 54.7118 138.12C55.9453 138.163 57.1724 137.925 58.3 137.423C59.4276 136.921 60.426 136.169 61.2196 135.224C62.0132 134.279 62.5809 133.165 62.8798 131.968C63.1788 130.77 63.2009 129.52 62.9447 128.313C62.6885 127.106 62.1605 125.973 61.401 125C60.6415 124.027 59.6703 123.24 58.5612 122.699C57.4521 122.157 56.2343 121.876 55.0001 121.875ZM57.5001 131.875H52.5001C52.3343 131.875 52.1753 131.809 52.0581 131.692C51.9409 131.575 51.8751 131.416 51.8751 131.25C51.8751 131.084 51.9409 130.925 52.0581 130.808C52.1753 130.691 52.3343 130.625 52.5001 130.625H57.5001C57.6658 130.625 57.8248 130.691 57.942 130.808C58.0592 130.925 58.1251 131.084 58.1251 131.25C58.1251 131.416 58.0592 131.575 57.942 131.692C57.8248 131.809 57.6658 131.875 57.5001 131.875ZM57.5001 129.375H52.5001C52.3343 129.375 52.1753 129.309 52.0581 129.192C51.9409 129.075 51.8751 128.916 51.8751 128.75C51.8751 128.584 51.9409 128.425 52.0581 128.308C52.1753 128.191 52.3343 128.125 52.5001 128.125H57.5001C57.6658 128.125 57.8248 128.191 57.942 128.308C58.0592 128.425 58.1251 128.584 58.1251 128.75C58.1251 128.916 58.0592 129.075 57.942 129.192C57.8248 129.309 57.6658 129.375 57.5001 129.375Z" fill="#155EEF"/>
<rect x="75" y="120" width="98.5" height="10" rx="4" fill="#EAECF0"/>
<rect x="75" y="136" width="75" height="8" rx="4" fill="#EAECF0"/>
</g>
<g filter="url(#filter1_d_1187_16194)">
<rect x="191.5" y="110" width="148.5" height="44" rx="8" fill="white"/>
<rect x="192" y="110.5" width="147.5" height="43" rx="7.5" stroke="#EFF4FF"/>
<path d="M213.192 131.692L211.759 133.125L213.192 134.558C213.25 134.616 213.296 134.685 213.328 134.761C213.359 134.837 213.375 134.918 213.375 135C213.375 135.082 213.359 135.163 213.328 135.239C213.296 135.315 213.25 135.384 213.192 135.442C213.134 135.5 213.065 135.546 212.989 135.578C212.914 135.609 212.832 135.625 212.75 135.625C212.668 135.625 212.587 135.609 212.511 135.578C212.435 135.546 212.366 135.5 212.308 135.442L211.813 134.946L209.992 136.768C209.522 137.236 208.886 137.498 208.224 137.498C207.561 137.498 206.925 137.236 206.456 136.768L206.036 136.348L203.817 138.567C203.759 138.625 203.69 138.671 203.614 138.703C203.539 138.734 203.457 138.75 203.375 138.75C203.293 138.75 203.212 138.734 203.136 138.703C203.06 138.671 202.991 138.625 202.933 138.567C202.875 138.509 202.829 138.44 202.797 138.364C202.766 138.288 202.75 138.207 202.75 138.125C202.75 138.043 202.766 137.962 202.797 137.886C202.829 137.81 202.875 137.741 202.933 137.683L205.152 135.464L204.732 135.045C204.5 134.812 204.316 134.537 204.19 134.233C204.064 133.93 204 133.605 204 133.277C204 132.948 204.064 132.623 204.19 132.32C204.316 132.016 204.5 131.741 204.732 131.509L206.554 129.688L206.058 129.192C205.941 129.075 205.875 128.916 205.875 128.75C205.875 128.584 205.941 128.425 206.058 128.308C206.175 128.191 206.334 128.125 206.5 128.125C206.666 128.125 206.825 128.191 206.942 128.308L208.375 129.741L209.808 128.308C209.925 128.191 210.084 128.125 210.25 128.125C210.416 128.125 210.575 128.191 210.692 128.308C210.81 128.425 210.875 128.584 210.875 128.75C210.875 128.916 210.81 129.075 210.692 129.192L209.259 130.625L210.875 132.241L212.308 130.808C212.425 130.691 212.584 130.625 212.75 130.625C212.916 130.625 213.075 130.691 213.192 130.808C213.31 130.925 213.375 131.084 213.375 131.25C213.375 131.416 213.31 131.575 213.192 131.692ZM220.067 121.433C220.009 121.375 219.94 121.329 219.864 121.297C219.789 121.266 219.707 121.25 219.625 121.25C219.543 121.25 219.462 121.266 219.386 121.297C219.31 121.329 219.241 121.375 219.183 121.433L216.964 123.652L216.545 123.232C216.075 122.764 215.439 122.501 214.777 122.501C214.114 122.501 213.478 122.764 213.009 123.232L211.188 125.054L210.692 124.558C210.575 124.441 210.416 124.375 210.25 124.375C210.084 124.375 209.925 124.441 209.808 124.558C209.691 124.675 209.625 124.834 209.625 125C209.625 125.166 209.691 125.325 209.808 125.442L216.058 131.692C216.116 131.75 216.185 131.796 216.261 131.828C216.337 131.859 216.418 131.875 216.5 131.875C216.582 131.875 216.664 131.859 216.739 131.828C216.815 131.796 216.884 131.75 216.942 131.692C217 131.634 217.046 131.565 217.078 131.489C217.109 131.413 217.125 131.332 217.125 131.25C217.125 131.168 217.109 131.087 217.078 131.011C217.046 130.935 217 130.866 216.942 130.808L216.446 130.313L218.268 128.491C218.5 128.259 218.684 127.984 218.81 127.68C218.936 127.377 219.001 127.052 219.001 126.723C219.001 126.395 218.936 126.07 218.81 125.767C218.684 125.463 218.5 125.188 218.268 124.955L217.848 124.536L220.067 122.317C220.125 122.259 220.172 122.19 220.203 122.114C220.234 122.038 220.251 121.957 220.251 121.875C220.251 121.793 220.234 121.712 220.203 121.636C220.172 121.56 220.125 121.491 220.067 121.433Z" fill="#155EEF"/>
<rect x="231.5" y="120" width="72" height="10" rx="4" fill="#EAECF0"/>
<rect x="231.5" y="136" width="89" height="8" rx="4" fill="#EAECF0"/>
</g>
</g>
<defs>
<filter id="filter0_d_1187_16194" x="33" y="109" width="152.5" height="48" filterUnits="userSpaceOnUse" color-interpolation-filters="sRGB">
<feFlood flood-opacity="0" result="BackgroundImageFix"/>
<feColorMatrix in="SourceAlpha" type="matrix" values="0 0 0 0 0 0 0 0 0 0 0 0 0 0 0 0 0 0 127 0" result="hardAlpha"/>
<feOffset dy="1"/>
<feGaussianBlur stdDeviation="1"/>
<feComposite in2="hardAlpha" operator="out"/>
<feColorMatrix type="matrix" values="0 0 0 0 0.0627451 0 0 0 0 0.0941176 0 0 0 0 0.156863 0 0 0 0.05 0"/>
<feBlend mode="normal" in2="BackgroundImageFix" result="effect1_dropShadow_1187_16194"/>
<feBlend mode="normal" in="SourceGraphic" in2="effect1_dropShadow_1187_16194" result="shape"/>
</filter>
<filter id="filter1_d_1187_16194" x="189.5" y="109" width="152.5" height="48" filterUnits="userSpaceOnUse" color-interpolation-filters="sRGB">
<feFlood flood-opacity="0" result="BackgroundImageFix"/>
<feColorMatrix in="SourceAlpha" type="matrix" values="0 0 0 0 0 0 0 0 0 0 0 0 0 0 0 0 0 0 127 0" result="hardAlpha"/>
<feOffset dy="1"/>
<feGaussianBlur stdDeviation="1"/>
<feComposite in2="hardAlpha" operator="out"/>
<feColorMatrix type="matrix" values="0 0 0 0 0.0627451 0 0 0 0 0.0941176 0 0 0 0 0.156863 0 0 0 0.05 0"/>
<feBlend mode="normal" in2="BackgroundImageFix" result="effect1_dropShadow_1187_16194"/>
<feBlend mode="normal" in="SourceGraphic" in2="effect1_dropShadow_1187_16194" result="shape"/>
</filter>
<linearGradient id="paint0_linear_1187_16194" x1="186.5" y1="0" x2="186.5" y2="200" gradientUnits="userSpaceOnUse">
<stop stop-color="white" stop-opacity="0"/>
<stop offset="1" stop-color="white"/>
</linearGradient>
<linearGradient id="paint1_linear_1187_16194" x1="188" y1="28" x2="188" y2="216" gradientUnits="userSpaceOnUse">
<stop stop-color="#F2F4F7"/>
<stop offset="1" stop-color="#F2F4F7" stop-opacity="0"/>
</linearGradient>
<linearGradient id="paint2_linear_1187_16194" x1="188" y1="28" x2="188" y2="216" gradientUnits="userSpaceOnUse">
<stop stop-color="#EAECF0"/>
<stop offset="1" stop-color="#EAECF0" stop-opacity="0"/>
</linearGradient>
<clipPath id="clip0_1187_16194">
<rect width="373" height="217" fill="white" transform="translate(0.666504)"/>
</clipPath>
</defs>
</svg>
