<svg width="257" height="256" viewBox="0 0 257 256" fill="none" xmlns="http://www.w3.org/2000/svg">
<path d="M164.967 67.3357C164.583 66.9325 164.504 67.2077 163.072 67.5777C162.449 67.7385 161.803 67.7858 161.163 67.7172C157.272 67.4804 156.683 62.2042 156.503 58.2068L156.096 55.4957C156.105 55.4158 156.097 55.3349 156.073 55.2581C156.049 55.1813 156.01 55.1103 155.957 55.0497C155.904 54.9891 155.839 54.9402 155.766 54.9061C155.693 54.872 155.614 54.8535 155.534 54.8517C155.453 54.8499 155.374 54.8649 155.299 54.8957C155.225 54.9266 155.158 54.9726 155.102 55.0307C155.047 55.0889 155.004 55.1581 154.977 55.2337C154.949 55.3094 154.938 55.3899 154.944 55.4701C154.168 60.2369 154.727 67.9438 159.664 69.3031C159.819 70.9006 159.792 70.5831 160.135 73.1342C160.144 73.2912 160.214 73.4384 160.332 73.5434C160.449 73.6484 160.602 73.7026 160.759 73.6942C160.916 73.6857 161.064 73.6152 161.169 73.4981C161.274 73.3811 161.328 73.2272 161.319 73.0701L161.394 69.7229C162.211 69.7934 163.032 69.6505 163.777 69.3082C164.438 68.8845 165.501 67.9002 164.967 67.3357Z" fill="#002266"/>
<path d="M168.772 47.7082C167.114 46.6433 165.181 46.0858 163.211 46.1043C159.931 33.1981 143.549 39.7466 146.443 47.4278C147.429 50.0224 149.615 51.2678 152.03 52.2125C156.208 54.0048 160.824 54.5141 165.291 53.6755C165.56 55.4073 166.275 57.0394 167.365 58.4115C167.451 58.5076 167.562 58.5784 167.685 58.6165C167.808 58.6546 167.94 58.6585 168.065 58.6278C168.481 58.5139 169.234 59.1296 169.505 59.6723C169.641 59.9866 169.703 60.3282 169.686 60.6704C169.668 61.0126 169.572 61.3461 169.404 61.6448C168.714 63.0835 167.356 62.7878 167.356 63.9104C167.411 66.5748 167.735 69.2267 168.324 71.8259C168.335 71.9828 168.409 72.1285 168.528 72.231C168.648 72.3335 168.803 72.3844 168.96 72.3725C169.117 72.3606 169.262 72.2869 169.365 72.1676C169.467 72.0483 169.518 71.8932 169.506 71.7363C169.558 67.4278 169.367 66.711 169.328 64.4954C170.31 63.9548 171.05 63.0605 171.396 61.9943C171.742 60.9282 171.669 59.7702 171.192 58.7558C172.683 54.4064 171.419 49.888 168.772 47.7082Z" fill="#002266"/>
<path d="M163.462 56.9998C163.92 56.9998 164.289 57.5604 164.289 58.2478C164.289 58.9351 163.92 59.4945 163.462 59.4945C163.004 59.4945 162.635 58.9338 162.635 58.2478C162.635 57.5617 163.004 56.9998 163.462 56.9998Z" fill="#002266"/>
<path d="M159.883 60.4853C160.605 60.5352 161.262 60.5006 161.309 61.1099C161.344 61.5605 161.046 61.7269 159.773 62.1339C159.227 62.3285 158.73 62.4885 158.296 62.1083C158.104 61.9298 157.99 61.6829 157.979 61.4209C157.953 60.8987 157.915 60.3649 157.915 59.8171C157.915 57.2392 158.99 56.2113 159.519 56.3944C160.24 56.6734 159.883 58.1979 159.883 60.4853Z" fill="#002266"/>
<path d="M190.561 79.058C186.515 75.8759 182.774 72.7706 177.568 71.6762C175.666 71.4195 173.749 71.2963 171.83 71.3076C171.679 72.6886 171.227 74.0198 170.505 75.2072C169.784 76.3946 168.811 77.4093 167.655 78.1799C163.214 80.6862 158.183 77.467 156.749 73.0894C147.973 73.0036 132.531 86.9953 131.997 105.171C134.657 104.559 137.373 105.998 139.632 107.219C143.26 109.166 146.989 110.885 150.552 112.933C151.809 109.842 153.478 106.936 155.515 104.293C158.079 105.977 160.467 107.916 162.642 110.08C166.765 108.731 174.349 105.589 174.349 105.589C176.934 104.555 179.711 104.092 182.492 104.23C185.272 104.368 187.99 105.105 190.46 106.39C195.911 101.612 198.095 92.9242 203.248 89.4644C203.248 89.257 198.121 84.9844 190.561 79.058Z" fill="#155EEF"/>
<path d="M148.05 93.8237C148.79 96.2039 149.922 98.4446 151.397 100.454C153.12 102.67 153.573 103.18 154.095 102.846C154.607 102.482 154.4 102.086 152.949 99.4493C151.722 97.4898 150.683 95.419 149.844 93.2643C148.984 91.1536 148.804 91.0294 148.381 91.1139C147.596 91.2726 147.887 93.2182 148.05 93.8237Z" fill="#002266"/>
<path d="M184.266 111.338C185.851 111.259 187.422 111.677 188.757 112.535C188.881 112.626 189.036 112.666 189.188 112.645C189.34 112.625 189.479 112.547 189.574 112.426C189.67 112.306 189.715 112.153 189.701 112C189.686 111.847 189.613 111.706 189.496 111.606C188.809 110.927 187.957 110.439 187.025 110.189C186.092 109.939 185.11 109.937 184.176 110.181C183.312 110.487 183.609 111.328 184.266 111.338Z" fill="#002266"/>
<path d="M181.108 115.391C182.805 115.164 184.532 115.321 186.16 115.849C186.302 115.916 186.464 115.925 186.611 115.874C186.759 115.823 186.881 115.716 186.951 115.576C187.021 115.436 187.033 115.275 186.986 115.126C186.938 114.977 186.834 114.853 186.696 114.78C185.836 114.188 184.837 113.831 183.796 113.744C182.756 113.656 181.711 113.843 180.765 114.283C180.089 114.67 180.294 115.456 181.108 115.391Z" fill="#002266"/>
<path d="M224.581 117.827C226.129 117.109 227.467 116.005 228.465 114.621C229.464 113.237 230.089 111.62 230.282 109.924C230.351 109.028 230.446 106.737 229.543 106.806C228.887 106.833 229.021 107.492 228.806 108.714C228.517 110.364 227.884 111.934 226.947 113.322C226.093 114.494 224.995 115.466 223.728 116.173C221.972 117.26 221.53 117.388 221.692 117.942C221.92 118.753 224.017 118.078 224.581 117.827Z" fill="#002266"/>
<path d="M235.484 112.041C235.847 110.891 236.049 109.696 236.083 108.49C236.134 107.723 236.034 106.954 235.79 106.226C235.419 105.238 235.107 104.472 234.51 104.673C233.881 104.9 234.282 105.134 234.14 108.385C234.038 109.45 233.873 110.508 233.644 111.553C233.575 111.918 233.35 113.565 234 113.755C234.643 113.975 235.331 112.5 235.484 112.041Z" fill="#002266"/>
<path d="M240.61 107.54C240.672 106.115 240.337 104.701 239.643 103.454C239.059 102.592 238.519 101.842 237.963 102.195C237.492 102.473 237.721 102.974 237.963 103.659C238.053 103.977 238.103 104.299 238.192 104.626C238.474 105.565 238.624 106.539 238.638 107.52C238.646 107.698 238.51 109.952 239.184 110.141C239.859 110.331 240.563 108.9 240.61 107.54Z" fill="#002266"/>
<path d="M54.666 63.2946C57.0187 63.0847 59.8616 63.1666 61.9838 63.1922C68.3044 63.292 91.3892 63.0284 99.9998 63.205C100.157 63.2135 100.311 63.1593 100.428 63.0542C100.545 62.9492 100.615 62.802 100.624 62.645C100.632 62.488 100.578 62.334 100.473 62.217C100.368 62.1 100.221 62.0295 100.064 62.021C96.0011 61.6818 91.795 61.3592 87.6939 61.2325C79.1665 60.9765 60.5144 61.3503 60.3595 61.3605C58.3876 61.4822 56.4271 61.7461 54.4932 62.1503C54.3493 62.1816 54.2226 62.2665 54.139 62.3878C54.0554 62.5092 54.0211 62.6578 54.0431 62.8035C54.0651 62.9492 54.1417 63.081 54.2574 63.1722C54.3731 63.2635 54.5192 63.3072 54.666 63.2946Z" fill="#002266"/>
<path d="M31.9919 81.6639C42.173 81.8418 51.8716 82.7442 68.5999 82.0069C90.1794 81.0469 102.242 80.5721 110.048 80.6079C114.462 80.59 118.864 80.0959 123.398 80.3519C123.555 80.3639 123.711 80.313 123.831 80.2103C123.951 80.1076 124.026 79.9615 124.038 79.8041C124.047 79.6472 123.995 79.4929 123.893 79.3735C123.791 79.2541 123.647 79.179 123.49 79.1641C119.019 78.7468 114.543 79.0885 110.077 78.9605C90.2217 78.5074 68.9353 80.1906 57.5842 80.3097C53.3333 80.3481 34.1308 80.4377 31.9919 80.4876C31.8359 80.4876 31.6863 80.5496 31.576 80.6599C31.4657 80.7702 31.4037 80.9198 31.4037 81.0757C31.4037 81.2317 31.4657 81.3813 31.576 81.4916C31.6863 81.6019 31.8359 81.6639 31.9919 81.6639Z" fill="#002266"/>
<path d="M31.7002 103.622C37.4973 103.723 39.5594 104.098 49.9863 104.207C71.9306 104.481 88.2186 102.565 109.762 102.565C114.176 102.547 118.584 102.053 123.111 102.309C123.266 102.316 123.416 102.262 123.532 102.16C123.647 102.057 123.718 101.914 123.73 101.76C123.741 101.606 123.692 101.453 123.593 101.335C123.494 101.216 123.353 101.141 123.2 101.125C118.71 100.701 114.178 101.06 109.788 100.934C96.0753 100.55 85.8173 101.208 68.2378 101.99C57.4461 102.48 37.9389 102.274 31.7156 102.461C31.6393 102.46 31.5635 102.473 31.4925 102.501C31.4215 102.529 31.3568 102.571 31.3023 102.624C31.2477 102.677 31.2042 102.741 31.1746 102.811C31.1449 102.882 31.1295 102.957 31.1293 103.033C31.1286 103.187 31.188 103.334 31.2947 103.444C31.4014 103.554 31.547 103.618 31.7002 103.622Z" fill="#002266"/>
<path d="M32.0483 125.605C37.0659 125.7 50.9347 126.73 68.6563 125.95C74.4727 125.682 105.956 124.333 110.104 124.32C110.261 124.32 110.413 124.259 110.526 124.15C110.64 124.041 110.707 123.892 110.715 123.735C110.716 123.579 110.655 123.428 110.545 123.316C110.436 123.204 110.286 123.14 110.13 123.137C104.568 122.958 99.0218 122.911 93.4896 122.997C90.1616 123.061 61.2938 124.219 57.6407 124.245C53.5562 124.282 33.7674 124.384 32.0496 124.435C31.8945 124.435 31.7457 124.497 31.636 124.607C31.5263 124.716 31.4647 124.865 31.4647 125.02C31.4647 125.175 31.5263 125.324 31.636 125.434C31.7457 125.544 31.8945 125.605 32.0496 125.605H32.0483Z" fill="#002266"/>
<path d="M31.6259 146.628C36.431 146.728 50.9693 147.744 68.2339 146.984C74.0502 146.703 105.533 145.367 109.682 145.341C109.84 145.343 109.992 145.283 110.106 145.174C110.22 145.064 110.287 144.914 110.292 144.756C110.293 144.6 110.232 144.449 110.122 144.338C110.013 144.226 109.864 144.161 109.707 144.159C87.6912 143.453 75.041 145.092 57.2272 145.279C53.1312 145.304 33.3411 145.418 31.6362 145.469C31.56 145.468 31.4842 145.481 31.4133 145.509C31.3424 145.537 31.2778 145.579 31.2233 145.632C31.1688 145.686 31.1255 145.749 31.096 145.82C31.0664 145.89 31.0512 145.965 31.0512 146.042C31.0512 146.195 31.1114 146.342 31.2188 146.452C31.3263 146.562 31.4725 146.625 31.6259 146.628Z" fill="#002266"/>
<path d="M73.8827 171.437C73.7931 171.341 73.6855 171.264 73.566 171.211C73.4466 171.157 73.3176 171.127 73.1867 171.124C73.0557 171.12 72.9254 171.143 72.8032 171.19C72.681 171.237 72.5693 171.308 72.4747 171.399C70.4745 173.023 68.5925 174.787 66.8427 176.679C64.8499 174.644 62.3184 173.22 59.5449 172.573C56.7715 171.927 53.8712 172.084 51.1841 173.027C48.497 173.97 46.1345 175.66 44.3737 177.898C42.6129 180.137 41.5267 182.83 41.2427 185.664C41.0329 187.673 41.2216 189.704 41.7979 191.641C42.3742 193.577 43.3269 195.38 44.6012 196.948C45.8756 198.516 47.4467 199.816 49.2245 200.776C51.0023 201.735 52.9519 202.335 54.9617 202.54C67.8603 203.879 76.5412 189.47 68.8497 179.059C70.3947 177.139 72.0843 174.823 73.852 172.837C74.0398 172.655 74.1483 172.405 74.1541 172.143C74.1598 171.881 74.0623 171.628 73.8827 171.437ZM68.6846 188.478C68.4703 190.459 67.7723 192.357 66.6521 194.005C65.5319 195.653 64.0238 197.001 62.2605 197.929C60.4971 198.858 58.5327 199.339 56.5399 199.33C54.5471 199.32 52.5871 198.822 50.8323 197.877C49.0775 196.933 47.5817 195.572 46.4765 193.914C45.3713 192.255 44.6906 190.351 44.4943 188.368C44.298 186.385 44.592 184.384 45.3506 182.541C46.1092 180.698 47.309 179.07 48.8446 177.8C51.1856 175.836 54.1626 174.793 57.2175 174.867C60.2723 174.941 63.1953 176.127 65.4385 178.202C62.4823 181.349 59.7262 184.679 57.1864 188.172C56.4184 187.228 54.3819 185.091 53.6228 184.126C53.5585 184.014 53.4728 183.915 53.3706 183.837C53.2683 183.758 53.1516 183.7 53.027 183.666C52.9023 183.632 52.7723 183.624 52.6443 183.64C52.5162 183.657 52.3927 183.698 52.2808 183.763C52.1688 183.827 52.0706 183.913 51.9918 184.015C51.913 184.117 51.8551 184.234 51.8214 184.359C51.7877 184.483 51.7788 184.613 51.7954 184.741C51.812 184.869 51.8536 184.993 51.9179 185.105C52.9344 187.601 54.3341 189.924 56.0664 191.99C56.2309 192.199 56.444 192.365 56.6872 192.474C56.9304 192.582 57.1964 192.63 57.4621 192.612C57.7278 192.594 57.9852 192.512 58.2119 192.372C58.4387 192.233 58.6279 192.04 58.7633 191.811C60.8868 188.252 64.4529 184.417 67.402 180.83C68.6158 183.183 69.0629 185.857 68.6808 188.478H68.6846Z" fill="#155EEF"/>
<path d="M32.2903 168.331C32.6564 175.726 33.0711 175.032 32.4183 180.166C32.43 180.426 32.338 180.68 32.1626 180.872C31.9871 181.064 31.7425 181.179 31.4826 181.19C31.2228 181.202 30.9689 181.11 30.7768 180.935C30.5848 180.759 30.4703 180.515 30.4586 180.255C29.9966 178.176 29.2068 176.142 28.8945 166.612C28.8874 166.376 28.931 166.14 29.0223 165.921C29.1137 165.703 29.2506 165.506 29.424 165.345C29.5974 165.184 29.8033 165.061 30.0278 164.986C30.2524 164.91 30.4905 164.883 30.7262 164.907C34.154 165.291 37.6382 164.759 43.2612 165.137C43.3918 165.132 43.5219 165.154 43.6441 165.201C43.7662 165.247 43.8778 165.317 43.9725 165.407C44.0672 165.497 44.1431 165.605 44.1956 165.725C44.2482 165.845 44.2765 165.974 44.2788 166.104C44.2844 166.234 44.2641 166.364 44.219 166.485C44.1739 166.607 44.1049 166.719 44.0161 166.814C43.9272 166.908 43.8204 166.985 43.7017 167.037C43.5831 167.09 43.4551 167.119 43.3252 167.122C39.9498 167.552 37.002 168.435 32.2903 168.331Z" fill="#155EEF"/>
<path d="M85.0186 200.555C84.627 192.255 84.8433 193.46 85.1966 190.552C85.1793 190.294 85.2645 190.04 85.4338 189.845C85.603 189.649 85.8425 189.529 86.1002 189.509C86.2286 189.497 86.3581 189.511 86.4808 189.551C86.6036 189.59 86.7171 189.654 86.8146 189.738C86.912 189.823 86.9914 189.926 87.0479 190.042C87.1044 190.158 87.1369 190.284 87.1434 190.413C88.3479 194.536 87.9742 193.825 88.4158 202.095C88.4265 202.32 88.3914 202.545 88.3126 202.756C88.2338 202.968 88.113 203.16 87.9574 203.323C87.8018 203.486 87.6147 203.616 87.4074 203.705C87.2002 203.793 86.9771 203.839 86.7518 203.839C85.1607 203.787 83.5313 203.839 81.9031 203.787C80.275 203.736 78.6455 203.571 77.0289 203.52C76.7656 203.54 76.5052 203.455 76.3047 203.283C76.1043 203.111 75.9804 202.867 75.9601 202.603C75.9487 202.474 75.9631 202.343 76.0024 202.219C76.0417 202.095 76.1053 201.98 76.1893 201.881C76.2733 201.781 76.3761 201.7 76.4919 201.64C76.6077 201.581 76.7341 201.545 76.8638 201.535C79.5413 200.929 82.274 200.601 85.0186 200.555Z" fill="#155EEF"/>
<path d="M143.355 176.185C143.018 178.466 142.862 179.062 142.514 182.191C142.222 185.007 140.783 202.12 140.745 203.01C140.656 205.276 140.605 207.516 140.58 209.782C140.575 209.858 140.585 209.934 140.61 210.006C140.635 210.079 140.674 210.145 140.725 210.202C140.776 210.259 140.838 210.305 140.907 210.337C140.976 210.37 141.051 210.389 141.127 210.392C141.204 210.397 141.281 210.387 141.354 210.362C141.427 210.337 141.495 210.298 141.553 210.248C141.611 210.197 141.658 210.135 141.692 210.066C141.726 209.996 141.746 209.921 141.751 209.844C144.998 177.803 144.512 180.76 144.512 176.261C144.52 176.109 144.467 175.959 144.366 175.845C144.265 175.731 144.123 175.662 143.97 175.652C143.818 175.642 143.668 175.693 143.553 175.792C143.438 175.892 143.366 176.033 143.355 176.185Z" fill="#002266"/>
<path d="M152.363 180.572C151.581 183.456 151.131 184.197 148.686 197.802C147.985 201.666 147.51 205.566 147.261 209.485C147.243 209.564 147.241 209.646 147.257 209.726C147.272 209.806 147.304 209.882 147.35 209.949C147.397 210.016 147.456 210.072 147.526 210.114C147.595 210.157 147.673 210.184 147.753 210.195C147.834 210.205 147.916 210.199 147.994 210.176C148.072 210.153 148.145 210.114 148.207 210.062C148.269 210.009 148.319 209.944 148.355 209.871C148.39 209.798 148.41 209.718 148.413 209.637C153.405 181.83 152.877 187.854 153.491 180.788C153.507 180.645 153.468 180.5 153.382 180.384C153.296 180.267 153.169 180.187 153.027 180.16C152.885 180.133 152.738 180.16 152.615 180.237C152.492 180.313 152.402 180.433 152.363 180.572Z" fill="#002266"/>
<path d="M143.603 218.515C141.9 219.339 140.022 219.734 138.131 219.667C135.911 219.767 132.224 220.017 130.42 218.771C130.063 218.586 129.78 218.285 129.617 217.917C129.454 217.55 129.421 217.137 129.524 216.749C130.292 214.385 135.367 215.341 138.393 213.86C139.107 213.442 139.719 212.872 140.187 212.191C140.649 211.563 141.063 211.881 144.87 211.694C147.525 211.575 147.649 211.281 148.128 211.668C148.23 211.753 148.313 211.857 148.372 211.976C148.431 212.094 148.465 212.224 148.471 212.356C148.471 213.234 148.458 214.073 148.383 214.9C148.261 216.411 147.916 217.895 147.359 219.304C147.312 219.392 147.244 219.467 147.16 219.521C147.076 219.575 146.98 219.607 146.88 219.614C146.781 219.62 146.681 219.601 146.591 219.558C146.501 219.515 146.424 219.449 146.367 219.368C145.792 219.389 145.225 219.451 144.33 219.419C144.182 219.41 144.041 219.353 143.928 219.257C143.815 219.16 143.738 219.029 143.707 218.884L143.603 218.515ZM146.675 213.45C144.946 213.634 143.209 213.727 141.471 213.73C140.882 214.509 140.136 215.155 139.282 215.626C136.553 216.991 133.343 216.612 131.672 217.28C132.915 217.99 136.656 217.888 138.086 217.866C140.004 218.078 141.94 217.696 143.634 216.772C143.732 216.705 143.845 216.663 143.964 216.65C144.082 216.637 144.202 216.653 144.312 216.697C144.423 216.741 144.521 216.811 144.598 216.902C144.675 216.993 144.728 217.101 144.754 217.217L144.932 218.12C145.081 218.12 146.363 218.154 146.497 218.158C146.707 216.598 146.765 215.021 146.67 213.45H146.675ZM131.417 217.128C131.417 217.051 131.405 216.988 131.353 217.025C131.302 217.062 131.361 217.102 131.412 217.128H131.417Z" fill="#002266"/>
<path d="M188.511 191.042C188.67 192.358 188.93 193.66 189.286 194.936C189.693 196.463 192.327 205.664 192.582 206.466C192.976 207.688 193.383 208.872 193.779 210.08C193.816 210.23 193.911 210.359 194.044 210.439C194.109 210.478 194.182 210.505 194.258 210.516C194.333 210.527 194.411 210.524 194.485 210.505C194.559 210.487 194.629 210.454 194.691 210.409C194.752 210.363 194.804 210.306 194.844 210.241C194.883 210.175 194.91 210.102 194.921 210.027C194.933 209.951 194.929 209.874 194.911 209.8C194.182 205.155 193.088 200.576 191.64 196.104C191.146 194.242 190.468 192.435 189.618 190.707C189.571 190.563 189.469 190.443 189.335 190.373C189.201 190.303 189.045 190.289 188.9 190.332C188.755 190.376 188.633 190.475 188.56 190.608C188.487 190.741 188.47 190.897 188.511 191.042Z" fill="#002266"/>
<path d="M199.101 216.681C198.341 218.174 198.217 218.996 197.587 219.035C196.101 219.125 195.433 219.15 195.055 219.15C194.879 219.147 194.712 219.076 194.586 218.953C194.461 218.83 194.387 218.664 194.381 218.488C194.177 216.86 194.223 214.095 194.139 212.697C194.134 212.486 194.201 212.28 194.328 212.112C194.455 211.943 194.635 211.822 194.839 211.768C196.884 211.256 198.963 210.895 201.061 210.686C201.904 210.598 202.017 211.548 205.515 212.901C210.858 214.933 215.054 214.322 216.804 215.561C217.904 216.431 217.291 217.865 216.014 218.552C214.39 219.118 212.681 219.398 210.962 219.379C208.361 219.552 204.562 220.215 202.054 218.739C200.964 218.119 200.023 217.186 199.101 216.681ZM200.883 212.672C199.242 212.834 197.61 213.085 195.996 213.423C195.996 213.935 195.817 216.65 195.792 217.775C196.276 217.801 196.861 217.826 197.231 217.852C197.517 217.008 197.874 216.191 198.3 215.408C199.168 214.355 201.897 217.259 203.607 217.648C206.167 218.204 207.609 217.776 210.822 217.495C212.233 217.47 213.635 217.269 214.996 216.897C213.385 216.413 206.2 216.405 200.883 212.672ZM215.403 216.668C215.467 216.617 215.504 216.567 215.442 216.528C215.379 216.49 215.39 216.576 215.403 216.668Z" fill="#002266"/>
<path d="M188.093 154.838C187.058 149.681 184.765 145.75 179.605 141.489C174.647 137.399 150.616 122.093 138.528 114.306C135.261 112.202 131.718 109.215 127.762 110.361C126.578 110.73 125.522 111.422 124.712 112.36C123.903 113.298 123.372 114.444 123.18 115.668C122.412 118.868 122.924 122.871 123.116 125.441C124.668 146.049 124.096 151.058 126.247 156.48C127.324 159.31 129.209 161.762 131.668 163.529C143.084 171.839 172.697 191.409 174.057 192.276C175.552 193.293 177.259 193.954 179.049 194.21C186.227 195.077 187.881 187.778 188.427 180.557C188.669 177.375 188.414 170.033 188.44 168.747C188.595 162.738 189.056 159.535 188.093 154.838ZM187.248 180.513C186.695 186.676 185.399 193.637 179.237 192.801C176.345 192.389 174.452 190.685 172.197 189.161C163.035 182.811 136.641 164.818 132.798 161.992C130.639 160.431 128.985 158.272 128.038 155.782C126.118 150.882 126.63 147.146 125.074 125.304C124.724 120.598 123.753 113.609 128.318 112.26C131.338 111.348 134.785 114.242 137.455 115.963C150.357 124.283 173.881 139.242 178.395 142.954C183.396 147.035 185.403 150.642 186.411 155.196C187.435 159.812 186.996 163.216 186.996 168.724C186.999 171.963 187.276 180.224 187.248 180.513Z" fill="#002266"/>
<path d="M245.958 76.3024C244.847 74.7596 243.403 73.4863 241.733 72.5766C240.064 71.6669 238.211 71.144 236.312 71.0467C227.429 70.3491 218.163 75.3475 211.535 81.1894C201.876 89.6131 198.854 98.3171 190.543 107.557C190.369 107.752 190.277 108.006 190.287 108.267C186.263 105.006 180.175 105.707 175.101 106.92C170.576 108.049 166.189 109.67 162.018 111.755C160.391 110.005 158.541 108.477 156.514 107.212C156.451 107.169 156.381 107.139 156.307 107.124C156.232 107.108 156.156 107.108 156.081 107.122C156.007 107.136 155.936 107.165 155.872 107.206C155.809 107.248 155.754 107.301 155.712 107.364C155.669 107.427 155.639 107.497 155.623 107.572C155.608 107.646 155.607 107.722 155.622 107.797C155.636 107.871 155.664 107.942 155.706 108.006C155.748 108.069 155.801 108.124 155.864 108.167C157.746 109.885 159.527 111.712 161.196 113.639C161.348 113.789 161.546 113.884 161.758 113.91C161.97 113.935 162.185 113.889 162.368 113.778C164.585 112.575 166.906 111.575 169.303 110.788C175.753 108.425 186.489 105.412 190.917 110.638C190.745 110.664 190.583 110.732 190.444 110.836C190.305 110.94 190.194 111.077 190.121 111.234C190.048 111.392 190.015 111.565 190.025 111.738C190.035 111.911 190.087 112.079 190.178 112.227C190.268 112.38 190.598 112.826 190.649 112.901C190.777 113.421 189.402 113.333 189.274 113.347C189.1 113.35 188.929 113.397 188.778 113.484C188.627 113.571 188.5 113.695 188.409 113.843C187.983 114.554 188.672 115.445 188.153 116.109C187.93 116.444 187.442 116.446 187.161 116.516C187.013 116.549 186.874 116.613 186.752 116.703C186.63 116.793 186.529 116.908 186.455 117.04C186.38 117.172 186.334 117.318 186.32 117.469C186.306 117.619 186.323 117.772 186.371 117.915C186.465 118.299 186.83 118.811 186.639 119.315C186.543 119.63 186.118 119.787 185.794 119.854C185.786 119.709 185.723 119.573 185.619 119.472C185.515 119.37 185.377 119.311 185.232 119.307C182.416 118.949 179.157 119.286 174.313 121.84C172.917 122.456 171.653 123.335 170.59 124.43C140.215 106.778 139.26 105.707 135.619 105.314C132.981 105.27 130.374 105.886 128.034 107.106C127.9 107.172 127.796 107.287 127.746 107.428C127.695 107.569 127.7 107.724 127.761 107.86C127.822 107.997 127.934 108.105 128.072 108.161C128.211 108.217 128.366 108.217 128.505 108.162C130.672 107.151 133.053 106.683 135.441 106.8C138.461 107.2 141.766 109.758 144.45 111.342C170.04 126.453 176.659 130.056 183.047 134.631C186.887 137.365 190.972 140.072 192.924 144.392C195.962 151.168 195.16 159.465 195.494 166.777C195.75 172.503 196.049 178.355 193.228 183.358C191.93 185.363 190.299 187.132 188.405 188.588C188.286 188.69 188.211 188.835 188.198 188.992C188.186 189.148 188.236 189.304 188.337 189.424C188.439 189.543 188.585 189.618 188.741 189.631C188.898 189.643 189.053 189.593 189.173 189.491C191.213 187.978 192.99 186.137 194.43 184.045C196.606 180.346 195.198 179.254 196.468 187.134C197.795 195.973 198.149 200.574 199.726 209.328C199.748 209.478 199.828 209.614 199.949 209.706C200.07 209.798 200.222 209.839 200.373 209.821C200.524 209.803 200.662 209.726 200.757 209.608C200.853 209.489 200.898 209.338 200.884 209.187C200.619 206.371 200.741 205.082 199.98 198.294C198.323 184.342 197.592 183.536 196.901 180.987C196.881 180.889 196.836 180.798 196.77 180.722C196.704 180.647 196.619 180.591 196.524 180.559C196.429 180.527 196.327 180.521 196.229 180.541C196.131 180.561 196.04 180.607 195.965 180.674C197.484 176.227 197.379 171.414 197.245 166.722C196.958 158.262 198.269 147.3 192.547 140.137C193.305 138.654 193.653 137.449 194.346 136.235C195.527 134.194 199.865 130.249 201.688 128.739C205.136 125.857 208.922 123.407 212.963 121.443C221.013 117.489 221.155 118.523 224.494 112.739C225.946 110.179 226.286 106.526 228.565 104.875C229.246 104.363 229.885 104.235 230.424 104.887C230.651 105.25 230.85 105.628 231.022 106.02C231.101 106.167 231.226 106.284 231.377 106.355C231.528 106.426 231.698 106.446 231.861 106.413C232.025 106.381 232.174 106.296 232.286 106.173C232.398 106.049 232.468 105.893 232.485 105.727C232.601 104.542 233.087 103.422 233.872 102.527C234.306 102.121 234.672 102.061 235.246 102.693C235.323 102.784 235.424 102.852 235.536 102.892C235.649 102.932 235.77 102.941 235.887 102.919C236.005 102.897 236.114 102.845 236.205 102.767C236.295 102.69 236.364 102.59 236.404 102.477C237.233 100.173 239.402 99.5856 240.719 103.062C240.715 103.172 240.742 103.28 240.796 103.376C240.85 103.472 240.929 103.55 241.026 103.603C241.122 103.656 241.231 103.682 241.34 103.677C241.45 103.671 241.556 103.636 241.647 103.574C246.33 100.434 250.064 94.9801 250.263 89.4096C250.168 84.7088 248.669 80.144 245.958 76.3024ZM177.277 124.47C176.649 124.925 175.959 125.289 175.229 125.552C174.918 125.68 174.101 125.63 173.758 126.267C173.139 125.896 172.508 125.545 171.887 125.18C174.421 123.816 177.06 122.656 179.779 121.712C179.128 122.782 178.279 123.718 177.277 124.47Z" fill="#002266"/>
<path d="M187.982 147.757C189.458 147.376 190.857 146.744 192.117 145.887C192.787 145.439 192.42 144.62 191.646 144.805C190.147 145.142 188.734 145.788 187.498 146.701C186.877 147.2 187.189 147.905 187.982 147.757Z" fill="#002266"/>
<path d="M164.14 151.519C163.026 145.348 158.657 139.844 152.102 139.607C151.89 139.599 151.681 139.657 151.503 139.773C149.428 140.089 147.482 140.975 145.881 142.333C144.815 140.087 143.756 137.837 142.589 135.636C139.84 130.596 139.196 129.843 138.275 130.304C137.445 130.688 137.454 131.562 139.738 136.997C140.477 138.754 141.304 140.453 142.118 142.19C143.654 145.472 143.552 144.979 143.41 145.208C138.256 153.43 142.581 168.589 155.028 167.465C162.158 166.806 165.455 158.437 164.14 151.519ZM160.997 156.991C160.291 160.465 158.266 163.825 154.725 164.159C146.762 164.884 143.033 156.095 145.167 148.938C145.387 148.193 144.747 148.441 150.086 157.436C150.228 157.679 150.434 157.878 150.682 158.011C150.929 158.145 151.209 158.208 151.49 158.193C151.771 158.179 152.042 158.088 152.275 157.929C152.507 157.771 152.692 157.552 152.809 157.297C153.577 155.229 154.917 151.964 155.939 149.852C156.073 149.626 156.111 149.356 156.045 149.102C155.98 148.848 155.816 148.63 155.59 148.497C155.364 148.363 155.094 148.325 154.84 148.391C154.586 148.456 154.368 148.62 154.234 148.846C153.212 150.313 152.269 151.834 151.41 153.403C151.154 152.906 147.297 145.263 147.15 144.955C148.402 143.301 150.18 142.123 152.192 141.615C158.924 142.336 162.316 150.752 160.997 156.991Z" fill="#155EEF"/>
<path d="M119.963 215.517C106.416 215.276 25.3604 214.92 13.13 214.92C12.2888 214.914 11.469 214.654 10.779 214.172C10.089 213.691 9.56134 213.012 9.26573 212.224C8.60013 210.405 9.42957 210.772 9.62157 185.487C9.77517 165.989 10.9707 51.4957 10.9323 43.0976C10.9247 42.0113 11.345 40.9656 12.1025 40.1868C12.8599 39.4081 13.8935 38.9589 14.9796 38.9363C30.6699 38.5792 109.083 37.888 132.635 37.7395C133.765 37.7286 134.856 38.1582 135.675 38.9373C136.495 39.7164 136.979 40.7838 137.025 41.9136C137.482 54.496 136.761 67.0874 138.119 79.6071C138.124 79.6862 138.145 79.7635 138.18 79.8345C138.215 79.9054 138.264 79.9686 138.325 80.0201C138.385 80.0716 138.455 80.1104 138.53 80.1342C138.606 80.158 138.685 80.1664 138.764 80.1587C138.843 80.151 138.92 80.1275 138.989 80.0896C139.059 80.0516 139.12 80.0001 139.169 79.9379C139.218 79.8758 139.254 79.8043 139.275 79.7279C139.296 79.6515 139.301 79.5716 139.291 79.4931C138.038 67.2051 138.839 54.3527 138.477 41.8611C138.415 40.3492 137.772 38.9195 136.681 37.8712C135.589 36.8229 134.135 36.2372 132.622 36.2368C109.08 36.2752 30.6392 36.6823 14.9476 37.0048C13.3554 37.0384 11.84 37.6955 10.7274 38.835C9.61474 39.9744 8.99383 41.5051 8.99821 43.0976C9.02381 51.4829 7.66189 107.4 7.52237 126.985C7.32525 154.458 8.27373 182.487 7.07693 210.491C7.03684 211.311 7.16387 212.13 7.45029 212.899C7.73672 213.669 8.17655 214.371 8.74308 214.965C9.3096 215.559 9.99097 216.032 10.7458 216.354C11.5006 216.677 12.3131 216.842 13.1339 216.841C25.0456 216.828 109.684 216.434 119.928 216.676C120.078 216.675 120.222 216.616 120.33 216.511C120.437 216.406 120.499 216.263 120.504 216.113C120.508 215.963 120.455 215.817 120.354 215.706C120.253 215.595 120.112 215.527 119.963 215.517Z" fill="#002266"/>
<path d="M179.981 91.7541C180.938 94.4499 182.202 97.0267 183.748 99.4341C183.986 99.8066 186.031 102.904 186.739 102.399C187.379 101.969 186.823 101.393 184.613 97.1506C181.963 92.1817 181.014 88.5388 179.956 88.8921C179.252 89.1378 179.799 91.1359 179.981 91.7541Z" fill="#002266"/>
</svg>
