<svg width="256" height="256" viewBox="0 0 256 256" fill="none" xmlns="http://www.w3.org/2000/svg">
<path d="M226.5 98.0364C224.303 97.9366 221.857 98.1286 220.028 96.6578C216.188 93.5602 219.954 86.0454 213.866 82.2297C220.028 78.3897 214.769 69.7036 219.754 65.0444C220.584 64.2616 221.568 63.6617 222.644 63.2836C223.72 62.9054 224.864 62.7574 226.001 62.8492C227.011 62.9567 227.395 61.4412 226.342 61.262C224.201 60.9388 222.013 61.3635 220.148 62.4646C218.283 63.5658 216.854 65.2761 216.102 67.3074C215.142 70.03 215.628 72.91 215.318 75.7158C215.05 78.1708 213.823 81.0022 210.991 81.102C210.763 81.1207 210.549 81.2195 210.387 81.381C210.225 81.5424 210.125 81.756 210.105 81.984C210.085 82.2119 210.147 82.4396 210.279 82.6265C210.411 82.8134 210.605 82.9477 210.826 83.0054C211.965 83.204 213.021 83.7324 213.863 84.525C214.705 85.3177 215.296 86.3398 215.562 87.4649C216.515 91.0489 215.278 96.5913 220.055 98.9375C222.098 99.8345 224.348 100.155 226.56 99.8642C226.801 99.8332 227.02 99.7081 227.169 99.5163C227.318 99.3244 227.385 99.0813 227.355 98.8402C227.326 98.6286 227.225 98.4334 227.07 98.2871C226.914 98.1408 226.713 98.0523 226.5 98.0364ZM248.97 81.1852C245.864 80.4262 244.411 79.6914 244.678 76.0422C244.879 73.294 245.702 70.5727 245.263 67.8002C245.136 66.6753 244.74 65.5977 244.107 64.6587C243.475 63.7197 242.625 62.9471 241.631 62.4063C239.503 61.5287 237.19 61.1931 234.9 61.4297C233.883 61.4297 234.065 62.9734 235.043 62.99C241.431 63.0911 244.228 64.7526 243.292 71.8578C242.799 75.5327 241.48 79.9001 245.655 82.0454C243.217 83.7913 243.008 86.8889 243.342 89.6447C243.576 91.6146 244.728 94.9887 242.65 96.2329C240.556 97.4109 238.178 97.9868 235.777 97.8969C234.467 97.8969 234.659 99.9014 235.953 99.918C239.427 99.9679 245.597 98.6495 245.738 94.3154C245.815 92.069 245.138 89.8815 245.129 87.6351C245.129 85.623 246.124 82.725 248.653 83.0425C248.874 83.0357 249.087 82.9524 249.254 82.8068C249.422 82.6612 249.533 82.4622 249.571 82.2436C249.608 82.025 249.569 81.8002 249.459 81.6073C249.35 81.4144 249.177 81.2653 248.97 81.1852Z" fill="#155EEF"/>
<path d="M6.84927 76.3506C6.71279 76.4423 6.60095 76.5661 6.52362 76.7112C6.44629 76.8563 6.40584 77.0182 6.40584 77.1826C6.40584 77.347 6.44629 77.5089 6.52362 77.654C6.60095 77.7991 6.71279 77.9229 6.84927 78.0146C8.51327 79.1666 19.7773 86.9656 21.1942 87.4085C22.1133 87.6927 22.5472 86.5727 22.0301 85.9224C21.2787 85.0533 10.5651 78.1311 9.06239 77.1378C14.3898 73.1122 19.5994 68.9624 24.6515 64.6117C25.4874 63.8936 24.2598 62.7416 23.433 63.4354C23.433 63.3138 17.6115 68.5208 6.84927 76.3506ZM59.52 75.7247C55.3446 72.1842 51.2691 68.4927 47.232 64.7858C46.5062 64.1176 45.3786 65.3452 46.0634 66.0466C49.6794 69.7458 53.495 73.2274 57.4285 76.5848C54.6893 79.2527 51.7709 81.7301 48.6938 83.9999C44.201 87.3394 47.3574 87.7567 48.0538 87.1474C52.3712 83.356 54.409 82.4716 59.5738 77.3272C59.6894 77.2263 59.7812 77.1009 59.8424 76.9601C59.9036 76.8193 59.9327 76.6666 59.9275 76.5132C59.9224 76.3598 59.8832 76.2094 59.8127 76.073C59.7422 75.9366 59.6422 75.8176 59.52 75.7247ZM41.1597 60.2264C37.0662 67.6786 31.1309 80.6399 27.2486 88.7845C26.0378 91.2895 27.7325 92.9586 29.4451 89.3349C31.9501 84.1074 41.193 64.0421 42.5011 60.8191C42.8211 60.0088 41.5629 59.493 41.1597 60.2264Z" fill="#155EEF"/>
<path d="M238.659 142.627C234.601 132.696 229.197 124.256 218.226 121.225C204.456 117.458 182.746 127.538 171.762 135.837C153.809 149.39 155.896 161.33 144.265 176.402C136.841 173.897 125.21 167.083 119.857 165.394C119.342 165.126 118.763 165.006 118.185 165.046C117.606 165.085 117.049 165.284 116.576 165.619C112.192 168.051 107.391 174.504 107.098 179.58C107.014 181.009 107.098 181.459 108.122 182.319C114.342 187.412 123.828 192.605 131.018 196.381C144.946 203.688 152.628 205.407 164.66 193.943C168.077 190.64 171.276 187.12 174.239 183.405C178.414 194.911 181.078 202.426 182.029 213.015C182.097 213.75 183.309 213.665 183.341 212.897C183.549 205.649 178.505 189.016 175.066 182.319C177.225 179.524 179.141 176.548 180.792 173.426C181.135 172.767 180.076 172.123 179.658 172.749C174.514 180.531 170.748 185.925 164.026 192.356C152.904 202.994 146.49 202.634 133.014 195.697C124.504 191.278 116.274 186.339 108.372 180.907C108.088 175.004 114.527 168.182 118.435 166.245C127.21 169.527 135.478 175.43 143.752 177.869C144.253 178.019 144.538 178.125 144.837 177.802C154.449 167.347 155.384 152.05 168.736 140.284C179.592 130.757 203.146 118.74 218.002 122.748C226.828 125.161 232.197 131.983 235.854 140.028C240.539 150.396 245.649 164.762 247.402 176.042C247.424 176.203 247.507 176.35 247.634 176.452C247.761 176.553 247.923 176.601 248.085 176.586C248.247 176.571 248.397 176.494 248.503 176.371C248.609 176.248 248.664 176.088 248.655 175.926C247.401 164.387 243.018 153.297 238.659 142.627Z" fill="#002266"/>
<path d="M116.536 162.783C113.147 156.538 116.095 154.943 114.266 152.087C113.94 151.575 112.946 151.936 113.171 152.454C114.081 154.502 111.969 159.135 115.626 163.59C116.095 164.16 116.854 163.365 116.536 162.756V162.783ZM104.846 174.533C102.412 172.949 100.218 171.022 98.3334 168.811C96.8717 167.041 97.0893 166.306 93.8406 166.251C91.3357 166.185 88.6221 167.263 87.9962 169.976C87.8374 170.644 88.8307 171.045 89.0201 170.36C90.0557 167.145 95.1744 167.255 96.1011 168.372C98.6061 171.396 100.419 173.792 104.009 175.763C104.846 176.226 105.692 175.094 104.846 174.533ZM97.9494 161.882C94.1465 161.346 90.2771 162.187 87.04 164.253C86.4896 164.604 86.8736 165.489 87.4995 165.188C90.696 163.574 94.3007 162.951 97.8534 163.396C98.8429 163.51 98.9107 162.018 97.9494 161.882ZM105.139 157.606C104.229 156.603 103.04 155.895 101.725 155.574C100.409 155.253 99.0273 155.332 97.7574 155.803C96.8384 156.279 97.0304 157.263 98.1248 156.988C99.1542 156.655 100.259 156.635 101.3 156.931C102.341 157.228 103.27 157.827 103.969 158.652C104.646 159.394 105.715 158.385 105.106 157.608L105.139 157.606ZM101.798 159.034C101.892 159.078 101.975 159.141 102.044 159.217C102.113 159.294 102.167 159.384 102.201 159.481C102.235 159.579 102.25 159.682 102.245 159.785C102.239 159.888 102.214 159.989 102.169 160.082C102.124 160.176 102.062 160.259 101.985 160.328C101.908 160.397 101.819 160.451 101.721 160.485C101.624 160.519 101.521 160.534 101.417 160.529C101.314 160.523 101.213 160.498 101.12 160.453C98.1133 158.592 94.5984 159.051 91.2755 159.535C90.615 159.635 90.4397 158.609 91.0413 158.408C94.4653 157.28 98.5933 157.105 101.793 159.017L101.798 159.034Z" fill="#002266"/>
<path d="M63.1129 138.496C62.5446 138.171 61.76 138.88 62.2771 139.38C65.9353 142.797 69.792 146.061 73.5002 149.459C69.3248 149.619 43.8989 150.463 42.9888 150.913C41.527 150.321 30.8058 141.335 29.7702 140.058C32.0333 139.999 34.304 139.89 36.576 139.875C36.7715 139.848 36.9491 139.747 37.0722 139.593C37.1953 139.439 37.2543 139.243 37.237 139.046C37.2197 138.85 37.1275 138.668 36.9794 138.537C36.8313 138.407 36.6387 138.338 36.4416 138.346C33.7227 138.163 30.9915 138.311 28.3085 138.788C28.186 138.818 28.0732 138.878 27.9809 138.964C27.8887 139.05 27.8199 139.158 27.7814 139.278C27.7429 139.398 27.7358 139.526 27.7608 139.649C27.7859 139.773 27.8422 139.888 27.9245 139.983C30.1005 143.238 38.1286 149.35 41.6691 152.04C42.8634 152.95 44.3494 152.248 45.8445 152.215C55.0707 152.04 64.3482 151.191 73.6 151.096C75.7376 151.096 78.3936 158.127 72.8576 159.488C65.3414 161.35 48.809 161.784 41.5104 161.727C38.1709 159.295 32.1088 154.57 28.4672 151.663C27.9334 151.238 27.1731 152.165 27.6992 152.617C30.505 154.98 40.6502 163.241 41.0598 163.255C48.6413 163.455 65.9853 163.08 73.3837 161.116C78.2669 159.817 78.5523 154.616 76.4557 150.876C74.6586 147.651 65.2992 139.748 63.1129 138.496ZM31.5405 146.336C31.7683 147.85 31.7747 150.771 29.9546 151.48C29.2608 151.748 28.8269 150.712 29.3952 150.403C30.4461 149.819 30.0122 147.338 30.0352 146.47C30.0302 146.277 30.099 146.089 30.2277 145.945C30.3564 145.8 30.5353 145.711 30.7279 145.693C30.9206 145.676 31.1125 145.733 31.2646 145.853C31.4168 145.972 31.5177 146.145 31.5469 146.336H31.5405ZM45.9034 154.624C46.1425 155.776 46.0318 156.974 45.5855 158.063C45.1391 159.152 44.3775 160.083 43.3984 160.736C43.2703 160.807 43.1212 160.832 42.977 160.805C42.8329 160.778 42.7028 160.701 42.6093 160.588C42.5159 160.475 42.465 160.333 42.4656 160.186C42.4662 160.039 42.5181 159.897 42.6125 159.785C43.3178 159.211 43.8586 158.46 44.1798 157.61C44.5011 156.759 44.5914 155.838 44.4416 154.941C43.9654 153.03 45.6115 153.152 45.9034 154.624Z" fill="#002266"/>
<path d="M83.2947 164.905C82.985 163.986 81.4579 164.595 81.6832 166.569C81.9674 169.129 84.1382 168.765 83.4291 167.529C82.72 166.292 83.5123 165.547 83.2947 164.905Z" fill="#002266"/>
<path d="M178.086 126.368C168.604 128.39 158.948 130.385 149.612 132.657C148.869 132.832 149.078 134.143 149.838 133.975C168.25 129.984 176.691 128.89 178.478 127.663C179.096 127.232 178.746 126.227 178.086 126.368ZM127.084 196.256C113.723 200.898 97.0227 207.178 84.2304 211.278C61.751 196.322 35.3344 179.881 11.9181 165.553C15.4662 164.484 19.5981 163.505 24.919 162.321C26.2886 162.02 25.4195 160.768 24.407 161.026C18.3706 162.538 12.503 163.649 9.79455 164.534C8.95999 164.818 8.96 165.485 9.53856 165.902C32.5786 181.774 59.7901 197.225 83.7786 213.165C84.8026 213.85 123.951 199.053 127.555 197.805C128.553 197.453 128.069 195.909 127.084 196.251V196.256ZM82.048 147.995C81.6947 146.852 78.8992 147.845 77.9315 148.362C77.7815 148.443 77.6664 148.576 77.6083 148.736C77.5502 148.896 77.553 149.072 77.6163 149.231C77.6796 149.389 77.7989 149.518 77.9514 149.594C78.104 149.67 78.2792 149.687 78.4435 149.642C79.9629 149.398 82.3744 149.073 82.048 147.995Z" fill="#002266"/>
<path d="M197.967 108.257C198.336 105.092 199.204 94.8967 196.398 86.1376C193.157 76.0167 181.66 71.3741 175.748 78.9696C160.349 76.0256 151.784 81.9264 151.812 85.2992C151.88 94.409 170.007 96.8474 173.48 101.624C173.556 102.25 174.616 102.125 174.575 101.496C174.373 98.1555 178.858 97.9059 178.533 105.471C178.449 107.459 177.697 108.902 177.94 109.545C178.184 110.188 179.348 111.099 179.901 107.04C181.61 109.393 183.962 111.202 186.674 112.251C188.753 112.91 195.378 110.89 197.321 109.746C198.531 112.251 199.732 114.756 200.952 117.261C201.947 119.309 203.384 118.68 202.289 116.576C202.285 116.442 198.035 108.385 197.967 108.257ZM185.576 124.439C185.647 124.586 185.661 124.754 185.615 124.912C185.57 125.069 185.469 125.203 185.33 125.29C185.192 125.377 185.026 125.41 184.865 125.382C184.704 125.354 184.559 125.268 184.457 125.14C183.645 123.994 182.893 122.807 182.203 121.583C174.907 122.803 172.466 118.094 170.513 112.399C164.358 112.566 170.813 110.336 165.894 99.7479C165.628 99.1885 166.396 98.6714 166.729 99.2359C168.789 102.817 169.562 106.995 168.918 111.076C170.504 111.301 171.297 110.893 171.523 111.602C175.619 124.695 182.068 118.884 183.113 120.495C184.002 121.766 184.824 123.082 185.576 124.439Z" fill="#002266"/>
<path d="M83.8797 169.581C78.8608 171.571 67.6237 176.92 62.8198 177.537C57.8099 178.19 56.9165 172.219 61.0995 170.716C68.9574 167.894 77.2749 166.098 84.7142 162.182C86.8275 161.072 82.7187 160.518 79.2448 159.469C77.4336 164.102 55.0298 164.58 50.3782 164.671L58.2195 168.069C58.8122 168.325 58.3027 169.188 57.7178 168.903L47.616 164.728C43.6083 164.778 40.5683 164.728 40.1677 164.678C39.0566 164.495 32.4941 160.198 29.1366 156.404C27.5584 157.606 26.7149 162.173 27.968 163.768C29.1123 165.221 48.7514 175.617 57.2685 178.214C62.6445 179.885 64.3994 179.049 70.1197 176.896C74.9914 175.068 79.8093 173.119 84.5734 171.05C84.7623 170.954 84.9064 170.789 84.9751 170.589C85.0438 170.388 85.0316 170.169 84.9412 169.978C84.8509 169.787 84.6894 169.638 84.4911 169.564C84.2929 169.489 84.0735 169.496 83.8797 169.581Z" fill="#155EEF"/>
<path d="M50.6458 125.976C47.5981 125.976 46.2938 123.212 41.9789 125.024C37.664 126.837 37.8829 137.366 43.2307 141.207C45.3549 142.695 47.8854 143.493 50.4787 143.493C53.072 143.493 55.6025 142.695 57.7267 141.207C60.7168 138.835 63.0374 132.205 61.0662 128.347C57.76 122.019 53.4515 125.976 50.6458 125.976Z" fill="#155EEF"/>
<path d="M53.335 118.46C52.1062 119.131 49.9942 122.82 49.8944 124.773C49.8803 124.925 49.9235 125.076 50.0156 125.198C50.1077 125.319 50.2419 125.402 50.3918 125.429C50.5418 125.456 50.6965 125.427 50.8255 125.345C50.9544 125.264 51.0483 125.138 51.0886 124.991C52.041 121.65 53.8522 120.181 54.1286 118.975C54.2362 118.536 53.6883 118.272 53.335 118.46Z" fill="#002266"/>
<path d="M159.423 144C155.142 141.089 150.68 138.456 146.062 136.118C145.436 129.763 140.794 94.6918 140.335 92.4633C139.877 90.2348 139.942 89.5398 135.983 89.5398C132.024 89.5398 77.6576 98.4166 75.8374 98.4166C74.0173 98.4166 72.2803 99.2512 73.6998 103.427C75.0605 107.434 82.935 145.595 84.0115 150.095C84.4045 151.759 89.4566 155.866 90.8762 157.143C91.6608 157.844 92.7629 156.643 91.9782 155.941C89.8483 154.036 87.744 152.107 85.632 150.196C98.4243 147.583 137.545 138.765 145.001 136.836C145.135 137.092 157.025 144.351 158.569 145.244C158.741 145.32 158.934 145.332 159.114 145.277C159.294 145.223 159.448 145.106 159.549 144.947C159.65 144.789 159.691 144.599 159.664 144.413C159.637 144.227 159.545 144.057 159.404 143.933L159.423 144ZM154.413 148.651C151.507 146.296 148.168 144.308 145.036 142.213C130.181 145.979 115.526 149.652 100.492 152.751C99.657 152.918 99.5405 151.69 100.316 151.507C114.838 148.058 129.024 144.768 143.52 141.061C145.766 140.485 145.975 141.128 148.013 142.469C150.668 144.206 153.29 145.809 155.812 147.78C157.092 148.756 156.881 149.444 155.812 149.792C147.913 152.171 126.586 158.584 119.48 159.996C118.703 160.146 118.537 159.069 119.238 158.826C130.394 155.003 142.97 151.963 154.392 148.657L154.413 148.651ZM148.26 165.743C147.269 165.166 136.435 168.826 135.308 169.455C135.165 169.548 135.059 169.687 135.01 169.85C134.96 170.013 134.97 170.188 135.037 170.344C135.105 170.5 135.225 170.627 135.377 170.703C135.529 170.779 135.703 170.799 135.868 170.758C137.532 170.257 148.028 167.585 148.518 166.641C148.599 166.487 148.617 166.308 148.569 166.142C148.521 165.975 148.41 165.834 148.26 165.747V165.743ZM86.784 145.774C86.3322 142.593 79.8195 114.227 77.5987 101.643C80.1037 101.167 118.205 95.9488 137.176 93.4182C137.569 94.7635 142.646 127.363 143.122 132.899C141.812 133.376 89.056 144.838 86.784 145.774Z" fill="#002266"/>
<path d="M91.4112 105.359C89.2476 105.514 87.1109 105.932 85.0483 106.604C84.4634 106.812 84.6643 107.806 85.3043 107.706C87.3843 107.372 89.4797 107.08 91.5418 106.796C91.6361 106.787 91.7278 106.76 91.8117 106.716C91.8956 106.673 91.97 106.613 92.0308 106.54C92.0915 106.467 92.1373 106.384 92.1657 106.293C92.194 106.203 92.2042 106.108 92.1958 106.014C92.1874 105.919 92.1605 105.827 92.1167 105.744C92.0728 105.66 92.0129 105.585 91.9403 105.524C91.8676 105.464 91.7838 105.418 91.6934 105.39C91.6031 105.361 91.5081 105.351 91.4138 105.359H91.4112ZM83.7619 71.6954C81.6538 71.9847 79.5878 72.2625 77.4413 72.5914C77.2997 72.6091 77.1695 72.6778 77.0751 72.7847C76.9807 72.8916 76.9286 73.0293 76.9286 73.1719C76.9286 73.3145 76.9807 73.4523 77.0751 73.5592C77.1695 73.6661 77.2997 73.7348 77.4413 73.7524C79.6232 73.7734 81.8019 73.5804 83.9462 73.1764C84.0448 73.1655 84.1402 73.1351 84.227 73.0871C84.3137 73.039 84.39 72.9741 84.4515 72.8963C84.513 72.8185 84.5584 72.7293 84.5851 72.6337C84.6118 72.5382 84.6193 72.4384 84.6071 72.34C84.5949 72.2415 84.5632 72.1465 84.514 72.0604C84.4648 71.9743 84.3989 71.8989 84.3203 71.8384C84.2417 71.778 84.1518 71.7338 84.056 71.7084C83.9601 71.6829 83.8602 71.6768 83.7619 71.6903V71.6954ZM88.0128 84.3201C87.4278 83.7863 81.8163 84.905 80.9229 85.2634C80.3802 85.481 80.5146 86.4833 81.1238 86.4244C82.0429 86.3322 87.7453 85.8151 88.1549 85.2135C88.2443 85.0738 88.2793 84.9061 88.2531 84.7423C88.2269 84.5785 88.1414 84.43 88.0128 84.3252V84.3201ZM81.783 56.3393C79.4463 56.6322 77.1313 57.0786 74.8531 57.6756C74.135 57.8676 74.4102 58.9556 75.1091 58.9197C75.808 58.8839 81.4387 58.0238 81.9814 57.3582C82.046 57.2826 82.0926 57.1935 82.1178 57.0974C82.1431 57.0014 82.1463 56.9008 82.1272 56.8033C82.1081 56.7058 82.0672 56.6139 82.0077 56.5345C81.9481 56.455 81.8713 56.39 81.783 56.3444V56.3393ZM79.5366 48.3201C77.3782 48.4749 75.2472 48.8954 73.1917 49.5719C72.5978 49.7805 72.7987 50.7751 73.4477 50.674C75.5085 50.3514 77.5851 50.0528 79.6774 49.778C79.774 49.7707 79.8681 49.7442 79.9543 49.7001C80.0405 49.656 80.1171 49.5952 80.1796 49.5213C80.242 49.4473 80.2892 49.3616 80.3182 49.2693C80.3472 49.1769 80.3576 49.0797 80.3487 48.9833C80.3397 48.8869 80.3117 48.7932 80.2662 48.7077C80.2208 48.6223 80.1587 48.5467 80.0837 48.4854C80.0087 48.4242 79.9223 48.3785 79.8295 48.351C79.7367 48.3234 79.6393 48.3147 79.543 48.3252L79.5366 48.3201ZM96.4634 128.896C94.3398 128.982 92.2355 129.336 90.2003 129.948C90.0671 130.005 89.9583 130.106 89.8933 130.236C89.8284 130.365 89.8114 130.513 89.8456 130.653C89.8798 130.794 89.9628 130.918 90.0798 131.003C90.1969 131.087 90.3403 131.128 90.4845 131.117C92.5144 130.743 94.5669 130.506 96.6285 130.406C96.7305 130.399 96.83 130.371 96.921 130.325C97.012 130.278 97.0927 130.213 97.1581 130.135C97.2236 130.056 97.2726 129.965 97.3021 129.867C97.3316 129.769 97.341 129.667 97.3298 129.565C97.3186 129.463 97.287 129.365 97.2369 129.276C97.1868 129.186 97.1192 129.108 97.0382 129.046C96.9572 128.983 96.8644 128.938 96.7654 128.912C96.6664 128.887 96.5632 128.881 96.4621 128.896H96.4634ZM86.7264 114.688C86.0006 114.872 86.2758 115.968 86.9824 115.932C87.689 115.896 93.312 115.036 93.8547 114.372C93.917 114.296 93.9617 114.208 93.9857 114.113C94.0096 114.018 94.012 113.919 93.9929 113.823C93.9738 113.727 93.9336 113.637 93.8751 113.558C93.8167 113.48 93.7415 113.415 93.655 113.37C91.3136 113.624 88.9965 114.067 86.7264 114.694V114.688Z" fill="#002266"/>
<path d="M123.885 65.8547C123.757 65.8547 100.589 68.9856 90.4435 70.615C90.3003 70.6258 90.1671 70.6927 90.073 70.8013C89.979 70.9099 89.9317 71.0513 89.9415 71.1946C89.9513 71.3379 90.0174 71.4715 90.1254 71.5663C90.2333 71.6611 90.3744 71.7093 90.5178 71.7004C99.3766 71.2153 115.235 68.0512 124.361 67.2499C125.304 67.1654 124.82 65.7292 123.885 65.8547Z" fill="#155EEF"/>
<path d="M109.824 60.7666C109.788 60.6026 109.696 60.4564 109.563 60.3533C109.431 60.2502 109.266 60.1967 109.098 60.2022C109.098 60.0742 91.575 62.7775 89.3581 63.5301C88.7078 63.7465 89.0419 64.6911 89.6333 64.6156C96.0883 63.781 102.879 62.8748 109.275 61.6268C109.368 61.6073 109.456 61.5694 109.534 61.5153C109.612 61.4613 109.679 61.3922 109.73 61.3121C109.781 61.232 109.816 61.1425 109.832 61.0488C109.848 60.9552 109.845 60.8592 109.824 60.7666Z" fill="#155EEF"/>
<path d="M117.555 74.5215C115.853 74.5215 94.2131 77.8661 92.0832 78.204C91.3664 78.3218 91.7914 79.4239 92.4339 79.365C99.1808 78.7724 110.866 76.6092 117.551 75.8924C118.333 75.8156 118.391 74.4293 117.555 74.5215Z" fill="#155EEF"/>
<path d="M119.168 50.5075C110.618 52.1331 94.8339 53.847 86.7354 55.5673C86.176 55.6838 86.3846 56.7283 86.9107 56.6438C96.6221 55.1168 114.55 52.887 119.393 51.9513C120.312 51.7683 120.086 50.3321 119.168 50.5075Z" fill="#155EEF"/>
<path d="M118.307 42.4961L118.282 42.4705C107.903 44.1345 95.4035 45.6705 84.9229 47.4804C84.3059 47.5802 84.4646 48.6247 85.0829 48.5658C95.3024 47.5981 108.329 45.5015 118.525 43.89C119.31 43.7684 119.101 42.3681 118.307 42.4961Z" fill="#155EEF"/>
<path d="M129.245 78.9761V79.0094C117.981 80.626 105.398 82.5601 94.016 84.2241C93.2326 84.3406 93.3069 85.5514 94.1171 85.4682C104.855 84.3572 118.993 81.8522 129.539 80.3482C130.373 80.2343 130.013 78.8724 129.245 78.9761Z" fill="#155EEF"/>
<path d="M134.372 121.472C124.317 123.762 112.855 125.655 101.891 128.269C101.82 128.279 101.752 128.303 101.691 128.34C101.629 128.377 101.576 128.425 101.533 128.482C101.491 128.54 101.46 128.605 101.442 128.674C101.425 128.744 101.421 128.816 101.432 128.886C101.442 128.957 101.466 129.025 101.503 129.086C101.54 129.148 101.588 129.201 101.645 129.244C101.703 129.286 101.768 129.317 101.837 129.335C101.907 129.352 101.979 129.356 102.049 129.345C110.851 128.193 126.015 124.544 134.957 122.825C135.885 122.635 135.296 121.257 134.372 121.472Z" fill="#155EEF"/>
<path d="M131.643 128.982C122.359 130.841 113.114 132.822 103.867 134.827C103.107 134.994 103.391 136.072 104.142 135.979C112.609 134.885 123.29 132.267 131.79 130.335C132.47 130.176 132.47 128.817 131.643 128.982Z" fill="#155EEF"/>
<path d="M121.07 118.678C121.245 118.64 121.4 118.538 121.503 118.392C121.607 118.246 121.652 118.066 121.631 117.889C121.609 117.711 121.521 117.548 121.386 117.431C121.25 117.314 121.075 117.253 120.896 117.258C120.896 117.13 103.386 119.818 101.148 120.586C100.508 120.795 100.838 121.746 101.431 121.663C107.886 120.824 114.675 119.921 121.07 118.678Z" fill="#155EEF"/>
<path d="M118.19 86.7302C110.547 87.8073 102.93 89.0573 95.3434 90.4793C94.7098 90.6073 94.9184 91.6812 95.5443 91.598C100.964 90.9222 111.352 89.1929 118.417 87.982C119.124 87.8578 118.912 86.6278 118.19 86.7302Z" fill="#155EEF"/>
<path d="M130.176 99.5392L130.184 99.5149C119.612 100.539 107.278 102.696 96.7834 104.525C96.1741 104.625 96.3328 105.668 96.951 105.61C107.163 104.641 119.991 102.42 130.394 100.925C131.176 100.817 130.975 99.456 130.176 99.5392Z" fill="#155EEF"/>
<path d="M131.032 107.53C130.372 108.042 98.7034 112.597 98.5754 112.616C98.0083 112.699 98.2259 113.768 98.743 113.701C109.398 112.357 126.391 109.944 131.226 109C132.186 108.8 131.959 107.355 131.032 107.53Z" fill="#155EEF"/>
</svg>
